<?xml version="1.0" encoding="UTF-8" standalone="no"?>
<!-- Created with Inkscape (http://www.inkscape.org/) -->

<svg
   xmlns:dc="http://purl.org/dc/elements/1.1/"
   xmlns:cc="http://creativecommons.org/ns#"
   xmlns:rdf="http://www.w3.org/1999/02/22-rdf-syntax-ns#"
   xmlns:svg="http://www.w3.org/2000/svg"
   xmlns="http://www.w3.org/2000/svg"
   xmlns:sodipodi="http://sodipodi.sourceforge.net/DTD/sodipodi-0.dtd"
   xmlns:inkscape="http://www.inkscape.org/namespaces/inkscape"
   version="1.1"
   id="svg2"
   width="418"
   height="428"
   viewBox="0 0 418 428"
   sodipodi:docname="dragNdrop.svg"
   inkscape:version="0.92.1 r">
  <title
     id="title4487">dragNdrop</title>
  <metadata
     id="metadata8">
    <rdf:RDF>
      <cc:Work
         rdf:about="">
        <dc:format>image/svg+xml</dc:format>
        <dc:type
           rdf:resource="http://purl.org/dc/dcmitype/StillImage" />
        <dc:title>dragNdrop</dc:title>
        <cc:license
           rdf:resource="http://creativecommons.org/licenses/by-sa/4.0/" />
      </cc:Work>
      <cc:License
         rdf:about="http://creativecommons.org/licenses/by-sa/4.0/">
        <cc:permits
           rdf:resource="http://creativecommons.org/ns#Reproduction" />
        <cc:permits
           rdf:resource="http://creativecommons.org/ns#Distribution" />
        <cc:requires
           rdf:resource="http://creativecommons.org/ns#Notice" />
        <cc:requires
           rdf:resource="http://creativecommons.org/ns#Attribution" />
        <cc:permits
           rdf:resource="http://creativecommons.org/ns#DerivativeWorks" />
        <cc:requires
           rdf:resource="http://creativecommons.org/ns#ShareAlike" />
      </cc:License>
    </rdf:RDF>
  </metadata>
  <defs
     id="defs6" />
  <sodipodi:namedview
     pagecolor="#ffffff"
     bordercolor="#666666"
     borderopacity="1"
     objecttolerance="10"
     gridtolerance="10"
     guidetolerance="10"
     inkscape:pageopacity="0"
     inkscape:pageshadow="2"
     inkscape:window-width="1920"
     inkscape:window-height="1051"
     id="namedview4"
     showgrid="false"
     inkscape:zoom="0.91437237"
     inkscape:cx="-109.11023"
     inkscape:cy="259.38716"
     inkscape:window-x="0"
     inkscape:window-y="0"
     inkscape:window-maximized="1"
     inkscape:current-layer="g4568"
     showguides="true"
     inkscape:guide-bbox="true"
     fit-margin-top="4"
     fit-margin-left="4"
     fit-margin-right="4"
     fit-margin-bottom="4"
     inkscape:pagecheckerboard="false"
     borderlayer="true"
     units="in">
    <sodipodi:guide
       position="484.08753,214.05066"
       orientation="0,1"
       id="guide4608"
       inkscape:locked="false" />
    <sodipodi:guide
       position="208.7839,339.32927"
       orientation="1,0"
       id="guide4610"
       inkscape:locked="false" />
  </sodipodi:namedview>
  <g
     id="g4503"
     transform="translate(-41,-25)">
    <path
       style="fill:#686868;fill-opacity:1;stroke:none;stroke-opacity:1"
       inkscape:connector-curvature="0"
       d="m 45,439 v -10 h 5 5 v 5 5 h 5 5 v 5 5 H 55 45 Z m 30,5 v -5 h 10 10 v 5 5 H 85 75 Z m 30,0 v -5 h 10 10 v 5 5 h -10 -10 z m 30,0 v -5 h 10 10 v 5 5 h -10 -10 z m 30,0 v -5 h 10 10 v 5 5 h -10 -10 z m 30,0 v -5 h 10 10 v 5 5 h -10 -10 z m 30,0 v -5 h 10 10 v 5 5 h -10 -10 z m 30,0 v -5 h 10 10 v 5 5 h -10 -10 z m 30,0 v -5 h 10 10 v 5 5 h -10 -10 z m 30,0 v -5 h 10 10 v 5 5 h -10 -10 z m 30,0 v -5 h 10 10 v 5 5 h -10 -10 z m 30,0 v -5 h 10 10 v 5 5 h -10 -10 z m 30,0 v -5 h 10 10 v 5 5 h -10 -10 z m 30,0 v -5 h 5 5 v -5 -5 h 5 5 v 10 10 H 445 435 Z M 45,408 v -10 h 5 5 v 10 10 h -5 -5 z m 400,0 v -10 h 5 5 v 10 10 h -5 -5 z M 45,377 v -10 h 5 5 v 10 10 h -5 -5 z m 400,0 v -10 h 5 5 v 10 10 h -5 -5 z M 45,346 v -10 h 5 5 v 10 10 h -5 -5 z m 400,0 v -10 h 5 5 v 10 10 h -5 -5 z M 45,315 v -10 h 5 5 v 10 10 h -5 -5 z m 400,0 v -10 h 5 5 v 10 10 h -5 -5 z M 45,285 v -10 h 5 5 v 10 10 h -5 -5 z m 400,0 v -10 h 5 5 v 10 10 h -5 -5 z M 45,254 v -10 h 5 5 v 10 10 h -5 -5 z m 400,0 v -10 h 5 5 v 10 10 h -5 -5 z M 45,223 v -10 h 5 5 v 10 10 h -5 -5 z m 400,0 v -10 h 5 5 v 10 10 h -5 -5 z M 45,192 v -10 h 5 5 v 10 10 h -5 -5 z m 400,0 v -10 h 5 5 v 10 10 h -5 -5 z M 45,162 v -10 h 5 5 v 10 10 h -5 -5 z m 400,0 v -10 h 5 5 v 10 10 h -5 -5 z M 45,131 v -10 h 5 5 v 10 10 h -5 -5 z m 400,0 v -10 h 5 5 v 10 10 h -5 -5 z M 45,100 V 90 h 5 5 v 10 10 h -5 -5 z m 400,0 v -9.999996 h 5 5 V 100 110 h -5 -5 z M 45,69 V 59 h 5 5 v 10 10 h -5 -5 z m 400,0 V 59 h 5 5 v 10 10 h -5 -5 z M 45,39 V 29 h 10 10 v 5 5 h -5 -5 v 5 5 h -5 -5 z m 400,5 v -5 h -5 -5 v -5 -5 h 10 10 v 10 10 h -5 -5 z M 75,34 v -5 h 10 10 v 5 5 H 85 75 Z m 30,0 v -5 h 10 10 v 5 5 h -10 -10 z m 30,0 v -5 h 10 10 v 5 5 h -10 -10 z m 30,0 v -5 h 10 10 v 5 5 h -10 -10 z m 30,0 v -5 h 10 10 v 5 5 h -10 -10 z m 30,0 v -5 h 10 10 v 5 5 h -10 -10 z m 30,0 v -5 h 10 10 v 5 5 h -10 -10 z m 30,0 v -5 h 10 10 v 5 5 h -10 -10 z m 30,0 v -5 h 10 10 v 5 5 h -10 -10 z m 30,0 v -5 h 10 10 v 5 5 h -10 -10 z m 30,0 v -5 h 10 10 v 5 5 h -10 -10 z m 30,0 v -5 h 10 10 v 5 5 h -10 -10 z"
       id="path4517"
       sodipodi:nodetypes="ccccccccccccc" />
    <g
       transform="matrix(14.212432,0,0,14.212432,-129.04947,158.11737)"
       id="g4568"
       style="fill:#848484;fill-opacity:1;stroke:none">
      <path
         style="fill:#686868;fill-opacity:1;stroke:none;stroke-width:1.1505059"
         inkscape:connector-curvature="0"
         d="M 31.257094,8.7796563 H 28.129379 V -1.5920941 H 25.180761 V 8.7796563 h -3.127715 l 4.602024,4.6020247 z"
         id="path4554"
         sodipodi:nodetypes="cccccccc" />
    </g>
  </g>
</svg>
