<?xml version="1.0" encoding="UTF-8" standalone="no"?>
<!-- Created with Inkscape (http://www.inkscape.org/) -->

<svg
   xmlns:dc="http://purl.org/dc/elements/1.1/"
   xmlns:cc="http://creativecommons.org/ns#"
   xmlns:rdf="http://www.w3.org/1999/02/22-rdf-syntax-ns#"
   xmlns:svg="http://www.w3.org/2000/svg"
   xmlns="http://www.w3.org/2000/svg"
   xmlns:xlink="http://www.w3.org/1999/xlink"
   xmlns:sodipodi="http://sodipodi.sourceforge.net/DTD/sodipodi-0.dtd"
   xmlns:inkscape="http://www.inkscape.org/namespaces/inkscape"
   version="1.0"
   width="102.4"
   height="102.4"
   id="svg2408"
   style="display:inline"
   inkscape:version="0.92.4 5da689c313, 2019-01-14"
   sodipodi:docname="applications-fonts.svg">
  <sodipodi:namedview
     pagecolor="#ffffff"
     bordercolor="#666666"
     borderopacity="1"
     objecttolerance="10"
     gridtolerance="10"
     guidetolerance="10"
     inkscape:pageopacity="0"
     inkscape:pageshadow="2"
     inkscape:window-width="3440"
     inkscape:window-height="1364"
     id="namedview3327"
     showgrid="false"
     inkscape:zoom="4.3489584"
     inkscape:cx="-61.549969"
     inkscape:cy="17.687613"
     inkscape:window-x="0"
     inkscape:window-y="0"
     inkscape:window-maximized="1"
     inkscape:current-layer="svg2408" />
  <defs
     id="defs2410">
    <linearGradient
       x1="45.447727"
       y1="92.539597"
       x2="45.447727"
       y2="7.0165396"
       id="ButtonShadow"
       gradientUnits="userSpaceOnUse"
       gradientTransform="scale(1.0058652,0.994169)">
      <stop
         id="stop3750"
         style="stop-color:#000000;stop-opacity:1"
         offset="0" />
      <stop
         id="stop3752"
         style="stop-color:#000000;stop-opacity:0.58823532"
         offset="1" />
    </linearGradient>
    <linearGradient
       id="linearGradient3700">
      <stop
         id="stop3702"
         style="stop-color:#ebebeb;stop-opacity:1"
         offset="0" />
      <stop
         id="stop3704"
         style="stop-color:#fafafa;stop-opacity:1"
         offset="1" />
    </linearGradient>
    <linearGradient
       x1="48"
       y1="90"
       x2="48"
       y2="5.9877172"
       id="linearGradient3706"
       xlink:href="#linearGradient3700"
       gradientUnits="userSpaceOnUse"
       gradientTransform="scale(1.0666667)" />
    <filter
       id="filter3174"
       style="color-interpolation-filters:sRGB">
      <feGaussianBlur
         id="feGaussianBlur3176"
         stdDeviation="1.71" />
    </filter>
    <linearGradient
       x1="45.447727"
       y1="92.539597"
       x2="45.447727"
       y2="7.0165396"
       id="ButtonShadow-0"
       gradientUnits="userSpaceOnUse"
       gradientTransform="matrix(1.0058652,0,0,0.994169,100,0)">
      <stop
         id="stop3750-8"
         style="stop-color:#000000;stop-opacity:1"
         offset="0" />
      <stop
         id="stop3752-5"
         style="stop-color:#000000;stop-opacity:0.58823532"
         offset="1" />
    </linearGradient>
    <linearGradient
       x1="32.251034"
       y1="6.1317081"
       x2="32.251034"
       y2="90.238609"
       id="linearGradient3780"
       xlink:href="#ButtonShadow-0"
       gradientUnits="userSpaceOnUse"
       gradientTransform="matrix(1.0920635,0,0,-1.0793651,-1.2190476,104.60952)" />
    <linearGradient
       x1="32.251034"
       y1="6.1317081"
       x2="32.251034"
       y2="90.238609"
       id="linearGradient3772"
       xlink:href="#ButtonShadow-0"
       gradientUnits="userSpaceOnUse"
       gradientTransform="matrix(1.0920635,0,0,-1.0793651,-1.2190476,104.60952)" />
    <linearGradient
       x1="32.251034"
       y1="6.1317081"
       x2="32.251034"
       y2="90.238609"
       id="linearGradient3725"
       xlink:href="#ButtonShadow-0"
       gradientUnits="userSpaceOnUse"
       gradientTransform="matrix(1.0920635,0,0,1.0793651,-1.2190476,-104.60952)" />
    <linearGradient
       x1="32.251034"
       y1="6.1317081"
       x2="32.251034"
       y2="90.238609"
       id="linearGradient3721"
       xlink:href="#ButtonShadow-0"
       gradientUnits="userSpaceOnUse"
       gradientTransform="matrix(1.0666667,0,0,1.0666667,0,-103.46667)" />
    <linearGradient
       x1="32.251034"
       y1="6.1317081"
       x2="32.251034"
       y2="90.238609"
       id="linearGradient3760"
       xlink:href="#ButtonShadow-0"
       gradientUnits="userSpaceOnUse"
       gradientTransform="matrix(1.0920635,0,0,-1.0793651,-1.2190476,104.60952)" />
    <linearGradient
       id="linearGradient3737-1">
      <stop
         id="stop3739-9"
         style="stop-color:#ffffff;stop-opacity:1"
         offset="0" />
      <stop
         id="stop3741-3"
         style="stop-color:#ffffff;stop-opacity:0"
         offset="1" />
    </linearGradient>
    <radialGradient
       cx="48"
       cy="90.171875"
       r="42"
       fx="48"
       fy="90.171875"
       id="radialGradient2886"
       xlink:href="#linearGradient3737-0"
       gradientUnits="userSpaceOnUse"
       gradientTransform="matrix(1.2344671,0,0,1.0623016,-8.0544224,0.21027403)" />
    <linearGradient
       id="linearGradient3737-0">
      <stop
         id="stop3739-6"
         style="stop-color:#ffffff;stop-opacity:1"
         offset="0" />
      <stop
         id="stop3741-0"
         style="stop-color:#ffffff;stop-opacity:0"
         offset="1" />
    </linearGradient>
    <linearGradient
       x1="36.357143"
       y1="6"
       x2="36.357143"
       y2="63.893143"
       id="linearGradient3923"
       xlink:href="#linearGradient3737-1"
       gradientUnits="userSpaceOnUse"
       gradientTransform="scale(1.0666667)" />
    <linearGradient
       x1="48"
       y1="72"
       x2="48"
       y2="24"
       id="linearGradient3689-3"
       xlink:href="#linearGradient3710-7"
       gradientUnits="userSpaceOnUse"
       gradientTransform="matrix(1.0666667,0,0,1.0666667,-8.291062,-9.9982995)" />
    <linearGradient
       id="linearGradient3710-7">
      <stop
         id="stop3712-2"
         style="stop-color:#2b4777;stop-opacity:1"
         offset="0" />
      <stop
         id="stop3714-0"
         style="stop-color:#5672a0;stop-opacity:1"
         offset="1" />
    </linearGradient>
    <linearGradient
       x1="16"
       y1="71"
       x2="80"
       y2="71"
       id="linearGradient3702-4"
       xlink:href="#linearGradient3676-1"
       gradientUnits="userSpaceOnUse"
       gradientTransform="matrix(1.3333333,0,0,0.53333333,-12.8,-127.2)" />
    <linearGradient
       id="linearGradient3676-1">
      <stop
         id="stop3678-4"
         style="stop-color:#333333;stop-opacity:0"
         offset="0" />
      <stop
         id="stop3688-5"
         style="stop-color:#000000;stop-opacity:1"
         offset="0.25" />
      <stop
         id="stop3684-4"
         style="stop-color:#000000;stop-opacity:1"
         offset="0.5" />
      <stop
         id="stop3686-9"
         style="stop-color:#000000;stop-opacity:1"
         offset="0.75" />
      <stop
         id="stop3680-3"
         style="stop-color:#333333;stop-opacity:0"
         offset="1" />
    </linearGradient>
    <linearGradient
       x1="16"
       y1="71"
       x2="80"
       y2="71"
       id="linearGradient3696-6"
       xlink:href="#linearGradient3676-1"
       gradientUnits="userSpaceOnUse"
       gradientTransform="matrix(0.53333333,0,0,0.53333333,42.666667,-52.933333)" />
    <linearGradient
       x1="16"
       y1="71"
       x2="80"
       y2="71"
       id="linearGradient3692-5"
       xlink:href="#linearGradient3676-1"
       gradientUnits="userSpaceOnUse"
       gradientTransform="matrix(0.93333333,0,0,0.53333333,19.2,-12.8)" />
    <linearGradient
       x1="16"
       y1="71"
       x2="80"
       y2="71"
       id="linearGradient3682-7"
       xlink:href="#linearGradient3676-1"
       gradientUnits="userSpaceOnUse"
       gradientTransform="matrix(1.2,0,0,0.53333333,-10.666667,38.4)" />
    <clipPath
       id="clipPath3729-0">
      <path
         d="m -88,6 c -3.324,0 -6,2.676 -6,6 v 72 c 0,3.324 2.676,6 6,6 h 72 c 3.324,0 6,-2.676 6,-6 V 12 c 0,-3.324 -2.676,-6 -6,-6 z m 42.03125,18 h 5.40625 l 8.46875,44.59375 H -27.375 L -28.03125,72 H -45.5 l 0.65625,-3.40625 H -39.5 L -41.46875,58.0625 h -20.1875 L -67.75,68.59375 h 5.28125 L -63.09375,72 H -76.625 l 0.65625,-3.40625 H -71.75 Z m -0.46875,7.78125 -13.21875,22.8125 h 17.59375 z"
         inkscape:connector-curvature="0"
         id="path3731-0"
         style="fill:#ff00ff;fill-opacity:1;fill-rule:nonzero;stroke:none" />
    </clipPath>
    <filter
       x="-0.14228271"
       y="-0.14575925"
       width="1.2845654"
       height="1.2915184"
       id="filter3733-3"
       style="color-interpolation-filters:sRGB">
      <feGaussianBlur
         id="feGaussianBlur3735-8"
         stdDeviation="3.0366511" />
    </filter>
    <linearGradient
       id="linearGradient3737-9">
      <stop
         id="stop3739-2"
         style="stop-color:#ffffff;stop-opacity:1"
         offset="0" />
      <stop
         id="stop3741-1"
         style="stop-color:#ffffff;stop-opacity:0"
         offset="1" />
    </linearGradient>
    <clipPath
       id="clipPath3613">
      <rect
         width="84"
         height="84"
         rx="6"
         ry="6"
         x="6"
         y="6"
         id="rect3615"
         style="fill:#ffffff;fill-opacity:1;fill-rule:nonzero;stroke:none" />
    </clipPath>
    <filter
       x="-0.192"
       y="-0.192"
       width="1.3839999"
       height="1.3839999"
       id="filter3794"
       style="color-interpolation-filters:sRGB">
      <feGaussianBlur
         id="feGaussianBlur3796"
         stdDeviation="5.28" />
    </filter>
    <linearGradient
       x1="48"
       y1="20.220806"
       x2="48"
       y2="138.66119"
       id="linearGradient4140"
       xlink:href="#linearGradient3737-9"
       gradientUnits="userSpaceOnUse" />
  </defs>
  <metadata
     id="metadata2413">
    <rdf:RDF>
      <cc:Work
         rdf:about="">
        <dc:format>image/svg+xml</dc:format>
        <dc:type
           rdf:resource="http://purl.org/dc/dcmitype/StillImage" />
        <dc:title />
      </cc:Work>
    </rdf:RDF>
  </metadata>
  <g
     id="layer2"
     style="display:none">
    <rect
       width="86"
       height="85"
       rx="6"
       ry="6"
       x="5"
       y="7"
       id="rect3745"
       style="opacity:0.9;fill:url(#ButtonShadow);fill-opacity:1;fill-rule:nonzero;stroke:none;filter:url(#filter3174)"
       transform="scale(1.0666667)" />
  </g>
  <g
     id="layer6"
     style="display:inline">
    <path
       d="m 12.8,101.36667 c -5.8784963,0 -10.7,-4.821507 -10.7,-10.700003 V 14.933333 C 2.1,9.0548371 6.9215038,4.2333333 12.8,4.2333333 h 76.8 c 5.878496,0 10.7,4.8215037 10.7,10.6999997 v 75.733334 c 0,5.878496 -4.821504,10.700003 -10.7,10.700003 z"
       id="path3786"
       style="display:inline;opacity:0.07999998;fill:url(#linearGradient3760);fill-opacity:1;fill-rule:nonzero;stroke:none;stroke-width:1.06666672"
       inkscape:connector-curvature="0" />
    <path
       d="m 12.8,100.3 c -5.3030752,0 -9.6333333,-4.330258 -9.6333333,-9.633333 V 14.933333 C 3.1666667,9.6302582 7.4969249,5.3 12.8,5.3 h 76.8 c 5.303075,0 9.633333,4.3302581 9.633333,9.633333 V 90.666667 C 99.233333,95.969742 94.903075,100.3 89.6,100.3 Z"
       id="path3778"
       style="display:inline;opacity:0.1;fill:url(#linearGradient3780);fill-opacity:1;fill-rule:nonzero;stroke:none;stroke-width:1.06666672"
       inkscape:connector-curvature="0" />
    <path
       d="M 12.8,99.2 C 8.0969245,99.2 4.2666667,95.369742 4.2666667,90.666667 V 14.933333 C 4.2666667,10.230258 8.0969245,6.4 12.8,6.4 h 76.8 c 4.703075,0 8.533333,3.830258 8.533333,8.533333 V 90.666667 C 98.133333,95.369742 94.303075,99.2 89.6,99.2 Z"
       id="path3770"
       style="display:inline;opacity:0.2;fill:url(#linearGradient3772);fill-opacity:1;fill-rule:nonzero;stroke:none;stroke-width:1.06666672"
       inkscape:connector-curvature="0" />
    <rect
       width="91.73333"
       height="90.666664"
       rx="7.4666667"
       ry="7.4666667"
       x="5.3333335"
       y="-98.133331"
       transform="scale(1,-1)"
       id="rect3723"
       style="display:inline;opacity:0.3;fill:url(#linearGradient3725);fill-opacity:1;fill-rule:nonzero;stroke:none;stroke-width:1.06666672" />
    <rect
       width="89.599998"
       height="89.599998"
       rx="6.4000001"
       ry="6.4000001"
       x="6.4000001"
       y="-97.066666"
       transform="scale(1,-1)"
       id="rect3716"
       style="display:inline;opacity:0.45;fill:url(#linearGradient3721);fill-opacity:1;fill-rule:nonzero;stroke:none;stroke-width:1.06666672" />
  </g>
  <g
     id="layer1"
     style="display:inline">
    <rect
       width="89.599998"
       height="89.599998"
       rx="6.4000001"
       ry="6.4000001"
       x="6.4000001"
       y="6.4000001"
       id="rect2419"
       style="fill:url(#linearGradient3706);fill-opacity:1;fill-rule:nonzero;stroke:none;stroke-width:1.06666672" />
    <path
       d="M 12.8,6.4 C 9.2544,6.4 6.4,9.2544 6.4,12.8 V 14.933333 87.466667 89.6 c 0,0.357036 0.044107,0.69408 0.1,1.033333 0.051947,0.315303 0.1035093,0.63671 0.2,0.933334 0.01056,0.03241 0.022283,0.06784 0.033333,0.1 0.1054507,0.306955 0.2505387,0.583948 0.4,0.866666 0.1542315,0.291741 0.3366571,0.571323 0.5333334,0.833334 C 7.8633429,93.628677 8.0653611,93.871703 8.3,94.1 c 0.4692768,0.456593 1.0057707,0.868828 1.6,1.166667 0.297115,0.148919 0.611705,0.26341 0.933333,0.366666 -0.273282,-0.106903 -0.519158,-0.252023 -0.766666,-0.4 -0.0079,-0.0047 -0.02546,0.0048 -0.03333,0 -0.034058,-0.02059 -0.066442,-0.04534 -0.1,-0.06667 C 9.804912,95.084853 9.6869088,94.992253 9.5666667,94.9 9.4534155,94.813813 9.3391669,94.728147 9.2333333,94.633333 9.0435413,94.461138 8.8627093,94.264919 8.7,94.066667 8.5852491,93.927728 8.4670464,93.783696 8.3666667,93.633333 8.339904,93.592395 8.3256533,93.541739 8.3,93.5 8.2309227,93.390099 8.1610901,93.281849 8.1,93.166667 7.9922581,92.95898 7.8806133,92.723252 7.8,92.5 7.7914667,92.476736 7.7748373,92.456747 7.7666667,92.433333 7.7327147,92.335253 7.72848,92.234047 7.7,92.133333 7.6676459,92.019607 7.6249184,91.916767 7.6,91.8 7.5222624,91.435721 7.4666667,91.055248 7.4666667,90.666667 V 88.533333 16 13.866667 c 0,-2.967305 2.3660288,-5.3333337 5.3333333,-5.3333337 H 14.933333 87.466667 89.6 c 2.967305,0 5.333333,2.3660287 5.333333,5.3333337 V 16 88.533333 90.666667 c 0,0.388581 -0.05559,0.769054 -0.133333,1.133333 -0.04709,0.220686 -0.09427,0.424169 -0.166667,0.633333 -0.0082,0.02341 -0.02485,0.0434 -0.03333,0.06667 -0.06692,0.185322 -0.147609,0.391946 -0.233333,0.566667 -0.04435,0.08832 -0.08431,0.181284 -0.133334,0.266666 -0.05824,0.103691 -0.135225,0.200907 -0.2,0.3 -0.100384,0.150363 -0.218582,0.294395 -0.333333,0.433334 -0.152719,0.18608 -0.32335,0.370131 -0.5,0.533333 -0.01192,0.01088 -0.02131,0.02256 -0.03333,0.03333 C 93.019055,94.76726 92.86257,94.883398 92.7,95 c -0.109409,0.07803 -0.217939,0.163588 -0.333333,0.233333 -0.0079,0.0048 -0.02543,-0.0047 -0.03333,0 -0.247508,0.147977 -0.493384,0.293097 -0.766666,0.4 C 91.888295,95.53008 92.202885,95.415586 92.5,95.266667 93.094229,94.968828 93.630723,94.556593 94.1,94.1 c 0.234638,-0.228297 0.436657,-0.471323 0.633333,-0.733333 0.196677,-0.262011 0.379102,-0.541593 0.533334,-0.833334 0.149461,-0.282718 0.294544,-0.559711 0.4,-0.866666 0.0111,-0.03283 0.02275,-0.06692 0.03333,-0.1 0.09649,-0.296624 0.148053,-0.618031 0.2,-0.933334 C 95.955893,90.29408 96,89.957036 96,89.6 V 87.466667 14.933333 12.8 C 96,9.2544 93.1456,6.4 89.6,6.4 Z"
       inkscape:connector-curvature="0"
       id="rect3728"
       style="display:inline;opacity:0.5;fill:url(#linearGradient3923);fill-opacity:1;fill-rule:nonzero;stroke:none;stroke-width:1.06666672" />
    <path
       d="M 12.8,96 C 9.2544,96 6.4,93.1456 6.4,89.6 V 87.466667 14.933333 12.8 c 0,-0.357036 0.044107,-0.69408 0.1,-1.033333 0.051947,-0.315303 0.1035093,-0.63671 0.2,-0.933334 0.010539,-0.0324 0.022285,-0.06784 0.033333,-0.1 0.105456,-0.306955 0.2505389,-0.583948 0.4,-0.8666663 C 7.2875646,9.5749259 7.4699905,9.295344 7.6666667,9.0333333 7.8633428,8.7713227 8.0653616,8.5282965 8.3,8.3 8.7692768,7.8434069 9.3057707,7.4311723 9.9,7.1333333 c 0.297115,-0.1489194 0.611705,-0.2634101 0.933333,-0.3666666 -0.273282,0.1069034 -0.519158,0.2520234 -0.766666,0.4 -0.0079,0.00469 -0.02546,-0.0048 -0.03333,0 -0.034061,0.020587 -0.066446,0.045344 -0.1,0.066667 C 9.804912,7.3151467 9.6869092,7.4077472 9.5666667,7.5 9.4534157,7.5861867 9.339167,7.6718528 9.2333333,7.7666667 9.0435414,7.9388619 8.8627098,8.1350805 8.7,8.3333333 8.5852492,8.472272 8.4670465,8.616304 8.3666667,8.7666667 8.3399051,8.8076053 8.3256576,8.8582613 8.3,8.9 8.2309195,9.0099008 8.1610907,9.1181515 8.1,9.2333333 7.9922578,9.4410197 7.8806135,9.6767477 7.8,9.9 7.7915093,9.923264 7.7748384,9.9432533 7.7666667,9.9666667 7.7327199,10.064747 7.7284752,10.165953 7.7,10.266667 7.6676455,10.380393 7.624918,10.483233 7.6,10.6 7.5222628,10.964279 7.4666667,11.344752 7.4666667,11.733333 V 13.866667 86.4 88.533333 c 0,2.967305 2.3660284,5.333334 5.3333333,5.333334 H 14.933333 87.466667 89.6 c 2.967305,0 5.333333,-2.366029 5.333333,-5.333334 V 86.4 13.866667 11.733333 C 94.933333,11.344752 94.877739,10.964279 94.8,10.6 94.752907,10.379314 94.705728,10.175831 94.633333,9.9666667 94.62512,9.9432533 94.60848,9.923264 94.6,9.9 94.533077,9.7146784 94.452391,9.5080544 94.366667,9.3333333 c -0.04435,-0.08832 -0.08431,-0.1812842 -0.133334,-0.2666666 -0.05824,-0.1036907 -0.135225,-0.2009067 -0.2,-0.3 C 93.932949,8.616304 93.814751,8.472272 93.7,8.3333333 93.547281,8.1472533 93.37665,7.9632021 93.2,7.8 93.188085,7.78912 93.178688,7.77744 93.166667,7.7666667 93.019055,7.6327403 92.86257,7.5166016 92.7,7.4 92.590591,7.3219733 92.482061,7.2364117 92.366667,7.1666667 c -0.0079,-0.0048 -0.02543,0.00469 -0.03333,0 -0.247508,-0.1479766 -0.493384,-0.2930966 -0.766666,-0.4 C 91.888295,6.86992 92.202885,6.9844139 92.5,7.1333333 93.094229,7.4311723 93.630723,7.8434069 94.1,8.3 c 0.234638,0.2282965 0.436657,0.4713227 0.633333,0.7333333 0.196677,0.2620107 0.379102,0.5415926 0.533334,0.8333334 0.149461,0.2827183 0.294544,0.5597113 0.4,0.8666663 0.0111,0.03283 0.02275,0.06692 0.03333,0.1 0.09649,0.296624 0.148053,0.618031 0.2,0.933334 C 95.955893,12.10592 96,12.442964 96,12.8 V 14.933333 87.466667 89.6 c 0,3.5456 -2.8544,6.4 -6.4,6.4 z"
       inkscape:connector-curvature="0"
       id="path3615"
       style="display:inline;opacity:0.4;fill:url(#radialGradient2886);fill-opacity:1;fill-rule:nonzero;stroke:none;stroke-width:1.06666672" />
  </g>
  <g
     id="layer3">
    <rect
       width="66"
       height="66"
       rx="12"
       ry="12"
       x="15"
       y="15"
       clip-path="url(#clipPath3613)"
       id="rect3171"
       style="display:inline;opacity:0.5;fill:url(#linearGradient4140);fill-opacity:1;fill-rule:nonzero;stroke:#ffffff;stroke-width:0.5;stroke-linecap:round;stroke-linejoin:miter;stroke-miterlimit:4;stroke-dasharray:none;stroke-dashoffset:0;stroke-opacity:1;filter:url(#filter3794)"
       transform="scale(1.0666667)" />
  </g>
  <g
     id="layer4">
    <rect
       width="76.800003"
       height="1.0666667"
       x="8.5333338"
       y="75.73333"
       id="rect2902"
       style="color:#000000;display:inline;overflow:visible;visibility:visible;opacity:0.2;fill:url(#linearGradient3682-7);fill-opacity:1;stroke:none;stroke-width:2.13333344;marker:none;enable-background:accumulate" />
    <rect
       width="59.733334"
       height="1.0666667"
       x="34.133335"
       y="24.533333"
       id="rect3690"
       style="color:#000000;display:inline;overflow:visible;visibility:visible;opacity:0.12000002;fill:url(#linearGradient3692-5);fill-opacity:1;stroke:none;stroke-width:2.13333344;marker:none;enable-background:accumulate" />
    <rect
       width="34.133335"
       height="1.0666667"
       x="51.200001"
       y="-15.6"
       transform="rotate(90)"
       id="rect3694"
       style="color:#000000;display:inline;overflow:visible;visibility:visible;opacity:0.15;fill:url(#linearGradient3696-6);fill-opacity:1;stroke:none;stroke-width:2.13333344;marker:none;enable-background:accumulate" />
    <rect
       width="85.333336"
       height="1.0666667"
       x="8.5333338"
       y="-89.866669"
       transform="rotate(90)"
       id="rect3698"
       style="color:#000000;display:inline;overflow:visible;visibility:visible;opacity:0.15;fill:url(#linearGradient3702-4);fill-opacity:1;stroke:none;stroke-width:2.13333344;marker:none;enable-background:accumulate" />
    <g
       aria-label="AV"
       style="font-style:italic;font-variant:normal;font-weight:normal;font-stretch:normal;font-size:70.2328186px;line-height:0%;font-family:'DejaVu Serif';-inkscape-font-specification:'Abandoned Bitplane Italic';text-align:start;writing-mode:lr-tb;text-anchor:start;display:inline;fill:url(#linearGradient3689-3);fill-opacity:1;stroke:none;stroke-width:1.06666672"
       id="text2907">
      <path
         d="M 29.770591,55.530871 H 41.187258 L 38.353924,40.739204 Z M 18.791424,66.801704 19.20809,64.593371 h 2.729167 L 38.645591,35.697537 h 3.5 l 5.5,28.895834 h 3.041667 l -0.416667,2.208333 h -11.3125 l 0.416667,-2.208333 h 3.458333 L 41.562258,57.760037 H 28.478924 l -3.9375,6.833334 h 3.416667 l -0.416667,2.208333 z"
         style="font-size:42.66666794px;fill:url(#linearGradient3689-3);fill-opacity:1;stroke-width:1.06666672"
         id="path885" />
      <path
         d="m 60.770591,37.926704 4.5625,23.875 13.791667,-23.875 h -3.5 l 0.4375,-2.229167 h 9.125 l -0.4375,2.229167 h -3.020833 l -16.708334,28.875 h -3.583334 l -5.4375,-28.875 h -3.104166 l 0.4375,-2.229167 h 11.333333 l -0.4375,2.229167 z"
         style="font-size:42.66666794px;fill:url(#linearGradient3689-3);fill-opacity:1;stroke-width:1.06666672"
         id="path887" />
    </g>
  </g>
</svg>
