<?xml version="1.0" encoding="UTF-8" standalone="no"?>
<!-- Created with Inkscape (http://www.inkscape.org/) -->

<svg
   xmlns:dc="http://purl.org/dc/elements/1.1/"
   xmlns:cc="http://creativecommons.org/ns#"
   xmlns:rdf="http://www.w3.org/1999/02/22-rdf-syntax-ns#"
   xmlns:svg="http://www.w3.org/2000/svg"
   xmlns="http://www.w3.org/2000/svg"
   xmlns:xlink="http://www.w3.org/1999/xlink"
   xmlns:sodipodi="http://sodipodi.sourceforge.net/DTD/sodipodi-0.dtd"
   xmlns:inkscape="http://www.inkscape.org/namespaces/inkscape"
   version="1.0"
   width="96"
   height="96"
   id="svg2408"
   inkscape:version="0.91 r13725"
   sodipodi:docname="xchat.svg">
  <sodipodi:namedview
     pagecolor="#ffffff"
     bordercolor="#666666"
     borderopacity="1"
     objecttolerance="10"
     gridtolerance="10"
     guidetolerance="10"
     inkscape:pageopacity="0"
     inkscape:pageshadow="2"
     inkscape:window-width="1920"
     inkscape:window-height="1051"
     id="namedview169"
     showgrid="false"
     inkscape:zoom="2.4583333"
     inkscape:cx="-69.559322"
     inkscape:cy="48"
     inkscape:window-x="0"
     inkscape:window-y="0"
     inkscape:window-maximized="1"
     inkscape:current-layer="layer6" />
  <defs
     id="defs2410">
    <linearGradient
       id="linearGradient3843">
      <stop
         id="stop3845"
         style="stop-color:#523823;stop-opacity:1"
         offset="0" />
      <stop
         id="stop3847"
         style="stop-color:#79563a;stop-opacity:1"
         offset="0.11780351" />
      <stop
         id="stop3849"
         style="stop-color:#875c38;stop-opacity:1"
         offset="0.23809524" />
      <stop
         id="stop3851"
         style="stop-color:#a66e40;stop-opacity:1"
         offset="1" />
    </linearGradient>
    <linearGradient
       id="linearGradient4384">
      <stop
         id="stop4386"
         style="stop-color:#ffffff;stop-opacity:1"
         offset="0" />
      <stop
         id="stop4388"
         style="stop-color:#ffffff;stop-opacity:0"
         offset="1" />
    </linearGradient>
    <linearGradient
       id="linearGradient4367">
      <stop
         id="stop4369"
         style="stop-color:#ffffff;stop-opacity:0.71755725"
         offset="0" />
      <stop
         id="stop4371"
         style="stop-color:#ffffff;stop-opacity:1"
         offset="1" />
    </linearGradient>
    <linearGradient
       x1="45.447727"
       y1="92.539597"
       x2="45.447727"
       y2="7.0165396"
       id="ButtonShadow"
       gradientUnits="userSpaceOnUse"
       gradientTransform="scale(1.0058652,0.994169)">
      <stop
         id="stop3750"
         style="stop-color:#000000;stop-opacity:1"
         offset="0" />
      <stop
         id="stop3752"
         style="stop-color:#000000;stop-opacity:0.58823532"
         offset="1" />
    </linearGradient>
    <linearGradient
       id="linearGradient3737">
      <stop
         id="stop3739"
         style="stop-color:#ffffff;stop-opacity:1"
         offset="0" />
      <stop
         id="stop3741"
         style="stop-color:#ffffff;stop-opacity:0"
         offset="1" />
    </linearGradient>
    <filter
       color-interpolation-filters="sRGB"
       id="filter3174">
      <feGaussianBlur
         id="feGaussianBlur3176"
         stdDeviation="1.71" />
    </filter>
    <filter
       x="-0.192"
       y="-0.192"
       width="1.3839999"
       height="1.3839999"
       color-interpolation-filters="sRGB"
       id="filter3794">
      <feGaussianBlur
         id="feGaussianBlur3796"
         stdDeviation="5.28" />
    </filter>
    <linearGradient
       x1="48"
       y1="20.220806"
       x2="48"
       y2="138.66119"
       id="linearGradient3613"
       xlink:href="#linearGradient3737"
       gradientUnits="userSpaceOnUse" />
    <linearGradient
       x1="48"
       y1="90"
       x2="48"
       y2="5.9877172"
       id="linearGradient3617"
       xlink:href="#linearGradient3614"
       gradientUnits="userSpaceOnUse" />
    <linearGradient
       x1="45.447727"
       y1="92.539597"
       x2="45.447727"
       y2="7.0165396"
       id="ButtonShadow-0"
       gradientUnits="userSpaceOnUse"
       gradientTransform="matrix(1.0058652,0,0,0.994169,100,0)">
      <stop
         id="stop3750-8"
         style="stop-color:#000000;stop-opacity:1"
         offset="0" />
      <stop
         id="stop3752-5"
         style="stop-color:#000000;stop-opacity:0.58823532"
         offset="1" />
    </linearGradient>
    <linearGradient
       x1="32.251034"
       y1="6.1317081"
       x2="32.251034"
       y2="90.238609"
       id="linearGradient3780"
       xlink:href="#ButtonShadow-0"
       gradientUnits="userSpaceOnUse"
       gradientTransform="matrix(1.0238095,0,0,1.0119048,-1.1428571,-98.071429)" />
    <linearGradient
       x1="32.251034"
       y1="6.1317081"
       x2="32.251034"
       y2="90.238609"
       id="linearGradient3772"
       xlink:href="#ButtonShadow-0"
       gradientUnits="userSpaceOnUse"
       gradientTransform="matrix(1.0238095,0,0,1.0119048,-1.1428571,-98.071429)" />
    <linearGradient
       x1="32.251034"
       y1="6.1317081"
       x2="32.251034"
       y2="90.238609"
       id="linearGradient3725"
       xlink:href="#ButtonShadow-0"
       gradientUnits="userSpaceOnUse"
       gradientTransform="matrix(1.0238095,0,0,1.0119048,-1.1428571,-98.071429)" />
    <linearGradient
       x1="32.251034"
       y1="6.1317081"
       x2="32.251034"
       y2="90.238609"
       id="linearGradient3721"
       xlink:href="#ButtonShadow-0"
       gradientUnits="userSpaceOnUse"
       gradientTransform="translate(0,-97)" />
    <linearGradient
       x1="32.251034"
       y1="6.1317081"
       x2="32.251034"
       y2="90.238609"
       id="linearGradient3026"
       xlink:href="#ButtonShadow-0"
       gradientUnits="userSpaceOnUse"
       gradientTransform="matrix(1.0238095,0,0,1.0119048,-1.1428571,-98.071429)" />
    <linearGradient
       x1="8"
       y1="1033.3622"
       x2="50"
       y2="1033.3622"
       id="linearGradient3542"
       xlink:href="#linearGradient3843"
       gradientUnits="userSpaceOnUse"
       gradientTransform="translate(-2,-956.3622)"
       spreadMethod="reflect" />
    <clipPath
       id="clipPath4355">
      <rect
         width="84"
         height="80"
         rx="6"
         ry="6"
         x="6"
         y="6"
         id="rect4357"
         style="fill:#ffffff;fill-opacity:1;fill-rule:nonzero;stroke:none" />
    </clipPath>
    <radialGradient
       cx="48"
       cy="87.792389"
       r="42"
       fx="48"
       fy="87.792389"
       id="radialGradient4375"
       xlink:href="#linearGradient4367"
       gradientUnits="userSpaceOnUse"
       gradientTransform="matrix(1,-6.7114942e-8,8.4282233e-8,1.2557894,109.99999,-24.505592)" />
    <linearGradient
       x1="48"
       y1="88"
       x2="48"
       y2="-40"
       id="linearGradient4390"
       xlink:href="#linearGradient4384"
       gradientUnits="userSpaceOnUse"
       gradientTransform="matrix(1,0,0,-1,0,92)" />
    <linearGradient
       x1="48"
       y1="82"
       x2="112.12357"
       y2="82.454597"
       id="linearGradient4429"
       xlink:href="#linearGradient4384"
       gradientUnits="userSpaceOnUse"
       spreadMethod="reflect" />
    <linearGradient
       x1="50.630707"
       y1="61.373192"
       x2="50.630707"
       y2="26.422728"
       id="linearGradient3699"
       xlink:href="#linearGradient3697"
       gradientUnits="userSpaceOnUse"
       gradientTransform="translate(0,-2)" />
    <linearGradient
       id="linearGradient3697">
      <stop
         id="stop3699"
         style="stop-color:#e6e6e6;stop-opacity:1"
         offset="0" />
      <stop
         id="stop3701"
         style="stop-color:#f5f5f5;stop-opacity:1"
         offset="1" />
    </linearGradient>
    <linearGradient
       id="linearGradient3771">
      <stop
         id="stop3773"
         style="stop-color:#000000;stop-opacity:1"
         offset="0" />
      <stop
         id="stop3775"
         style="stop-color:#000000;stop-opacity:0"
         offset="1" />
    </linearGradient>
    <linearGradient
       x1="15"
       y1="47.277454"
       x2="127.28258"
       y2="47.277454"
       id="linearGradient3134"
       xlink:href="#linearGradient3771"
       gradientUnits="userSpaceOnUse"
       gradientTransform="translate(0,-2)" />
    <linearGradient
       id="linearGradient3614">
      <stop
         id="stop3616"
         style="stop-color:#6da014;stop-opacity:1"
         offset="0" />
      <stop
         id="stop3618"
         style="stop-color:#b4e844;stop-opacity:1"
         offset="1" />
    </linearGradient>
    <linearGradient
       gradientTransform="translate(-0.51723992,-1.6949157)"
       x1="47.644855"
       y1="57.601807"
       x2="46.654823"
       y2="16.972879"
       id="linearGradient3114-0"
       xlink:href="#linearGradient4867"
       gradientUnits="userSpaceOnUse" />
    <linearGradient
       id="linearGradient4867">
      <stop
         offset="0"
         style="stop-color:#ebebeb;stop-opacity:1"
         id="stop4871" />
      <stop
         offset="0.5775677"
         style="stop-color:#ffffff;stop-opacity:1"
         id="stop4873" />
      <stop
         offset="0.77650416"
         style="stop-color:#fafafa;stop-opacity:1"
         id="stop4875" />
      <stop
         offset="1"
         style="stop-color:#f0f0f0;stop-opacity:1"
         id="stop4877" />
    </linearGradient>
  </defs>
  <metadata
     id="metadata2413">
    <rdf:RDF>
      <cc:Work
         rdf:about="">
        <dc:format>image/svg+xml</dc:format>
        <dc:type
           rdf:resource="http://purl.org/dc/dcmitype/StillImage" />
        <dc:title />
      </cc:Work>
    </rdf:RDF>
  </metadata>
  <g
     id="layer2"
     style="display:none">
    <rect
       width="86"
       height="85"
       rx="6"
       ry="6"
       x="5"
       y="7"
       id="rect3745"
       style="opacity:0.9;fill:url(#ButtonShadow);fill-opacity:1;fill-rule:nonzero;stroke:none;filter:url(#filter3174)" />
  </g>
  <g
     id="layer3"
     style="display:inline">
    <path
       d="m 12,-95.03125 c -5.5110903,0 -10.03125,4.52016 -10.03125,10.03125 l 0,71 c 0,5.5110902 4.5201598,10.03125 10.03125,10.03125 l 72,0 c 5.51109,0 10.03125,-4.5201597 10.03125,-10.03125 l 0,-71 c 0,-5.51109 -4.52016,-10.03125 -10.03125,-10.03125 l -72,0 z"
       transform="scale(1,-1)"
       id="path3786"
       style="opacity:0.07999998;fill:url(#linearGradient3026);fill-opacity:1;fill-rule:nonzero;stroke:none;display:inline" />
    <path
       d="m 12,-94.03125 c -4.971633,0 -9.03125,4.059617 -9.03125,9.03125 l 0,71 c 0,4.9716329 4.0596171,9.03125 9.03125,9.03125 l 72,0 c 4.971633,0 9.03125,-4.059617 9.03125,-9.03125 l 0,-71 c 0,-4.971633 -4.059617,-9.03125 -9.03125,-9.03125 l -72,0 z"
       transform="scale(1,-1)"
       id="path3778"
       style="opacity:0.1;fill:url(#linearGradient3780);fill-opacity:1;fill-rule:nonzero;stroke:none;display:inline" />
    <path
       d="m 12,-93 c -4.4091333,0 -8,3.590867 -8,8 l 0,71 c 0,4.4091333 3.5908667,8 8,8 l 72,0 c 4.409133,0 8,-3.5908667 8,-8 l 0,-71 c 0,-4.409133 -3.590867,-8 -8,-8 l -72,0 z"
       transform="scale(1,-1)"
       id="path3770"
       style="opacity:0.2;fill:url(#linearGradient3772);fill-opacity:1;fill-rule:nonzero;stroke:none;display:inline" />
    <rect
       width="86"
       height="85"
       rx="7"
       ry="7"
       x="5"
       y="-92"
       transform="scale(1,-1)"
       id="rect3723"
       style="opacity:0.3;fill:url(#linearGradient3725);fill-opacity:1;fill-rule:nonzero;stroke:none;display:inline" />
    <rect
       width="84"
       height="84"
       rx="6"
       ry="6"
       x="6"
       y="-91"
       transform="scale(1,-1)"
       id="rect3716"
       style="opacity:0.45;fill:url(#linearGradient3721);fill-opacity:1;fill-rule:nonzero;stroke:none;display:inline" />
  </g>
  <g
     id="layer4">
    <rect
       width="84"
       height="26.000017"
       rx="6"
       ry="6"
       x="6"
       y="64"
       id="rect2841"
       style="color:#000000;fill:url(#linearGradient3542);fill-opacity:1;fill-rule:nonzero;stroke:none;stroke-width:1.5;marker:none;visibility:visible;display:inline;overflow:visible;enable-background:accumulate" />
    <path
       d="m 6,82 0,2 c 0,3.324 2.676,6 6,6 l 72,0 c 3.324,0 6,-2.676 6,-6 l 0,-2 c 0,3.324 -2.676,6 -6,6 L 12,88 C 8.676,88 6,85.324 6,82 z"
       inkscape:connector-curvature="0"
       id="rect4345"
       style="opacity:0.1;color:#000000;fill:#000000;fill-opacity:1;fill-rule:nonzero;stroke:none;stroke-width:1.5;marker:none;visibility:visible;display:inline;overflow:visible;enable-background:accumulate" />
    <path
       d="m 6,83 0,1 c 0,3.324 2.676,6 6,6 l 72,0 c 3.324,0 6,-2.676 6,-6 l 0,-1 c 0,3.324 -2.676,6 -6,6 L 12,89 C 8.676,89 6,86.324 6,83 z"
       inkscape:connector-curvature="0"
       id="rect4336"
       style="opacity:0.1;color:#000000;fill:#000000;fill-opacity:1;fill-rule:nonzero;stroke:none;stroke-width:1.5;marker:none;visibility:visible;display:inline;overflow:visible;enable-background:accumulate" />
    <path
       d="m 6,80 0,1 c 0,3.324 2.676,6 6,6 l 72,0 c 3.324,0 6,-2.676 6,-6 l 0,-1 c 0,3.324 -2.676,6 -6,6 L 12,86 C 8.676,86 6,83.324 6,80 z"
       inkscape:connector-curvature="0"
       id="path4412"
       style="opacity:0.2;fill:#000000;fill-opacity:1;fill-rule:nonzero;stroke:none" />
  </g>
  <g
     id="layer1">
    <rect
       width="84"
       height="80"
       rx="6"
       ry="6"
       x="6"
       y="6"
       id="rect2419"
       style="fill:url(#linearGradient3617);fill-opacity:1;fill-rule:nonzero;stroke:none" />
    <path
       d="M 120.78125,6.125 C 118.04223,6.6826484 116,9.0915 116,12 l 0,68 c 0,3.324 2.676,6 6,6 l 72,0 c 3.324,0 6,-2.676 6,-6 l 0,-68 c 0,-2.9085 -2.04223,-5.3173516 -4.78125,-5.875 2.20512,0.5362071 3.8125,2.4908437 3.8125,4.875 l 0,68 c 0,2.80489 -2.22636,5.03125 -5.03125,5.03125 l -72,0 c -2.80489,0 -5.03125,-2.22636 -5.03125,-5.03125 l 0,-68 c 0,-2.3841563 1.60738,-4.3387929 3.8125,-4.875 z"
       inkscape:connector-curvature="0"
       id="rect4359"
       style="opacity:0.2;fill:url(#radialGradient4375);fill-opacity:1;fill-rule:nonzero;stroke:none" />
    <path
       d="M 12,86 C 8.676,86 6,83.324 6,80 L 6,12 C 6,8.676 8.676,6 12,6 l 72,0 c 3.324,0 6,2.676 6,6 l 0,68 c 0,3.324 -2.676,6 -6,6 z m 0,-0.96875 72,0 c 2.80489,0 5.03125,-2.22636 5.03125,-5.03125 l 0,-68 C 89.03125,9.19511 86.80489,6.96875 84,6.96875 l -72,0 C 9.1951102,6.96875 6.96875,9.19511 6.96875,12 l 0,68 c 0,2.80489 2.2263602,5.03125 5.03125,5.03125 z"
       inkscape:connector-curvature="0"
       id="rect4377"
       style="opacity:0.3;fill:url(#linearGradient4390);fill-opacity:1;fill-rule:nonzero;stroke:none" />
    <path
       d="m 6,78 0,2 c 0,3.324 2.676,6 6,6 l 72,0 c 3.324,0 6,-2.676 6,-6 l 0,-2 c 0,3.324 -2.676,6 -6,6 L 12,84 C 8.676,84 6,81.324 6,78 z"
       inkscape:connector-curvature="0"
       id="rect4414"
       style="opacity:0.1;fill:url(#linearGradient4429);fill-opacity:1;fill-rule:nonzero;stroke:none" />
  </g>
  <g
     id="layer5"
     style="display:inline">
    <rect
       width="66"
       height="62"
       rx="12"
       ry="12"
       x="15"
       y="15"
       clip-path="url(#clipPath4355)"
       id="rect3171"
       style="opacity:0.1;fill:url(#linearGradient3613);fill-opacity:1;fill-rule:nonzero;stroke:#ffffff;stroke-width:0.5;stroke-linecap:round;stroke-linejoin:miter;stroke-miterlimit:4;stroke-opacity:1;stroke-dasharray:none;stroke-dashoffset:0;filter:url(#filter3794)" />
  </g>
  <g
     id="layer6">
    <path
       d="m 48,15 c -18.225397,0 -33,12.088312 -33,27 0,9.498438 5.99976,17.843462 15.0625,22.65625 -0.344625,2.508754 -1.914014,8.649817 -9.34375,10.75 9.622915,1.045823 16.013601,-3.646306 19.40625,-7.1875 C 42.648507,68.724251 45.286067,69 48,69 66.225397,69 81,56.911688 81,42 81,27.088312 66.225397,15 48,15 z"
       inkscape:connector-curvature="0"
       id="path3620"
       style="opacity:0.2;fill:url(#linearGradient3134);fill-opacity:1;stroke:none;display:inline" />
    <path
       d="m 15,42.40625 c -0.0053,0.200069 0,0.392631 0,0.59375 0,9.441618 5.934255,17.73658 14.90625,22.5625 0.06714,-0.329302 0.120551,-0.646372 0.15625,-0.90625 C 21.128785,59.911981 15.167817,51.73661 15,42.40625 z M 81,42.5 C 80.669643,57.177737 66.018397,69 48,69 c -2.713933,0 -5.351493,-0.275749 -7.875,-0.78125 -3.113855,3.250193 -8.747725,7.449531 -17.09375,7.3125 -0.700608,0.332399 -1.466906,0.635974 -2.3125,0.875 9.622915,1.045823 16.013601,-3.646306 19.40625,-7.1875 C 42.648507,69.724251 45.286067,70 48,70 66.225397,70 81,57.911688 81,43 c 0,-0.169364 0.0038,-0.331378 0,-0.5 z"
       inkscape:connector-curvature="0"
       id="path3779"
       style="opacity:0.25;fill:#ffffff;fill-opacity:1;stroke:none;display:inline" />
    <path
       d="m 48,15 c -18.225397,0 -33,12.088312 -33,27 0,9.498438 5.99976,17.843462 15.0625,22.65625 -0.344625,2.508754 -1.914014,8.649817 -9.34375,10.75 9.622915,1.045823 16.013601,-3.646306 19.40625,-7.1875 C 42.648507,68.724251 45.286067,69 48,69 66.225397,69 81,56.911688 81,42 81,27.088312 66.225397,15 48,15 z m 0,2.9375 c 16.920322,0 30.0625,11.100368 30.0625,24.0625 0,12.962132 -13.142178,24.0625 -30.0625,24.0625 -2.514011,0 -4.943414,-0.281692 -7.28125,-0.75 A 2.9517629,2.9517629 0 0 0 38,66.1875 c -1.62088,1.691849 -4.004104,3.567605 -7.125,4.875 1.341535,-2.353896 1.934715,-4.614792 2.125,-6 a 2.9517629,2.9517629 0 0 0 -1.5625,-3 C 23.146372,57.659478 17.9375,50.25556 17.9375,42 17.9375,29.037868 31.079678,17.9375 48,17.9375 z"
       inkscape:connector-curvature="0"
       id="path3811"
       style="opacity:0.05;fill:#000000;fill-opacity:1;stroke:none;display:inline" />
    <path
       d="m 48,15 c -18.225397,0 -33,12.088312 -33,27 0,9.498438 5.99976,17.843462 15.0625,22.65625 -0.344625,2.508754 -1.914014,8.649817 -9.34375,10.75 9.622915,1.045823 16.013601,-3.646306 19.40625,-7.1875 C 42.648507,68.724251 45.286067,69 48,69 66.225397,69 81,56.911688 81,42 81,27.088312 66.225397,15 48,15 z m 0,1.875 c 17.393221,0 31.125,11.456439 31.125,25.125 0,13.668561 -13.731779,25.125 -31.125,25.125 -2.586453,0 -5.094885,-0.268215 -7.5,-0.75 a 1.8821808,1.8821808 0 0 0 -1.71875,0.53125 c -2.229762,2.327391 -5.862118,5.104965 -10.90625,6.21875 0.603013,-0.636706 1.319873,-1.240512 1.75,-1.90625 1.573141,-2.434865 2.115946,-4.881651 2.3125,-6.3125 A 1.8821808,1.8821808 0 0 0 30.9375,63 C 22.366775,58.448498 16.875,50.705921 16.875,42 16.875,28.331439 30.606779,16.875 48,16.875 z"
       inkscape:connector-curvature="0"
       id="path3804"
       style="opacity:0.07999998;fill:#000000;fill-opacity:1;stroke:none;display:inline" />
    <path
       d="m 48,15 c -18.225397,0 -33,12.088312 -33,27 0,9.498438 5.99976,17.843462 15.0625,22.65625 -0.344625,2.508754 -1.914014,8.649817 -9.34375,10.75 9.622915,1.045823 16.013601,-3.646306 19.40625,-7.1875 C 42.648507,68.724251 45.286067,69 48,69 66.225397,69 81,56.911688 81,42 81,27.088312 66.225397,15 48,15 z m 0,1.0625 c 17.7572,0 31.9375,11.725217 31.9375,25.9375 0,14.212283 -14.1803,25.9375 -31.9375,25.9375 -2.642211,0 -5.199353,-0.257842 -7.65625,-0.75 A 1.0589482,1.0589482 0 0 0 39.375,67.5 c -2.643757,2.759512 -7.248859,6.049087 -13.78125,6.71875 1.442602,-1.037266 2.550304,-2.240676 3.34375,-3.46875 1.481728,-2.293379 2.001549,-4.583837 2.1875,-5.9375 A 1.0589482,1.0589482 0 0 0 30.5625,63.71875 C 21.776577,59.052966 16.0625,51.052554 16.0625,42 16.0625,27.787717 30.2428,16.0625 48,16.0625 z"
       inkscape:connector-curvature="0"
       id="path3797"
       style="opacity:0.15;fill:#000000;fill-opacity:1;stroke:none;display:inline" />
    <path
       d="M 43.84375,24 41.5,33.4375 l -8.28125,0 0,1 8.28125,0 2.34375,-9.4375 5.21875,0 0.25,-1 -5.46875,0 z m 11.9375,0 -2.375,9.4375 -6.21875,0 -0.25,1 6.46875,0 2.375,-9.4375 5.15625,0 0.25,-1 -5.40625,0 z m 3.28125,9.4375 -0.25,1 6.78125,0 0,-1 -6.53125,0 z m -19.1875,6.21875 -1.4375,5.6875 -8.03125,0 0,1 8.03125,0 1.6875,-6.6875 -0.25,0 z m 11.9375,0 -1.46875,5.6875 -6.21875,0 -0.25,1 6.46875,0 1.71875,-6.6875 -0.25,0 z m 4.28125,5.6875 -0.25,1 6.9375,0 0,-1 -6.6875,0 z M 36.96875,51.625 34.875,60 l 0.25,0 2.09375,-8.375 -0.25,0 z m 11.9375,0 -2.09375,8.375 0.25,0 2.09375,-8.375 -0.25,0 z"
       inkscape:connector-curvature="0"
       id="path3723"
       style="font-size:50.15510178px;font-style:normal;font-variant:normal;font-weight:bold;font-stretch:normal;text-align:start;line-height:125%;writing-mode:lr-tb;text-anchor:start;fill:none;fill-opacity:1;stroke:none;display:inline;font-family:Sans;-inkscape-font-specification:Abandoned Bitplane Bold;stroke-opacity:1" />
    <path
       d="m 50.264015,24.305084 c 1.23427,3.5e-5 2.28766,0.427178 3.15625,1.25 0.88379,0.82289 1.31248,1.810687 1.3125,2.96875 -2e-5,1.158126 -0.42871,2.145922 -1.3125,2.96875 -0.86859,0.807646 -1.92198,1.218776 -3.15625,1.21875 -1.2343,2.6e-5 -2.3037,-0.411104 -3.1875,-1.21875 -0.88382,-0.822828 -1.312514,-1.810624 -1.312504,-2.96875 -1e-5,-1.158063 0.428684,-2.14586 1.312504,-2.96875 0.8838,-0.822822 1.9532,-1.249965 3.1875,-1.25 z m -4.1875,12.1875 c 1.81332,2.3e-5 3.21225,0.459962 4.1875,1.34375 0.99046,0.868591 1.46873,2.004366 1.46875,3.40625 -2e-5,0.289543 -0.0176,0.799839 -0.0937,1.53125 -0.061,0.731444 -0.19216,1.390491 -0.375,2 l -1.875,6.65625 c -0.15239,0.533338 -0.28436,1.126791 -0.40625,1.8125 -0.12192,0.685719 -0.18751,1.212028 -0.1875,1.5625 -1e-5,0.883819 0.19755,1.492505 0.59375,1.8125 0.39618,0.320005 1.08725,0.46875 2.0625,0.46875 0.45713,0 0.98344,-0.06635 1.5625,-0.21875 0.57903,-0.167624 0.99093,-0.315585 1.25,-0.4375 l -0.5,2.0625 c -1.50859,0.594281 -2.72597,1.038988 -3.625,1.34375 -0.89906,0.320005 -1.93644,0.46875 -3.125,0.46875 -1.828584,0 -3.260304,-0.42869 -4.281254,-1.3125 -1.00572,-0.899043 -1.5,-2.034821 -1.5,-3.40625 0,-0.533328 0.0488,-1.076419 0.125,-1.625 0.0762,-0.563795 0.17613,-1.205288 0.34375,-1.90625 l 1.875,-6.65625 c 0.16761,-0.639985 0.29958,-1.248675 0.40625,-1.8125 0.1219,-0.579031 0.18749,-1.090102 0.1875,-1.5625 -10e-6,-0.853315 -0.18078,-1.445992 -0.53125,-1.78125 -0.35048,-0.335219 -1.00953,-0.53123 -2,-0.53125 -0.48762,2e-5 -0.98191,0.09765 -1.5,0.25 -0.50286,0.152401 -0.94679,0.300377 -1.3125,0.4375 l 0.5,-2.0625 c 1.23428,-0.502836 2.43488,-0.930752 3.5625,-1.28125 1.12761,-0.365692 2.18178,-0.562477 3.187504,-0.5625 z"
       inkscape:connector-curvature="0"
       id="path3620-6"
       style="display:inline;fill:url(#linearGradient3114-0);fill-opacity:1;stroke:none"
       sodipodi:nodetypes="ccccccccccccccccccsccccscsccccccccccccc" />
  </g>
</svg>
