<?xml version="1.0" encoding="UTF-8" standalone="no"?>
<!-- Created with Inkscape (http://www.inkscape.org/) -->

<svg
   xmlns:dc="http://purl.org/dc/elements/1.1/"
   xmlns:cc="http://creativecommons.org/ns#"
   xmlns:rdf="http://www.w3.org/1999/02/22-rdf-syntax-ns#"
   xmlns:svg="http://www.w3.org/2000/svg"
   xmlns="http://www.w3.org/2000/svg"
   xmlns:xlink="http://www.w3.org/1999/xlink"
   xmlns:sodipodi="http://sodipodi.sourceforge.net/DTD/sodipodi-0.dtd"
   xmlns:inkscape="http://www.inkscape.org/namespaces/inkscape"
   version="1.0"
   width="102.4"
   height="102.4"
   id="svg2408"
   inkscape:version="0.92.1 r"
   sodipodi:docname="custom-info.svg">
  <sodipodi:namedview
     pagecolor="#ffffff"
     bordercolor="#666666"
     borderopacity="1"
     objecttolerance="10"
     gridtolerance="10"
     guidetolerance="10"
     inkscape:pageopacity="0"
     inkscape:pageshadow="2"
     inkscape:window-width="1920"
     inkscape:window-height="1051"
     id="namedview169"
     showgrid="false"
     inkscape:zoom="2.4583333"
     inkscape:cx="-69.559321"
     inkscape:cy="47.999999"
     inkscape:window-x="0"
     inkscape:window-y="0"
     inkscape:window-maximized="1"
     inkscape:current-layer="layer6" />
  <defs
     id="defs2410">
    <linearGradient
       id="linearGradient3843">
      <stop
         id="stop3845"
         style="stop-color:#523823;stop-opacity:1"
         offset="0" />
      <stop
         id="stop3847"
         style="stop-color:#79563a;stop-opacity:1"
         offset="0.11780351" />
      <stop
         id="stop3849"
         style="stop-color:#875c38;stop-opacity:1"
         offset="0.23809524" />
      <stop
         id="stop3851"
         style="stop-color:#a66e40;stop-opacity:1"
         offset="1" />
    </linearGradient>
    <linearGradient
       id="linearGradient4384">
      <stop
         id="stop4386"
         style="stop-color:#ffffff;stop-opacity:1"
         offset="0" />
      <stop
         id="stop4388"
         style="stop-color:#ffffff;stop-opacity:0"
         offset="1" />
    </linearGradient>
    <linearGradient
       id="linearGradient4367">
      <stop
         id="stop4369"
         style="stop-color:#ffffff;stop-opacity:0.71755725"
         offset="0" />
      <stop
         id="stop4371"
         style="stop-color:#ffffff;stop-opacity:1"
         offset="1" />
    </linearGradient>
    <linearGradient
       x1="45.447727"
       y1="92.539597"
       x2="45.447727"
       y2="7.0165396"
       id="ButtonShadow"
       gradientUnits="userSpaceOnUse"
       gradientTransform="scale(1.0058652,0.994169)">
      <stop
         id="stop3750"
         style="stop-color:#000000;stop-opacity:1"
         offset="0" />
      <stop
         id="stop3752"
         style="stop-color:#000000;stop-opacity:0.58823532"
         offset="1" />
    </linearGradient>
    <linearGradient
       id="linearGradient3737">
      <stop
         id="stop3739"
         style="stop-color:#ffffff;stop-opacity:1"
         offset="0" />
      <stop
         id="stop3741"
         style="stop-color:#ffffff;stop-opacity:0"
         offset="1" />
    </linearGradient>
    <filter
       id="filter3174"
       style="color-interpolation-filters:sRGB">
      <feGaussianBlur
         id="feGaussianBlur3176"
         stdDeviation="1.71" />
    </filter>
    <filter
       x="-0.192"
       y="-0.192"
       width="1.3839999"
       height="1.3839999"
       id="filter3794"
       style="color-interpolation-filters:sRGB">
      <feGaussianBlur
         id="feGaussianBlur3796"
         stdDeviation="5.28" />
    </filter>
    <linearGradient
       x1="48"
       y1="20.220806"
       x2="48"
       y2="138.66119"
       id="linearGradient3613"
       xlink:href="#linearGradient3737"
       gradientUnits="userSpaceOnUse" />
    <linearGradient
       x1="48"
       y1="90"
       x2="48"
       y2="5.9877172"
       id="linearGradient3617"
       xlink:href="#linearGradient3614"
       gradientUnits="userSpaceOnUse"
       gradientTransform="scale(1.0666667)" />
    <linearGradient
       x1="45.447727"
       y1="92.539597"
       x2="45.447727"
       y2="7.0165396"
       id="ButtonShadow-0"
       gradientUnits="userSpaceOnUse"
       gradientTransform="matrix(1.0058652,0,0,0.994169,100,0)">
      <stop
         id="stop3750-8"
         style="stop-color:#000000;stop-opacity:1"
         offset="0" />
      <stop
         id="stop3752-5"
         style="stop-color:#000000;stop-opacity:0.58823532"
         offset="1" />
    </linearGradient>
    <linearGradient
       x1="32.251034"
       y1="6.1317081"
       x2="32.251034"
       y2="90.238609"
       id="linearGradient3780"
       xlink:href="#ButtonShadow-0"
       gradientUnits="userSpaceOnUse"
       gradientTransform="matrix(1.0920635,0,0,-1.0793651,-1.2190476,104.60952)" />
    <linearGradient
       x1="32.251034"
       y1="6.1317081"
       x2="32.251034"
       y2="90.238609"
       id="linearGradient3772"
       xlink:href="#ButtonShadow-0"
       gradientUnits="userSpaceOnUse"
       gradientTransform="matrix(1.0920635,0,0,-1.0793651,-1.2190476,104.60952)" />
    <linearGradient
       x1="32.251034"
       y1="6.1317081"
       x2="32.251034"
       y2="90.238609"
       id="linearGradient3725"
       xlink:href="#ButtonShadow-0"
       gradientUnits="userSpaceOnUse"
       gradientTransform="matrix(1.0920635,0,0,1.0793651,-1.2190476,-104.60952)" />
    <linearGradient
       x1="32.251034"
       y1="6.1317081"
       x2="32.251034"
       y2="90.238609"
       id="linearGradient3721"
       xlink:href="#ButtonShadow-0"
       gradientUnits="userSpaceOnUse"
       gradientTransform="matrix(1.0666667,0,0,1.0666667,0,-103.46667)" />
    <linearGradient
       x1="32.251034"
       y1="6.1317081"
       x2="32.251034"
       y2="90.238609"
       id="linearGradient3026"
       xlink:href="#ButtonShadow-0"
       gradientUnits="userSpaceOnUse"
       gradientTransform="matrix(1.0920635,0,0,-1.0793651,-1.2190476,104.60952)" />
    <linearGradient
       x1="8"
       y1="1033.3622"
       x2="50"
       y2="1033.3622"
       id="linearGradient3542"
       xlink:href="#linearGradient3843"
       gradientUnits="userSpaceOnUse"
       gradientTransform="matrix(1.0666667,0,0,1.0666667,-2.1333333,-1020.1197)"
       spreadMethod="reflect" />
    <clipPath
       id="clipPath4355">
      <rect
         width="84"
         height="80"
         rx="6"
         ry="6"
         x="6"
         y="6"
         id="rect4357"
         style="fill:#ffffff;fill-opacity:1;fill-rule:nonzero;stroke:none" />
    </clipPath>
    <radialGradient
       cx="48"
       cy="87.792389"
       r="42"
       fx="48"
       fy="87.792389"
       id="radialGradient4375"
       xlink:href="#linearGradient4367"
       gradientUnits="userSpaceOnUse"
       gradientTransform="matrix(1.0666667,-7.1589271e-8,8.9901049e-8,1.3395087,117.33332,-26.139298)" />
    <linearGradient
       x1="48"
       y1="88"
       x2="48"
       y2="-40"
       id="linearGradient4390"
       xlink:href="#linearGradient4384"
       gradientUnits="userSpaceOnUse"
       gradientTransform="matrix(1.0666667,0,0,-1.0666667,0,98.133333)" />
    <linearGradient
       x1="48"
       y1="82"
       x2="112.12357"
       y2="82.454597"
       id="linearGradient4429"
       xlink:href="#linearGradient4384"
       gradientUnits="userSpaceOnUse"
       spreadMethod="reflect"
       gradientTransform="scale(1.0666667)" />
    <linearGradient
       x1="50.630707"
       y1="61.373192"
       x2="50.630707"
       y2="26.422728"
       id="linearGradient3699"
       xlink:href="#linearGradient3697"
       gradientUnits="userSpaceOnUse"
       gradientTransform="translate(0,-2)" />
    <linearGradient
       id="linearGradient3697">
      <stop
         id="stop3699"
         style="stop-color:#e6e6e6;stop-opacity:1"
         offset="0" />
      <stop
         id="stop3701"
         style="stop-color:#f5f5f5;stop-opacity:1"
         offset="1" />
    </linearGradient>
    <linearGradient
       id="linearGradient3771">
      <stop
         id="stop3773"
         style="stop-color:#000000;stop-opacity:1"
         offset="0" />
      <stop
         id="stop3775"
         style="stop-color:#000000;stop-opacity:0"
         offset="1" />
    </linearGradient>
    <linearGradient
       x1="15"
       y1="47.277454"
       x2="127.28258"
       y2="47.277454"
       id="linearGradient3134"
       xlink:href="#linearGradient3697"
       gradientUnits="userSpaceOnUse"
       gradientTransform="matrix(1.0666667,0,0,1.0666667,0,-2.1333333)" />
    <linearGradient
       id="linearGradient3614">
      <stop
         id="stop3616"
         style="stop-color:#6da014;stop-opacity:1"
         offset="0" />
      <stop
         id="stop3618"
         style="stop-color:#b4e844;stop-opacity:1"
         offset="1" />
    </linearGradient>
    <linearGradient
       gradientTransform="matrix(1.0666667,0,0,1.0666667,-0.55172258,-1.8079101)"
       x1="47.644855"
       y1="57.601807"
       x2="46.654823"
       y2="16.972879"
       id="linearGradient3114-0"
       xlink:href="#linearGradient4867"
       gradientUnits="userSpaceOnUse" />
    <linearGradient
       id="linearGradient4867">
      <stop
         offset="0"
         style="stop-color:#ebebeb;stop-opacity:1"
         id="stop4871" />
      <stop
         offset="0.5775677"
         style="stop-color:#ffffff;stop-opacity:1"
         id="stop4873" />
      <stop
         offset="0.77650416"
         style="stop-color:#fafafa;stop-opacity:1"
         id="stop4875" />
      <stop
         offset="1"
         style="stop-color:#f0f0f0;stop-opacity:1"
         id="stop4877" />
    </linearGradient>
  </defs>
  <metadata
     id="metadata2413">
    <rdf:RDF>
      <cc:Work
         rdf:about="">
        <dc:format>image/svg+xml</dc:format>
        <dc:type
           rdf:resource="http://purl.org/dc/dcmitype/StillImage" />
        <dc:title />
      </cc:Work>
    </rdf:RDF>
  </metadata>
  <g
     id="layer2"
     style="display:none">
    <rect
       width="86"
       height="85"
       rx="6"
       ry="6"
       x="5"
       y="7"
       id="rect3745"
       style="opacity:0.9;fill:url(#ButtonShadow);fill-opacity:1;fill-rule:nonzero;stroke:none;filter:url(#filter3174)"
       transform="scale(1.0666667)" />
  </g>
  <g
     id="layer3"
     style="display:inline">
    <path
       d="m 12.8,101.36667 c -5.8784963,0 -10.7,-4.821507 -10.7,-10.700003 V 14.933333 C 2.1,9.0548371 6.9215038,4.2333333 12.8,4.2333333 h 76.8 c 5.878496,0 10.7,4.8215037 10.7,10.6999997 v 75.733334 c 0,5.878496 -4.821504,10.700003 -10.7,10.700003 z"
       id="path3786"
       style="display:inline;opacity:0.07999998;fill:url(#linearGradient3026);fill-opacity:1;fill-rule:nonzero;stroke:none;stroke-width:1.06666672"
       inkscape:connector-curvature="0" />
    <path
       d="m 12.8,100.3 c -5.3030752,0 -9.6333333,-4.330258 -9.6333333,-9.633333 V 14.933333 C 3.1666667,9.6302582 7.4969249,5.3 12.8,5.3 h 76.8 c 5.303075,0 9.633333,4.3302581 9.633333,9.633333 V 90.666667 C 99.233333,95.969742 94.903075,100.3 89.6,100.3 Z"
       id="path3778"
       style="display:inline;opacity:0.1;fill:url(#linearGradient3780);fill-opacity:1;fill-rule:nonzero;stroke:none;stroke-width:1.06666672"
       inkscape:connector-curvature="0" />
    <path
       d="M 12.8,99.2 C 8.0969245,99.2 4.2666667,95.369742 4.2666667,90.666667 V 14.933333 C 4.2666667,10.230258 8.0969245,6.4 12.8,6.4 h 76.8 c 4.703075,0 8.533333,3.830258 8.533333,8.533333 V 90.666667 C 98.133333,95.369742 94.303075,99.2 89.6,99.2 Z"
       id="path3770"
       style="display:inline;opacity:0.2;fill:url(#linearGradient3772);fill-opacity:1;fill-rule:nonzero;stroke:none;stroke-width:1.06666672"
       inkscape:connector-curvature="0" />
    <rect
       width="91.73333"
       height="90.666664"
       rx="7.4666667"
       ry="7.4666667"
       x="5.3333335"
       y="-98.133331"
       transform="scale(1,-1)"
       id="rect3723"
       style="display:inline;opacity:0.3;fill:url(#linearGradient3725);fill-opacity:1;fill-rule:nonzero;stroke:none;stroke-width:1.06666672" />
    <rect
       width="89.599998"
       height="89.599998"
       rx="6.4000001"
       ry="6.4000001"
       x="6.4000001"
       y="-97.066666"
       transform="scale(1,-1)"
       id="rect3716"
       style="display:inline;opacity:0.45;fill:url(#linearGradient3721);fill-opacity:1;fill-rule:nonzero;stroke:none;stroke-width:1.06666672" />
  </g>
  <g
     id="layer4">
    <rect
       width="89.599998"
       height="27.733351"
       rx="6.4000001"
       ry="6.4000001"
       x="6.4000001"
       y="68.26667"
       id="rect2841"
       style="color:#000000;display:inline;overflow:visible;visibility:visible;fill:url(#linearGradient3542);fill-opacity:1;fill-rule:nonzero;stroke:none;stroke-width:1.60000002;marker:none;enable-background:accumulate" />
    <path
       d="M 6.4,87.466667 V 89.6 c 0,3.5456 2.8544,6.4 6.4,6.4 h 76.8 c 3.5456,0 6.4,-2.8544 6.4,-6.4 v -2.133333 c 0,3.5456 -2.8544,6.4 -6.4,6.4 H 12.8 c -3.5456,0 -6.4,-2.8544 -6.4,-6.4 z"
       inkscape:connector-curvature="0"
       id="rect4345"
       style="color:#000000;display:inline;overflow:visible;visibility:visible;opacity:0.1;fill:#000000;fill-opacity:1;fill-rule:nonzero;stroke:none;stroke-width:1.60000002;marker:none;enable-background:accumulate" />
    <path
       d="M 6.4,88.533333 V 89.6 c 0,3.5456 2.8544,6.4 6.4,6.4 h 76.8 c 3.5456,0 6.4,-2.8544 6.4,-6.4 v -1.066667 c 0,3.5456 -2.8544,6.4 -6.4,6.4 H 12.8 c -3.5456,0 -6.4,-2.8544 -6.4,-6.4 z"
       inkscape:connector-curvature="0"
       id="rect4336"
       style="color:#000000;display:inline;overflow:visible;visibility:visible;opacity:0.1;fill:#000000;fill-opacity:1;fill-rule:nonzero;stroke:none;stroke-width:1.60000002;marker:none;enable-background:accumulate" />
    <path
       d="M 6.4,85.333333 V 86.4 c 0,3.5456 2.8544,6.4 6.4,6.4 h 76.8 c 3.5456,0 6.4,-2.8544 6.4,-6.4 v -1.066667 c 0,3.5456 -2.8544,6.4 -6.4,6.4 H 12.8 c -3.5456,0 -6.4,-2.8544 -6.4,-6.4 z"
       inkscape:connector-curvature="0"
       id="path4412"
       style="opacity:0.2;fill:#000000;fill-opacity:1;fill-rule:nonzero;stroke:none;stroke-width:1.06666672" />
  </g>
  <g
     id="layer1">
    <rect
       width="89.599998"
       height="85.333336"
       rx="6.4000001"
       ry="6.4000001"
       x="6.4000001"
       y="6.4000001"
       id="rect2419"
       style="fill:url(#linearGradient3617);fill-opacity:1;fill-rule:nonzero;stroke:none;stroke-width:1.06666672" />
    <path
       d="m 128.83333,6.5333333 c -2.92162,0.594825 -5.1,3.1642667 -5.1,6.2666667 v 72.533333 c 0,3.5456 2.8544,6.4 6.4,6.4 h 76.8 c 3.5456,0 6.4,-2.8544 6.4,-6.4 V 12.8 c 0,-3.1024 -2.17838,-5.6718417 -5.1,-6.2666667 2.35213,0.5719543 4.06667,2.6569 4.06667,5.1999997 v 72.533334 c 0,2.991882 -2.37478,5.366666 -5.36667,5.366666 h -76.8 c -2.99188,0 -5.36666,-2.374784 -5.36666,-5.366666 V 11.733333 c 0,-2.5430997 1.71454,-4.6280454 4.06666,-5.1999997 z"
       inkscape:connector-curvature="0"
       id="rect4359"
       style="opacity:0.2;fill:url(#radialGradient4375);fill-opacity:1;fill-rule:nonzero;stroke:none;stroke-width:1.06666672" />
    <path
       d="m 12.8,91.733333 c -3.5456,0 -6.4,-2.8544 -6.4,-6.4 V 12.8 c 0,-3.5456 2.8544,-6.4 6.4,-6.4 h 76.8 c 3.5456,0 6.4,2.8544 6.4,6.4 v 72.533333 c 0,3.5456 -2.8544,6.4 -6.4,6.4 z M 12.8,90.7 h 76.8 c 2.991883,0 5.366667,-2.374784 5.366667,-5.366667 V 12.8 C 94.966667,9.8081173 92.591883,7.4333333 89.6,7.4333333 H 12.8 c -2.9918825,0 -5.3666667,2.374784 -5.3666667,5.3666667 V 85.333333 C 7.4333333,88.325216 9.8081175,90.7 12.8,90.7 Z"
       inkscape:connector-curvature="0"
       id="rect4377"
       style="opacity:0.3;fill:url(#linearGradient4390);fill-opacity:1;fill-rule:nonzero;stroke:none;stroke-width:1.06666672" />
    <path
       d="m 6.4,83.2 v 2.133333 c 0,3.5456 2.8544,6.4 6.4,6.4 h 76.8 c 3.5456,0 6.4,-2.8544 6.4,-6.4 V 83.2 c 0,3.5456 -2.8544,6.4 -6.4,6.4 H 12.8 c -3.5456,0 -6.4,-2.8544 -6.4,-6.4 z"
       inkscape:connector-curvature="0"
       id="rect4414"
       style="opacity:0.1;fill:url(#linearGradient4429);fill-opacity:1;fill-rule:nonzero;stroke:none;stroke-width:1.06666672" />
  </g>
  <g
     id="layer5"
     style="display:inline">
    <rect
       width="66"
       height="62"
       rx="12"
       ry="12"
       x="15"
       y="15"
       clip-path="url(#clipPath4355)"
       id="rect3171"
       style="opacity:0.1;fill:url(#linearGradient3613);fill-opacity:1;fill-rule:nonzero;stroke:#ffffff;stroke-width:0.5;stroke-linecap:round;stroke-linejoin:miter;stroke-miterlimit:4;stroke-dasharray:none;stroke-dashoffset:0;stroke-opacity:1;filter:url(#filter3794)"
       transform="scale(1.0666667)" />
  </g>
  <g
     id="layer6">
    <path
       d="M 51.2,16 C 31.759577,16 16,28.894199 16,44.8 16,54.931667 22.399744,63.833026 32.066667,68.966667 31.699067,71.642671 30.025052,78.193138 22.1,80.433333 32.364443,81.548878 39.181174,76.54394 42.8,72.766667 45.491741,73.305868 48.305138,73.6 51.2,73.6 70.640423,73.6 86.4,60.705801 86.4,44.8 86.4,28.894199 70.640423,16 51.2,16 Z"
       inkscape:connector-curvature="0"
       id="path3620"
       style="display:inline;opacity:0.337;fill:url(#linearGradient3134);fill-opacity:1;stroke:none;stroke-width:1.06666672" />
    <path
       d="m 16,45.233333 c -0.0057,0.213407 0,0.418807 0,0.633334 0,10.071059 6.329872,18.919018 15.9,24.066666 0.07162,-0.351255 0.128588,-0.689463 0.166667,-0.966666 C 22.537371,63.906113 16.179005,55.185717 16,45.233333 Z m 70.4,0.1 C 86.047619,60.989586 70.419623,73.6 51.2,73.6 c -2.894862,0 -5.708259,-0.294132 -8.4,-0.833333 -3.321445,3.466872 -9.330907,7.946166 -18.233333,7.8 C 23.819351,80.921226 23.001967,81.245039 22.1,81.5 c 10.264443,1.115545 17.081174,-3.889393 20.7,-7.666667 2.691741,0.539201 5.505138,0.833334 8.4,0.833334 19.440423,0 35.2,-12.8942 35.2,-28.8 0,-0.180655 0.0041,-0.35347 0,-0.533334 z"
       inkscape:connector-curvature="0"
       id="path3779"
       style="display:inline;opacity:0.25;fill:#ffffff;fill-opacity:1;stroke:none;stroke-width:1.06666672" />
    <path
       d="M 51.2,16 C 31.759577,16 16,28.894199 16,44.8 16,54.931667 22.399744,63.833026 32.066667,68.966667 31.699067,71.642671 30.025052,78.193138 22.1,80.433333 32.364443,81.548878 39.181174,76.54394 42.8,72.766667 45.491741,73.305868 48.305138,73.6 51.2,73.6 70.640423,73.6 86.4,60.705801 86.4,44.8 86.4,28.894199 70.640423,16 51.2,16 Z m 0,3.133333 c 18.048343,0 32.066667,11.840393 32.066667,25.666667 0,13.826274 -14.018324,25.666667 -32.066667,25.666667 -2.681612,0 -5.272975,-0.300472 -7.766667,-0.8 a 3.1485471,3.1485471 0 0 0 -2.9,0.933333 c -1.728938,1.804639 -4.271044,3.805445 -7.6,5.2 1.430971,-2.510822 2.063696,-4.922445 2.266667,-6.4 a 3.1485471,3.1485471 0 0 0 -1.666667,-3.2 c -8.84387,-4.696557 -14.4,-12.594069 -14.4,-21.4 0,-13.826274 14.018324,-25.666667 32.066667,-25.666667 z"
       inkscape:connector-curvature="0"
       id="path3811"
       style="display:inline;opacity:0.05;fill:#000000;fill-opacity:1;stroke:none;stroke-width:1.06666672" />
    <path
       d="M 51.2,16 C 31.759577,16 16,28.894199 16,44.8 16,54.931667 22.399744,63.833026 32.066667,68.966667 31.699067,71.642671 30.025052,78.193138 22.1,80.433333 32.364443,81.548878 39.181174,76.54394 42.8,72.766667 45.491741,73.305868 48.305138,73.6 51.2,73.6 70.640423,73.6 86.4,60.705801 86.4,44.8 86.4,28.894199 70.640423,16 51.2,16 Z m 0,2 c 18.552769,0 33.2,12.220202 33.2,26.8 0,14.579798 -14.647231,26.8 -33.2,26.8 -2.758883,0 -5.434544,-0.286096 -8,-0.8 a 2.0076595,2.0076595 0 0 0 -1.833333,0.566667 C 38.988254,73.849217 35.113741,76.811963 29.733333,78 30.376547,77.320847 31.141198,76.676787 31.6,75.966667 c 1.678017,-2.59719 2.257009,-5.207095 2.466667,-6.733334 A 2.0076595,2.0076595 0 0 0 33,67.2 C 23.857893,62.345065 18,54.086316 18,44.8 18,30.220202 32.647231,18 51.2,18 Z"
       inkscape:connector-curvature="0"
       id="path3804"
       style="display:inline;opacity:0.07999998;fill:#000000;fill-opacity:1;stroke:none;stroke-width:1.06666672" />
    <path
       d="M 51.2,16 C 31.759577,16 16,28.894199 16,44.8 16,54.931667 22.399744,63.833026 32.066667,68.966667 31.699067,71.642671 30.025052,78.193138 22.1,80.433333 32.364443,81.548878 39.181174,76.54394 42.8,72.766667 45.491741,73.305868 48.305138,73.6 51.2,73.6 70.640423,73.6 86.4,60.705801 86.4,44.8 86.4,28.894199 70.640423,16 51.2,16 Z m 0,1.133333 c 18.941013,0 34.066667,12.506898 34.066667,27.666667 0,15.159769 -15.125654,27.666667 -34.066667,27.666667 -2.818358,0 -5.545977,-0.275032 -8.166667,-0.8 A 1.1295447,1.1295447 0 0 0 42,72 c -2.820007,2.943479 -7.732116,6.452359 -14.7,7.166667 1.538775,-1.106417 2.720324,-2.390055 3.566667,-3.7 1.58051,-2.446271 2.134985,-4.889426 2.333333,-6.333334 A 1.1295447,1.1295447 0 0 0 32.6,67.966667 C 23.228349,62.98983 17.133333,54.456058 17.133333,44.8 17.133333,29.640231 32.258987,17.133333 51.2,17.133333 Z"
       inkscape:connector-curvature="0"
       id="path3797"
       style="display:inline;opacity:0.15;fill:#000000;fill-opacity:1;stroke:none;stroke-width:1.06666672" />
    <path
       d="m 46.766667,25.6 -2.5,10.066667 h -8.833334 v 1.066666 h 8.833334 l 2.5,-10.066666 h 5.566666 L 52.6,25.6 Z M 59.5,25.6 56.966667,35.666667 h -6.633334 l -0.266666,1.066666 h 6.9 L 59.5,26.666667 H 65 L 65.266667,25.6 Z m 3.5,10.066667 -0.266667,1.066666 h 7.233334 V 35.666667 Z M 42.533333,42.3 41,48.366667 h -8.566667 v 1.066666 H 41 L 42.8,42.3 Z m 12.733334,0 L 53.7,48.366667 H 47.066667 L 46.8,49.433333 h 6.9 L 55.533333,42.3 Z m 4.566666,6.066667 -0.266666,1.066666 h 7.4 v -1.066666 z m -20.4,6.7 L 37.2,64 h 0.266667 L 39.7,55.066667 Z m 12.733334,0 L 49.933333,64 H 50.2 l 2.233333,-8.933333 z"
       inkscape:connector-curvature="0"
       id="path3723"
       style="font-style:normal;font-variant:normal;font-weight:bold;font-stretch:normal;font-size:50.15510178px;line-height:125%;font-family:Sans;-inkscape-font-specification:'Abandoned Bitplane Bold';text-align:start;writing-mode:lr-tb;text-anchor:start;display:inline;fill:none;fill-opacity:1;stroke:none;stroke-width:1.06666672;stroke-opacity:1" />
    <path
       d="m 53.614949,25.925423 c 1.316555,3.7e-5 2.440171,0.455656 3.366667,1.333333 0.942709,0.87775 1.399979,1.9314 1.4,3.166667 -2.1e-5,1.235334 -0.457291,2.288983 -1.4,3.166667 -0.926496,0.861489 -2.050112,1.300027 -3.366667,1.3 -1.316586,2.7e-5 -2.45728,-0.438511 -3.4,-1.3 -0.942741,-0.877684 -1.400015,-1.931333 -1.400004,-3.166667 -1.1e-5,-1.235267 0.457263,-2.288917 1.400004,-3.166667 0.94272,-0.877677 2.083414,-1.333296 3.4,-1.333333 z m -4.466666,13 c 1.934208,2.4e-5 3.4264,0.490626 4.466666,1.433333 1.056491,0.926497 1.566646,2.137991 1.566667,3.633334 -2.1e-5,0.308845 -0.01877,0.853161 -0.09995,1.633333 -0.06507,0.780207 -0.20497,1.48319 -0.4,2.133333 l -2,7.1 c -0.162549,0.568894 -0.303317,1.201911 -0.433333,1.933334 -0.130048,0.731433 -0.200011,1.292829 -0.2,1.666666 -1.1e-5,0.942741 0.21072,1.592006 0.633333,1.933334 0.422592,0.341338 1.159734,0.5 2.2,0.5 0.487606,0 1.049003,-0.07077 1.666667,-0.233334 0.617632,-0.178799 1.056992,-0.336624 1.333333,-0.466666 l -0.533333,2.2 c -1.609163,0.633899 -2.907701,1.108253 -3.866667,1.433333 -0.958997,0.341339 -2.065536,0.5 -3.333333,0.5 -1.95049,0 -3.477658,-0.457269 -4.566671,-1.4 -1.072768,-0.958979 -1.6,-2.170476 -1.6,-3.633333 0,-0.568884 0.05205,-1.148181 0.133333,-1.733334 0.08128,-0.601381 0.187872,-1.28564 0.366667,-2.033333 l 2,-7.1 c 0.178784,-0.682651 0.319552,-1.33192 0.433333,-1.933333 0.130027,-0.617633 0.19999,-1.162776 0.2,-1.666667 -1e-5,-0.910203 -0.192832,-1.542392 -0.566666,-1.9 -0.373846,-0.357567 -1.076832,-0.566645 -2.133334,-0.566667 -0.520128,2.2e-5 -1.04737,0.10416 -1.6,0.266667 -0.536384,0.162561 -1.009909,0.320402 -1.4,0.466667 l 0.533334,-2.2 c 1.316565,-0.536359 2.597205,-0.992803 3.8,-1.366667 1.202784,-0.390072 2.327232,-0.599976 3.400004,-0.6 z"
       inkscape:connector-curvature="0"
       id="path3620-6"
       style="display:inline;fill:url(#linearGradient3114-0);fill-opacity:1;stroke:none;stroke-width:1.06666672"
       sodipodi:nodetypes="ccccccccccccccccccsccccscsccccccccccccc" />
  </g>
</svg>
