<?xml version="1.0" encoding="UTF-8" standalone="no"?>
<!-- Created with Inkscape (http://www.inkscape.org/) -->

<svg
   xmlns:dc="http://purl.org/dc/elements/1.1/"
   xmlns:cc="http://creativecommons.org/ns#"
   xmlns:rdf="http://www.w3.org/1999/02/22-rdf-syntax-ns#"
   xmlns:svg="http://www.w3.org/2000/svg"
   xmlns="http://www.w3.org/2000/svg"
   xmlns:xlink="http://www.w3.org/1999/xlink"
   xmlns:inkscape="http://www.inkscape.org/namespaces/inkscape"
   version="1.0"
   width="96"
   height="96"
   id="svg2408">
  <defs
     id="defs2410">
    <linearGradient
       id="linearGradient4384">
      <stop
         id="stop4386"
         style="stop-color:#ffffff;stop-opacity:1"
         offset="0" />
      <stop
         id="stop4388"
         style="stop-color:#ffffff;stop-opacity:0"
         offset="1" />
    </linearGradient>
    <linearGradient
       id="linearGradient4367">
      <stop
         id="stop4369"
         style="stop-color:#ffffff;stop-opacity:0.71755725"
         offset="0" />
      <stop
         id="stop4371"
         style="stop-color:#ffffff;stop-opacity:1"
         offset="1" />
    </linearGradient>
    <linearGradient
       x1="45.447727"
       y1="92.539597"
       x2="45.447727"
       y2="7.0165396"
       id="ButtonShadow"
       gradientUnits="userSpaceOnUse"
       gradientTransform="scale(1.0058652,0.994169)">
      <stop
         id="stop3750"
         style="stop-color:#000000;stop-opacity:1"
         offset="0" />
      <stop
         id="stop3752"
         style="stop-color:#000000;stop-opacity:0.58823532"
         offset="1" />
    </linearGradient>
    <linearGradient
       id="linearGradient3737">
      <stop
         id="stop3739"
         style="stop-color:#ffffff;stop-opacity:1"
         offset="0" />
      <stop
         id="stop3741"
         style="stop-color:#ffffff;stop-opacity:0"
         offset="1" />
    </linearGradient>
    <filter
       color-interpolation-filters="sRGB"
       id="filter3174">
      <feGaussianBlur
         id="feGaussianBlur3176"
         stdDeviation="1.71" />
    </filter>
    <filter
       x="-0.192"
       y="-0.192"
       width="1.3839999"
       height="1.3839999"
       color-interpolation-filters="sRGB"
       id="filter3794">
      <feGaussianBlur
         id="feGaussianBlur3796"
         stdDeviation="5.28" />
    </filter>
    <linearGradient
       x1="48"
       y1="20.220806"
       x2="48"
       y2="138.66119"
       id="linearGradient3613"
       xlink:href="#linearGradient3737"
       gradientUnits="userSpaceOnUse" />
    <linearGradient
       x1="48"
       y1="90"
       x2="48"
       y2="5.9877172"
       id="linearGradient3617"
       xlink:href="#linearGradient2881"
       gradientUnits="userSpaceOnUse" />
    <linearGradient
       x1="45.447727"
       y1="92.539597"
       x2="45.447727"
       y2="7.0165396"
       id="ButtonShadow-0"
       gradientUnits="userSpaceOnUse"
       gradientTransform="matrix(1.0058652,0,0,0.994169,100,0)">
      <stop
         id="stop3750-8"
         style="stop-color:#000000;stop-opacity:1"
         offset="0" />
      <stop
         id="stop3752-5"
         style="stop-color:#000000;stop-opacity:0.58823532"
         offset="1" />
    </linearGradient>
    <linearGradient
       x1="32.251034"
       y1="6.1317081"
       x2="32.251034"
       y2="90.238609"
       id="linearGradient3780"
       xlink:href="#ButtonShadow-0"
       gradientUnits="userSpaceOnUse"
       gradientTransform="matrix(1.0238095,0,0,1.0119048,-1.1428571,-98.071429)" />
    <linearGradient
       x1="32.251034"
       y1="6.1317081"
       x2="32.251034"
       y2="90.238609"
       id="linearGradient3772"
       xlink:href="#ButtonShadow-0"
       gradientUnits="userSpaceOnUse"
       gradientTransform="matrix(1.0238095,0,0,1.0119048,-1.1428571,-98.071429)" />
    <linearGradient
       x1="32.251034"
       y1="6.1317081"
       x2="32.251034"
       y2="90.238609"
       id="linearGradient3725"
       xlink:href="#ButtonShadow-0"
       gradientUnits="userSpaceOnUse"
       gradientTransform="matrix(1.0238095,0,0,1.0119048,-1.1428571,-98.071429)" />
    <linearGradient
       x1="32.251034"
       y1="6.1317081"
       x2="32.251034"
       y2="90.238609"
       id="linearGradient3721"
       xlink:href="#ButtonShadow-0"
       gradientUnits="userSpaceOnUse"
       gradientTransform="translate(0,-97)" />
    <linearGradient
       x1="32.251034"
       y1="6.1317081"
       x2="32.251034"
       y2="90.238609"
       id="linearGradient3026"
       xlink:href="#ButtonShadow-0"
       gradientUnits="userSpaceOnUse"
       gradientTransform="matrix(1.0238095,0,0,1.0119048,-1.1428571,-98.071429)" />
    <clipPath
       id="clipPath4355">
      <rect
         width="84"
         height="80"
         rx="6"
         ry="6"
         x="6"
         y="6"
         id="rect4357"
         style="fill:#ffffff;fill-opacity:1;fill-rule:nonzero;stroke:none" />
    </clipPath>
    <radialGradient
       cx="48"
       cy="87.792389"
       r="42"
       fx="48"
       fy="87.792389"
       id="radialGradient4375"
       xlink:href="#linearGradient4367"
       gradientUnits="userSpaceOnUse"
       gradientTransform="matrix(1,-6.7114942e-8,8.4282233e-8,1.2557894,109.99999,-24.505592)" />
    <linearGradient
       x1="48"
       y1="88"
       x2="48"
       y2="-40"
       id="linearGradient4390"
       xlink:href="#linearGradient4384"
       gradientUnits="userSpaceOnUse"
       gradientTransform="matrix(1,0,0,-1,0,92)" />
    <linearGradient
       x1="48"
       y1="82"
       x2="112.12357"
       y2="82.454597"
       id="linearGradient4429"
       xlink:href="#linearGradient4384"
       gradientUnits="userSpaceOnUse"
       spreadMethod="reflect" />
    <linearGradient
       id="linearGradient3843">
      <stop
         id="stop3845"
         style="stop-color:#523823;stop-opacity:1"
         offset="0" />
      <stop
         id="stop3847"
         style="stop-color:#79563a;stop-opacity:1"
         offset="0.11780351" />
      <stop
         id="stop3849"
         style="stop-color:#875c38;stop-opacity:1"
         offset="0.23809524" />
      <stop
         id="stop3851"
         style="stop-color:#a66e40;stop-opacity:1"
         offset="1" />
    </linearGradient>
    <linearGradient
       x1="8"
       y1="1033.3622"
       x2="50"
       y2="1033.3622"
       id="linearGradient3870"
       xlink:href="#linearGradient3843"
       gradientUnits="userSpaceOnUse"
       gradientTransform="translate(-2,-956.3622)"
       spreadMethod="reflect" />
    <linearGradient
       id="linearGradient2881">
      <stop
         id="stop2883"
         style="stop-color:#296cd4;stop-opacity:1"
         offset="0" />
      <stop
         id="stop2885"
         style="stop-color:#7da8e9;stop-opacity:1"
         offset="1" />
    </linearGradient>
    <linearGradient
       id="linearGradient3731">
      <stop
         id="stop3733"
         style="stop-color:#dcdcdc;stop-opacity:1"
         offset="0" />
      <stop
         id="stop3757"
         style="stop-color:#ebebeb;stop-opacity:1"
         offset="0.30654153" />
      <stop
         id="stop3737"
         style="stop-color:#ffffff;stop-opacity:1"
         offset="0.70706075" />
      <stop
         id="stop3759"
         style="stop-color:#fafafa;stop-opacity:1"
         offset="0.84501493" />
      <stop
         id="stop3735"
         style="stop-color:#f0f0f0;stop-opacity:1"
         offset="1" />
    </linearGradient>
    <linearGradient
       x1="48.082497"
       y1="75.561722"
       x2="46.654823"
       y2="16.972879"
       id="linearGradient3114"
       xlink:href="#linearGradient3731"
       gradientUnits="userSpaceOnUse" />
    <linearGradient
       x1="40"
       y1="16"
       x2="40"
       y2="104"
       id="linearGradient3869"
       xlink:href="#linearGradient3737"
       gradientUnits="userSpaceOnUse" />
  </defs>
  <metadata
     id="metadata2413">
    <rdf:RDF>
      <cc:Work
         rdf:about="">
        <dc:format>image/svg+xml</dc:format>
        <dc:type
           rdf:resource="http://purl.org/dc/dcmitype/StillImage" />
        <dc:title />
      </cc:Work>
    </rdf:RDF>
  </metadata>
  <g
     id="layer2"
     style="display:none">
    <rect
       width="86"
       height="85"
       rx="6"
       ry="6"
       x="5"
       y="7"
       id="rect3745"
       style="opacity:0.9;fill:url(#ButtonShadow);fill-opacity:1;fill-rule:nonzero;stroke:none;filter:url(#filter3174)" />
  </g>
  <g
     id="layer3"
     style="display:inline">
    <path
       d="m 12,-95.03125 c -5.5110903,0 -10.03125,4.52016 -10.03125,10.03125 l 0,71 c 0,5.5110902 4.5201598,10.03125 10.03125,10.03125 l 72,0 c 5.51109,0 10.03125,-4.5201597 10.03125,-10.03125 l 0,-71 c 0,-5.51109 -4.52016,-10.03125 -10.03125,-10.03125 l -72,0 z"
       transform="scale(1,-1)"
       id="path3786"
       style="opacity:0.07999998;fill:url(#linearGradient3026);fill-opacity:1;fill-rule:nonzero;stroke:none;display:inline" />
    <path
       d="m 12,-94.03125 c -4.971633,0 -9.03125,4.059617 -9.03125,9.03125 l 0,71 c 0,4.9716329 4.0596171,9.03125 9.03125,9.03125 l 72,0 c 4.971633,0 9.03125,-4.059617 9.03125,-9.03125 l 0,-71 c 0,-4.971633 -4.059617,-9.03125 -9.03125,-9.03125 l -72,0 z"
       transform="scale(1,-1)"
       id="path3778"
       style="opacity:0.1;fill:url(#linearGradient3780);fill-opacity:1;fill-rule:nonzero;stroke:none;display:inline" />
    <path
       d="m 12,-93 c -4.4091333,0 -8,3.590867 -8,8 l 0,71 c 0,4.4091333 3.5908667,8 8,8 l 72,0 c 4.409133,0 8,-3.5908667 8,-8 l 0,-71 c 0,-4.409133 -3.590867,-8 -8,-8 l -72,0 z"
       transform="scale(1,-1)"
       id="path3770"
       style="opacity:0.2;fill:url(#linearGradient3772);fill-opacity:1;fill-rule:nonzero;stroke:none;display:inline" />
    <rect
       width="86"
       height="85"
       rx="7"
       ry="7"
       x="5"
       y="-92"
       transform="scale(1,-1)"
       id="rect3723"
       style="opacity:0.3;fill:url(#linearGradient3725);fill-opacity:1;fill-rule:nonzero;stroke:none;display:inline" />
    <rect
       width="84"
       height="84"
       rx="6"
       ry="6"
       x="6"
       y="-91"
       transform="scale(1,-1)"
       id="rect3716"
       style="opacity:0.45;fill:url(#linearGradient3721);fill-opacity:1;fill-rule:nonzero;stroke:none;display:inline" />
  </g>
  <g
     id="layer4">
    <rect
       width="84"
       height="26.000017"
       rx="6"
       ry="6"
       x="6"
       y="64"
       id="rect2841"
       style="color:#000000;fill:url(#linearGradient3870);fill-opacity:1;fill-rule:nonzero;stroke:none;stroke-width:1.5;marker:none;visibility:visible;display:inline;overflow:visible;enable-background:accumulate" />
    <path
       d="m 6,82 0,2 c 0,3.324 2.676,6 6,6 l 72,0 c 3.324,0 6,-2.676 6,-6 l 0,-2 c 0,3.324 -2.676,6 -6,6 L 12,88 C 8.676,88 6,85.324 6,82 z"
       inkscape:connector-curvature="0"
       id="rect4345"
       style="opacity:0.1;color:#000000;fill:#000000;fill-opacity:1;fill-rule:nonzero;stroke:none;stroke-width:1.5;marker:none;visibility:visible;display:inline;overflow:visible;enable-background:accumulate" />
    <path
       d="m 6,83 0,1 c 0,3.324 2.676,6 6,6 l 72,0 c 3.324,0 6,-2.676 6,-6 l 0,-1 c 0,3.324 -2.676,6 -6,6 L 12,89 C 8.676,89 6,86.324 6,83 z"
       inkscape:connector-curvature="0"
       id="rect4336"
       style="opacity:0.1;color:#000000;fill:#000000;fill-opacity:1;fill-rule:nonzero;stroke:none;stroke-width:1.5;marker:none;visibility:visible;display:inline;overflow:visible;enable-background:accumulate" />
    <path
       d="m 6,80 0,1 c 0,3.324 2.676,6 6,6 l 72,0 c 3.324,0 6,-2.676 6,-6 l 0,-1 c 0,3.324 -2.676,6 -6,6 L 12,86 C 8.676,86 6,83.324 6,80 z"
       inkscape:connector-curvature="0"
       id="path4412"
       style="opacity:0.2;fill:#000000;fill-opacity:1;fill-rule:nonzero;stroke:none" />
  </g>
  <g
     id="layer1">
    <rect
       width="84"
       height="80"
       rx="6"
       ry="6"
       x="6"
       y="6"
       id="rect2419"
       style="fill:url(#linearGradient3617);fill-opacity:1;fill-rule:nonzero;stroke:none" />
    <path
       d="M 120.78125,6.125 C 118.04223,6.6826484 116,9.0915 116,12 l 0,68 c 0,3.324 2.676,6 6,6 l 72,0 c 3.324,0 6,-2.676 6,-6 l 0,-68 c 0,-2.9085 -2.04223,-5.3173516 -4.78125,-5.875 2.20512,0.5362071 3.8125,2.4908437 3.8125,4.875 l 0,68 c 0,2.80489 -2.22636,5.03125 -5.03125,5.03125 l -72,0 c -2.80489,0 -5.03125,-2.22636 -5.03125,-5.03125 l 0,-68 c 0,-2.3841563 1.60738,-4.3387929 3.8125,-4.875 z"
       inkscape:connector-curvature="0"
       id="rect4359"
       style="opacity:0.2;fill:url(#radialGradient4375);fill-opacity:1;fill-rule:nonzero;stroke:none" />
    <path
       d="M 12,86 C 8.676,86 6,83.324 6,80 L 6,12 C 6,8.676 8.676,6 12,6 l 72,0 c 3.324,0 6,2.676 6,6 l 0,68 c 0,3.324 -2.676,6 -6,6 z m 0,-0.96875 72,0 c 2.80489,0 5.03125,-2.22636 5.03125,-5.03125 l 0,-68 C 89.03125,9.19511 86.80489,6.96875 84,6.96875 l -72,0 C 9.1951102,6.96875 6.96875,9.19511 6.96875,12 l 0,68 c 0,2.80489 2.2263602,5.03125 5.03125,5.03125 z"
       inkscape:connector-curvature="0"
       id="rect4377"
       style="opacity:0.3;fill:url(#linearGradient4390);fill-opacity:1;fill-rule:nonzero;stroke:none" />
    <path
       d="m 6,78 0,2 c 0,3.324 2.676,6 6,6 l 72,0 c 3.324,0 6,-2.676 6,-6 l 0,-2 c 0,3.324 -2.676,6 -6,6 L 12,84 C 8.676,84 6,81.324 6,78 z"
       inkscape:connector-curvature="0"
       id="rect4414"
       style="opacity:0.1;fill:url(#linearGradient4429);fill-opacity:1;fill-rule:nonzero;stroke:none" />
  </g>
  <g
     id="layer5"
     style="display:inline">
    <rect
       width="66"
       height="62"
       rx="12"
       ry="12"
       x="15"
       y="15"
       clip-path="url(#clipPath4355)"
       id="rect3171"
       style="opacity:0.1;fill:url(#linearGradient3613);fill-opacity:1;fill-rule:nonzero;stroke:#ffffff;stroke-width:0.5;stroke-linecap:round;stroke-linejoin:miter;stroke-miterlimit:4;stroke-opacity:1;stroke-dasharray:none;stroke-dashoffset:0;filter:url(#filter3794)" />
  </g>
  <g
     id="layer6">
    <path
       d="m 48,14.9375 c -13.064615,-0.07431 -26.85903,6.148891 -33.15625,18.1875 -4.75347,8.797495 -3.499391,20.075309 2.71875,27.8125 0.009,0.01174 0.02222,0.01953 0.03125,0.03125 2.465093,3.199555 5.566469,5.821742 8.96875,7.9375 -0.815449,3.349582 -3.738092,5.949791 -7.125,6.71875 a 0.99094804,0.99094804 0 0 0 -0.21875,0.09375 c -2.589333,1.330709 -1.647697,5.559426 1.21875,5.6875 l 0,0.03125 c 0.01075,4.34e-4 0.02044,-3.17e-4 0.03125,0 0.03664,0.0011 0.0565,0.03154 0.09375,0.03125 l 0,-0.03125 c 7.486542,0.880265 15.120726,-1.836148 20.53125,-7.03125 13.925997,2.45066 29.607349,-2.423795 38.0625,-14.25 l 0.03125,0 c 0.0047,-0.0065 -0.0047,-0.02472 0,-0.03125 6.46637,-8.79121 6.46637,-21.45879 0,-30.25 -0.0047,-0.0066 0.0047,-0.02462 0,-0.03125 l -0.03125,0 C 72.136376,19.912913 59.815709,14.903397 48,14.9375 z m -6.4375,17.125 c -0.153239,0.439615 -0.323463,0.919689 -0.4375,1.25 -0.177028,0.512764 -0.353961,0.709282 -0.3125,0.6875 0.02073,-0.01089 0.05427,0.02339 -0.0625,0 -0.116774,-0.02339 -0.367299,-0.12418 -0.71875,-0.34375 a 0.99094804,0.99094804 0 0 0 -0.03125,0 c -0.369099,-0.222657 -0.255613,-0.196205 -0.25,-0.25 0.0056,-0.0538 0.117975,-0.351263 0.4375,-0.65625 0.386227,-0.368654 0.863362,-0.477073 1.375,-0.6875 z m 12.15625,0.84375 c 0.437955,0.315422 0.882266,0.602664 1.21875,1 0.918916,1.085098 1.398625,2.398827 1.15625,3.84375 a 0.99094804,0.99094804 0 0 0 -0.03125,0.09375 c -0.104444,1.722289 -0.957126,3.049032 -2.25,4.1875 -0.255972,0.225401 -0.589127,0.388395 -0.875,0.59375 1.48378,-2.998098 1.719735,-6.513612 0.78125,-9.71875 z M 46.5625,59.25 a 0.99094804,0.99094804 0 0 0 0.40625,0 c 0.489794,-0.0762 0.545931,0.04613 0.65625,0.1875 0.110319,0.141372 0.232442,0.468236 0.1875,0.8125 -0.04494,0.344264 -0.243746,0.653042 -0.40625,0.78125 -0.162504,0.128208 -0.289985,0.177668 -0.75,0 a 0.99094804,0.99094804 0 0 0 -0.375,-0.0625 c -0.265426,0.0052 -0.278711,-0.03524 -0.375,-0.1875 -0.09629,-0.152258 -0.159961,-0.468735 -0.125,-0.78125 0.03496,-0.312515 0.163625,-0.577478 0.28125,-0.6875 0.117625,-0.110022 0.174756,-0.151121 0.5,-0.0625 z"
       id="path3887"
       style="opacity:0.05;fill:#000000;fill-opacity:1;stroke:none;display:inline" />
    <path
       d="m 48,15.9375 c -12.744728,-0.07249 -26.190582,6.02325 -32.275721,17.656417 -4.552968,8.426416 -3.370909,19.319722 2.604513,26.738634 2.548963,3.318434 5.796757,6.069597 9.389958,8.198699 -0.677328,4.078352 -4.129008,7.169445 -8.0625,8.0625 -1.752525,0.900657 -1.090698,3.89065 0.90625,3.875 7.381265,0.907485 15.010135,-1.842857 20.25,-7.09375 13.701247,2.578962 29.280006,-2.20042 37.556173,-13.810301 6.215165,-8.429733 6.215165,-20.699665 0,-29.129398 C 71.579776,20.801888 59.547796,15.90417 48,15.9375 z m -4.03125,14.5 C 41.523823,31.481889 42.829835,36.580328 39.5,34.5 37.182102,33.10174 40.8666,30.625196 42.465426,30.627162 42.95135,30.473006 43.467323,30.491301 43.96875,30.4375 z m 7.5,0.28125 c 3.216813,0.753773 6.179469,3.673945 5.590156,7.187137 -0.245715,4.051851 -4.129302,6.388204 -7.527656,7.719113 3.797554,-3.259052 4.850237,-9.11851 2.98009,-13.662938 -0.214267,-0.523559 -0.594672,-0.913574 -1.04259,-1.243312 z m -3.875,16.25 c -0.405786,0.52923 -0.507239,3.305016 -0.72129,1.591266 -0.203736,-0.852971 -0.344711,-1.297749 0.72129,-1.591266 z m -0.78125,11.3125 c 3.041562,-0.473206 2.376178,4.786664 -0.496017,3.677356 -2.312456,0.04499 -1.912939,-4.33374 0.496017,-3.677356 z"
       inkscape:connector-curvature="0"
       id="path3881"
       style="opacity:0.07999998;fill:#000000;fill-opacity:1;stroke:none;display:inline" />
    <path
       d="m 48,17 c -18.667649,0 -34,12.427664 -34,28 0,9.666664 6.004911,18.085217 14.9375,23.09375 -0.210391,1.19095 -0.622312,2.865462 -1.71875,4.5625 -1.253072,1.939472 -3.294196,3.795555 -6.78125,4.78125 a 1.0002661,1.0002661 0 0 0 0.1875,1.96875 C 30.321898,80.460113 36.868222,75.881503 40.46875,72.25 42.898723,72.704684 45.401917,73 48,73 66.667649,73 82,60.572336 82,45 82,29.427664 66.667649,17 48,17 z m -0.90625,12.0625 c 1.648666,3.4e-5 3.157623,0.205589 4.53125,0.59375 a 1.0002661,1.0002661 0 0 0 0.03125,0 c 1.370377,0.372421 2.503875,0.919389 3.46875,1.625 0.957364,0.685915 1.714349,1.513338 2.25,2.5 0.522927,0.963349 0.781227,2.05819 0.78125,3.34375 -2.3e-5,1.206909 -0.200059,2.250119 -0.5625,3.15625 a 1.0002661,1.0002661 0 0 0 0,0.03125 c -0.353261,0.918445 -0.858579,1.72158 -1.59375,2.5 -0.745845,0.789716 -1.679366,1.5544 -2.84375,2.25 l 0,-0.03125 C 51.990634,45.721423 50.597095,46.404882 49,47.0625 a 1.0002661,1.0002661 0 0 0 -0.59375,0.71875 l -0.8125,3.6875 -1.34375,0 -0.75,-4.53125 c 1.12078,-0.513397 2.196857,-1.044676 3,-1.71875 a 1.0002661,1.0002661 0 0 0 0,-0.03125 c 0.958643,-0.821685 1.761743,-1.705367 2.34375,-2.6875 l -0.03125,0 c 0.577606,-0.962679 1.00154,-1.976512 1.21875,-3.0625 0.205809,-1.029109 0.312482,-2.05624 0.3125,-3.09375 -1.8e-5,-0.847941 -0.08639,-1.647685 -0.25,-2.375 -0.161578,-0.735963 -0.41278,-1.409075 -0.8125,-2 -0.0083,-0.01318 -0.02276,-0.0182 -0.03125,-0.03125 -0.404161,-0.621326 -0.945874,-1.087942 -1.5625,-1.40625 -0.654841,-0.349194 -1.397263,-0.499961 -2.1875,-0.5 -0.884748,4e-5 -1.71928,0.222168 -2.40625,0.6875 -0.621224,0.420861 -1.150114,0.985421 -1.53125,1.6875 -0.369141,0.680011 -0.592673,1.428385 -0.75,2.25 a 1.0002661,1.0002661 0 0 0 -0.03125,0.03125 c -0.08056,0.473261 -0.0618,0.97449 -0.09375,1.46875 -0.602192,-0.03142 -1.234106,-0.06863 -1.75,-0.15625 -0.771011,-0.130902 -1.371717,-0.300838 -1.90625,-0.53125 -0.0097,-0.0046 -0.02164,0.0046 -0.03125,0 -0.498239,-0.239541 -0.830785,-0.496852 -1.0625,-0.78125 -0.211455,-0.271851 -0.312501,-0.555438 -0.3125,-0.90625 -2e-6,-0.626646 0.137787,-1.140115 0.46875,-1.6875 A 1.0002661,1.0002661 0 0 0 38.125,32.0625 c 0.313058,-0.52977 0.824428,-1.033784 1.53125,-1.46875 0.01472,-0.0091 0.01635,-0.02225 0.03125,-0.03125 0.731006,-0.427364 1.739933,-0.792728 2.96875,-1.0625 1.223228,-0.283401 2.688914,-0.437465 4.4375,-0.4375 z M 46.8125,57.21875 c 0.471583,6e-6 0.895665,0.05344 1.28125,0.15625 0.364165,0.09399 0.690419,0.264652 0.9375,0.46875 0.239204,0.197616 0.411196,0.44009 0.5625,0.8125 A 1.0002661,1.0002661 0 0 0 49.625,58.6875 c 0.134852,0.298625 0.218736,0.794526 0.21875,1.46875 -1.4e-5,0.656516 -0.08074,1.131882 -0.21875,1.4375 A 1.0002661,1.0002661 0 0 0 49.59375,61.625 c -0.153708,0.366509 -0.336589,0.625871 -0.5625,0.8125 -0.221148,0.18268 -0.535232,0.333685 -0.9375,0.4375 a 1.0002661,1.0002661 0 0 0 -0.03125,0 c -0.386026,0.115804 -0.797093,0.187499 -1.25,0.1875 -0.471553,-10e-7 -0.870818,-0.06835 -1.28125,-0.1875 a 1.0002661,1.0002661 0 0 0 -0.03125,0 c -0.386139,-0.09965 -0.687755,-0.234117 -0.90625,-0.40625 -0.009,-0.0077 -0.0223,-0.02313 -0.03125,-0.03125 -0.200426,-0.181968 -0.377694,-0.446311 -0.53125,-0.8125 -0.141055,-0.336347 -0.250007,-0.826744 -0.25,-1.46875 -7e-6,-0.660019 0.111766,-1.170374 0.25,-1.5 0.150945,-0.371568 0.320446,-0.622698 0.53125,-0.8125 0.0094,-0.0085 0.02172,-0.02302 0.03125,-0.03125 0.24229,-0.192556 0.55663,-0.347272 0.90625,-0.4375 0.409596,-0.105698 0.822803,-0.156244 1.3125,-0.15625 z"
       id="path3877"
       style="opacity:0.12000002;fill:#000000;fill-opacity:1;stroke:none;display:inline" />
    <path
       d="m 48,18 c -18.225397,0 -33,12.088312 -33,27 0,9.498438 5.99976,17.843462 15.0625,22.65625 -0.344625,2.508754 -1.914014,8.649817 -9.34375,10.75 9.622915,1.045823 16.013601,-3.646306 19.40625,-7.1875 C 42.648507,71.724251 45.286067,72 48,72 66.225397,72 81,59.911688 81,45 81,30.088312 66.225397,18 48,18 z m -0.90625,10.0625 c 1.729139,3.6e-5 3.339502,0.208758 4.8125,0.625 1.472964,0.400301 2.739765,0.996761 3.8125,1.78125 1.072693,0.768544 1.922822,1.723034 2.53125,2.84375 0.608382,1.120776 0.906225,2.387578 0.90625,3.8125 -2.5e-5,1.3129 -0.208746,2.490581 -0.625,3.53125 -0.40029,1.040716 -0.995978,1.979194 -1.8125,2.84375 -0.816565,0.864596 -1.829698,1.669777 -3.0625,2.40625 C 52.439421,46.626747 51.008073,47.327568 49.375,48 l -1,4.46875 -3,0 -0.96875,-6.0625 c 1.408928,-0.560356 2.54089,-1.21623 3.4375,-1.96875 0.896584,-0.768492 1.612644,-1.572903 2.125,-2.4375 0.528337,-0.880564 0.901606,-1.789336 1.09375,-2.75 0.192111,-0.960615 0.281233,-1.929572 0.28125,-2.90625 C 51.343733,35.559255 51.26907,34.827956 51.125,34.1875 50.980888,33.531093 50.757698,32.96434 50.4375,32.5 50.133282,32.019711 49.715066,31.662453 49.21875,31.40625 48.738416,31.150112 48.172435,31.031283 47.5,31.03125 c -0.736503,3.3e-5 -1.34743,0.163808 -1.84375,0.5 -0.496341,0.336256 -0.914558,0.783407 -1.21875,1.34375 -0.304213,0.560404 -0.512163,1.216278 -0.65625,1.96875 -0.128094,0.752529 -0.187509,1.542472 -0.1875,2.375 -1.00868,2.6e-5 -1.963941,-0.07463 -2.8125,-0.21875 -0.848571,-0.14407 -1.563088,-0.352791 -2.1875,-0.625 -0.608409,-0.288164 -1.085268,-0.630184 -1.4375,-1.0625 -0.336226,-0.432259 -0.531252,-0.954836 -0.53125,-1.53125 -2e-6,-0.800503 0.208721,-1.530259 0.625,-2.21875 0.416275,-0.704437 1.057681,-1.331375 1.90625,-1.84375 0.864571,-0.512307 1.968368,-0.899273 3.28125,-1.1875 1.312866,-0.304168 2.847033,-0.468714 4.65625,-0.46875 z M 46.8125,56.21875 c 0.54435,7e-6 1.050917,0.05942 1.53125,0.1875 0.496317,0.128093 0.94424,0.352054 1.3125,0.65625 0.36823,0.304209 0.666846,0.706414 0.875,1.21875 0.224134,0.496336 0.312484,1.122502 0.3125,1.875 -1.6e-5,0.736494 -0.08837,1.347421 -0.3125,1.84375 -0.208154,0.496332 -0.50677,0.914548 -0.875,1.21875 -0.36826,0.304203 -0.816183,0.496914 -1.3125,0.625 -0.480333,0.144095 -0.9869,0.218749 -1.53125,0.21875 -0.560385,-10e-7 -1.06618,-0.07466 -1.5625,-0.21875 -0.496341,-0.128086 -0.944264,-0.320797 -1.3125,-0.625 C 43.585257,62.914548 43.30188,62.496332 43.09375,62 c -0.208147,-0.496329 -0.312508,-1.107256 -0.3125,-1.84375 -8e-6,-0.752498 0.104353,-1.378664 0.3125,-1.875 0.20813,-0.512336 0.491507,-0.914541 0.84375,-1.21875 0.368236,-0.304196 0.816159,-0.528157 1.3125,-0.65625 0.49632,-0.128078 1.002115,-0.187493 1.5625,-0.1875 z"
       inkscape:connector-curvature="0"
       id="path3871"
       style="opacity:0.3;fill:#000000;fill-opacity:1;stroke:none;display:inline" />
    <path
       d="m 48,17 c -18.225397,0 -33,12.088312 -33,27 0,9.498438 5.99976,17.843462 15.0625,22.65625 -0.344625,2.508754 -1.914014,8.649817 -9.34375,10.75 9.622915,1.045823 16.013601,-3.646306 19.40625,-7.1875 C 42.648507,70.724251 45.286067,71 48,71 66.225397,71 81,58.911688 81,44 81,29.088312 66.225397,17 48,17 z m -0.90625,10.0625 c 1.729139,3.6e-5 3.339502,0.208758 4.8125,0.625 1.472964,0.400301 2.739765,0.996761 3.8125,1.78125 1.072693,0.768544 1.922822,1.723034 2.53125,2.84375 0.608382,1.120776 0.906225,2.387578 0.90625,3.8125 -2.5e-5,1.3129 -0.208746,2.490581 -0.625,3.53125 -0.40029,1.040716 -0.995978,1.979194 -1.8125,2.84375 -0.816565,0.864596 -1.829698,1.669777 -3.0625,2.40625 C 52.439421,45.626747 51.008073,46.327568 49.375,47 l -1,4.46875 -3,0 -0.96875,-6.0625 c 1.408928,-0.560356 2.54089,-1.21623 3.4375,-1.96875 0.896584,-0.768492 1.612644,-1.572903 2.125,-2.4375 0.528337,-0.880564 0.901606,-1.789336 1.09375,-2.75 0.192111,-0.960615 0.281233,-1.929572 0.28125,-2.90625 C 51.343733,34.559255 51.26907,33.827956 51.125,33.1875 50.980888,32.531093 50.757698,31.96434 50.4375,31.5 50.133282,31.019711 49.715066,30.662453 49.21875,30.40625 48.738416,30.150112 48.172435,30.031283 47.5,30.03125 c -0.736503,3.3e-5 -1.34743,0.163808 -1.84375,0.5 -0.496341,0.336256 -0.914558,0.783407 -1.21875,1.34375 -0.304213,0.560404 -0.512163,1.216278 -0.65625,1.96875 -0.128094,0.752529 -0.187509,1.542472 -0.1875,2.375 -1.00868,2.6e-5 -1.963941,-0.07463 -2.8125,-0.21875 -0.848571,-0.14407 -1.563088,-0.352791 -2.1875,-0.625 -0.608409,-0.288164 -1.085268,-0.630184 -1.4375,-1.0625 -0.336226,-0.432259 -0.531252,-0.954836 -0.53125,-1.53125 -2e-6,-0.800503 0.208721,-1.530259 0.625,-2.21875 0.416275,-0.704437 1.057681,-1.331375 1.90625,-1.84375 0.864571,-0.512307 1.968368,-0.899273 3.28125,-1.1875 1.312866,-0.304168 2.847033,-0.468714 4.65625,-0.46875 z M 46.8125,55.21875 c 0.54435,7e-6 1.050917,0.05942 1.53125,0.1875 0.496317,0.128093 0.94424,0.352054 1.3125,0.65625 0.36823,0.304209 0.666846,0.706414 0.875,1.21875 0.224134,0.496336 0.312484,1.122502 0.3125,1.875 -1.6e-5,0.736494 -0.08837,1.347421 -0.3125,1.84375 -0.208154,0.496332 -0.50677,0.914548 -0.875,1.21875 -0.36826,0.304203 -0.816183,0.496914 -1.3125,0.625 -0.480333,0.144095 -0.9869,0.218749 -1.53125,0.21875 -0.560385,-10e-7 -1.06618,-0.07466 -1.5625,-0.21875 -0.496341,-0.128086 -0.944264,-0.320797 -1.3125,-0.625 C 43.585257,61.914548 43.30188,61.496332 43.09375,61 c -0.208147,-0.496329 -0.312508,-1.107256 -0.3125,-1.84375 -8e-6,-0.752498 0.104353,-1.378664 0.3125,-1.875 0.20813,-0.512336 0.491507,-0.914541 0.84375,-1.21875 0.368236,-0.304196 0.816159,-0.528157 1.3125,-0.65625 0.49632,-0.128078 1.002115,-0.187493 1.5625,-0.1875 z"
       inkscape:connector-curvature="0"
       id="path3620"
       style="fill:url(#linearGradient3114);fill-opacity:1;stroke:none;display:inline" />
    <path
       d="m 48,17 c -18.225397,0 -33,12.088312 -33,27 0,0.208408 0.0255,0.417728 0.03125,0.625 C 15.915093,30.359014 30.344147,19 48,19 65.811103,19 80.318034,30.557401 80.96875,45 80.983886,44.664059 81,44.338968 81,44 81,29.088312 66.225397,17 48,17 z m -0.5,13.03125 c -0.736503,3.3e-5 -1.34743,0.163808 -1.84375,0.5 -0.496341,0.336256 -0.914558,0.783407 -1.21875,1.34375 -0.304213,0.560404 -0.512163,1.216278 -0.65625,1.96875 -0.128094,0.752529 -0.187509,1.542472 -0.1875,2.375 -1.00868,2.6e-5 -1.963941,-0.07463 -2.8125,-0.21875 -0.848571,-0.14407 -1.563088,-0.352791 -2.1875,-0.625 -0.608409,-0.288164 -1.085268,-0.630184 -1.4375,-1.0625 -0.154104,-0.198119 -0.285403,-0.423698 -0.375,-0.65625 -0.09878,0.359531 -0.156251,0.735343 -0.15625,1.125 -2e-6,0.576414 0.195024,1.098991 0.53125,1.53125 0.352232,0.432316 0.829091,0.774336 1.4375,1.0625 0.624412,0.272209 1.338929,0.48093 2.1875,0.625 0.848559,0.14412 1.80382,0.218776 2.8125,0.21875 -9e-6,-0.832528 0.05941,-1.622471 0.1875,-2.375 0.144087,-0.752472 0.352037,-1.408346 0.65625,-1.96875 0.304192,-0.560343 0.722409,-1.007494 1.21875,-1.34375 0.49632,-0.336192 1.107247,-0.499967 1.84375,-0.5 0.672435,3.3e-5 1.238416,0.118862 1.71875,0.375 0.496316,0.256203 0.914532,0.613461 1.21875,1.09375 0.320198,0.46434 0.543388,1.031093 0.6875,1.6875 0.08799,0.391171 0.121233,0.830881 0.15625,1.28125 0.02696,-0.371951 0.06249,-0.750747 0.0625,-1.125 C 51.343733,34.559255 51.26907,33.827956 51.125,33.1875 50.980888,32.531093 50.757698,31.96434 50.4375,31.5 50.133282,31.019711 49.715066,30.662453 49.21875,30.40625 48.738416,30.150112 48.172435,30.031283 47.5,30.03125 z M 59.09375,37.25 c -0.08649,0.871426 -0.268402,1.670982 -0.5625,2.40625 -0.40029,1.040716 -0.995978,1.979194 -1.8125,2.84375 -0.816565,0.864596 -1.829698,1.669777 -3.0625,2.40625 C 52.439421,45.626747 51.008073,46.327568 49.375,47 l -1,4.46875 -3,0 -0.65625,-4.1875 c -0.105287,0.04431 -0.203943,0.08183 -0.3125,0.125 l 0.96875,6.0625 3,0 1,-4.46875 c 1.633073,-0.672432 3.064421,-1.373253 4.28125,-2.09375 1.232802,-0.736473 2.245935,-1.541654 3.0625,-2.40625 0.816522,-0.864556 1.41221,-1.803034 1.8125,-2.84375 0.416254,-1.040669 0.624975,-2.21835 0.625,-3.53125 -5e-6,-0.302454 -0.03554,-0.586679 -0.0625,-0.875 z M 42.875,60.15625 c -0.04902,0.305116 -0.09375,0.635059 -0.09375,1 -8e-6,0.736494 0.104353,1.347421 0.3125,1.84375 0.20813,0.496332 0.491507,0.914548 0.84375,1.21875 0.368236,0.304203 0.816159,0.496914 1.3125,0.625 0.49632,0.14409 1.002115,0.218749 1.5625,0.21875 0.54435,-10e-7 1.050917,-0.07466 1.53125,-0.21875 0.496317,-0.128086 0.94424,-0.320797 1.3125,-0.625 0.36823,-0.304202 0.666846,-0.722418 0.875,-1.21875 0.22413,-0.496329 0.312484,-1.107256 0.3125,-1.84375 -8e-6,-0.364889 -0.01554,-0.694919 -0.0625,-1 -0.05011,0.306835 -0.137935,0.595585 -0.25,0.84375 -0.208154,0.496332 -0.50677,0.914548 -0.875,1.21875 -0.36826,0.304203 -0.816183,0.496914 -1.3125,0.625 -0.480333,0.144095 -0.9869,0.218749 -1.53125,0.21875 -0.560385,-10e-7 -1.06618,-0.07466 -1.5625,-0.21875 -0.496341,-0.128086 -0.944264,-0.320797 -1.3125,-0.625 C 43.585257,61.914548 43.30188,61.496332 43.09375,61 42.989677,60.751835 42.927108,60.463085 42.875,60.15625 z M 29.6875,68.4375 c -0.788875,2.925833 -2.942108,7.265183 -8.96875,8.96875 1.438598,0.156348 2.798846,0.170865 4.09375,0.09375 3.95088,-2.735394 4.981412,-6.888521 5.25,-8.84375 -0.129197,-0.06861 -0.247056,-0.148711 -0.375,-0.21875 z"
       inkscape:connector-curvature="0"
       id="path3079"
       style="opacity:0.4;fill:#ffffff;fill-opacity:1;stroke:none;display:inline" />
    <path
       d="m 48,17 c -18.225397,0 -33,12.088312 -33,27 0,9.498438 5.99976,17.843462 15.0625,22.65625 -0.344625,2.508754 -1.914014,8.649817 -9.34375,10.75 9.622915,1.045823 16.013601,-3.646306 19.40625,-7.1875 C 42.648507,70.724251 45.286067,71 48,71 66.225397,71 81,58.911688 81,44 81,29.088312 66.225397,17 48,17 z m 0,1.0625 c 17.759883,0 31.9375,11.721209 31.9375,25.9375 0,14.216291 -14.177617,25.9375 -31.9375,25.9375 -2.642622,0 -5.198971,-0.257766 -7.65625,-0.75 A 1.0528791,1.0528791 0 0 0 39.375,69.5 c -2.648504,2.764467 -7.261822,6.087813 -13.8125,6.75 1.458877,-1.042054 2.575716,-2.262889 3.375,-3.5 1.481055,-2.292336 1.970377,-4.584406 2.15625,-5.9375 A 1.0528791,1.0528791 0 0 0 30.5625,65.71875 C 21.77499,61.052124 16.0625,53.05511 16.0625,44 16.0625,29.783709 30.240117,18.0625 48,18.0625 z M 47.09375,26 c -1.86123,3.7e-5 -3.474065,0.177985 -4.875,0.5 -0.0089,0.002 -0.02238,-0.0021 -0.03125,0 -1.371561,0.303359 -2.567561,0.722943 -3.5625,1.3125 -0.972915,0.587457 -1.763191,1.342071 -2.28125,2.21875 -0.506083,0.837019 -0.781252,1.766495 -0.78125,2.75 -3e-6,0.813882 0.28244,1.586396 0.75,2.1875 a 1.0528791,1.0528791 0 0 0 0.03125,0 c 0.474385,0.582242 1.105175,1.008736 1.8125,1.34375 a 1.0528791,1.0528791 0 0 0 0.03125,0.03125 c 0.713391,0.310999 1.488399,0.531668 2.40625,0.6875 0.917977,0.15591 1.939357,0.250027 3,0.25 a 1.0528791,1.0528791 0 0 0 1.0625,-1.0625 c -8e-6,-0.782432 0.03957,-1.502029 0.15625,-2.1875 0.130151,-0.679692 0.32663,-1.221744 0.5625,-1.65625 0.223201,-0.411151 0.510111,-0.721549 0.875,-0.96875 0.295642,-0.200259 0.66954,-0.312474 1.25,-0.3125 0.548437,2.7e-5 0.922102,0.09181 1.21875,0.25 a 1.0528791,1.0528791 0 0 0 0.03125,0 c 0.35605,0.183796 0.615386,0.407554 0.8125,0.71875 a 1.0528791,1.0528791 0 0 0 0,0.03125 c 0.222716,0.322975 0.408741,0.754492 0.53125,1.3125 0.123503,0.549029 0.187484,1.219788 0.1875,1.9375 -1.6e-5,0.912646 -0.07231,1.798982 -0.25,2.6875 -0.165759,0.828748 -0.492273,1.64337 -0.96875,2.4375 -0.439041,0.740878 -1.074989,1.443749 -1.90625,2.15625 -0.793123,0.665664 -1.798271,1.284836 -3.125,1.8125 a 1.0528791,1.0528791 0 0 0 -0.65625,1.125 l 0.96875,6.0625 a 1.0528791,1.0528791 0 0 0 1.03125,0.90625 l 3,0 a 1.0528791,1.0528791 0 0 0 1.03125,-0.84375 l 0.875,-3.96875 c 1.440894,-0.616247 2.780317,-1.239573 3.90625,-1.90625 1.304818,-0.779495 2.390245,-1.650335 3.28125,-2.59375 0.891853,-0.944318 1.550197,-2.002561 2,-3.15625 l 0.03125,0 c 0.0032,-0.0081 -0.0031,-0.0231 0,-0.03125 0.465524,-1.175232 0.718723,-2.492725 0.71875,-3.90625 -2.8e-5,-1.571614 -0.332919,-3.026017 -1.03125,-4.3125 -0.685033,-1.261821 -1.649662,-2.331981 -2.84375,-3.1875 -1.186268,-0.867515 -2.575303,-1.539103 -4.15625,-1.96875 l 0,0.03125 C 50.609904,26.2417 48.907595,26.000038 47.09375,26 z m 0,1.0625 c 1.729139,3.6e-5 3.339502,0.208758 4.8125,0.625 1.472964,0.400301 2.739765,0.996761 3.8125,1.78125 1.072693,0.768544 1.922822,1.723034 2.53125,2.84375 0.608382,1.120776 0.906225,2.387578 0.90625,3.8125 -2.5e-5,1.3129 -0.208746,2.490581 -0.625,3.53125 -0.40029,1.040716 -0.995978,1.979194 -1.8125,2.84375 -0.816565,0.864596 -1.829698,1.669777 -3.0625,2.40625 C 52.439421,45.626747 51.008073,46.327568 49.375,47 l -1,4.46875 -3,0 -0.96875,-6.0625 c 1.408928,-0.560356 2.54089,-1.21623 3.4375,-1.96875 0.896584,-0.768492 1.612644,-1.572903 2.125,-2.4375 0.528337,-0.880564 0.901606,-1.789336 1.09375,-2.75 0.192111,-0.960615 0.281233,-1.929572 0.28125,-2.90625 C 51.343733,34.559255 51.26907,33.827956 51.125,33.1875 50.980888,32.531093 50.757698,31.96434 50.4375,31.5 50.133282,31.019711 49.715066,30.662453 49.21875,30.40625 48.738416,30.150112 48.172435,30.031283 47.5,30.03125 c -0.736503,3.3e-5 -1.34743,0.163808 -1.84375,0.5 -0.496341,0.336256 -0.914558,0.783407 -1.21875,1.34375 -0.304213,0.560404 -0.512163,1.216278 -0.65625,1.96875 -0.128094,0.752529 -0.187509,1.542472 -0.1875,2.375 -1.00868,2.6e-5 -1.963941,-0.07463 -2.8125,-0.21875 -0.848571,-0.14407 -1.563088,-0.352791 -2.1875,-0.625 -0.608409,-0.288164 -1.085268,-0.630184 -1.4375,-1.0625 -0.336226,-0.432259 -0.531252,-0.954836 -0.53125,-1.53125 -2e-6,-0.800503 0.208721,-1.530259 0.625,-2.21875 0.416275,-0.704437 1.057681,-1.331375 1.90625,-1.84375 0.864571,-0.512307 1.968368,-0.899273 3.28125,-1.1875 1.312866,-0.304168 2.847033,-0.468714 4.65625,-0.46875 z M 46.8125,54.15625 c -0.634791,8e-6 -1.224894,0.06712 -1.8125,0.21875 -0.635446,0.163992 -1.222942,0.465418 -1.71875,0.875 A 1.0528791,1.0528791 0 0 0 43.25,55.28125 c -0.488258,0.421676 -0.86377,0.950702 -1.125,1.59375 -0.281737,0.671815 -0.406259,1.431409 -0.40625,2.28125 -9e-6,0.835952 0.127482,1.585274 0.40625,2.25 0.258358,0.616113 0.622903,1.160132 1.125,1.59375 a 1.0528791,1.0528791 0 0 0 0.03125,0.03125 c 0.511679,0.422702 1.104941,0.658191 1.6875,0.8125 0.0065,0.0017 0.02669,-0.007 0.03125,0 0.577944,0.1649 1.169441,0.281249 1.8125,0.28125 0.619381,-10e-7 1.218683,-0.11856 1.78125,-0.28125 l 0,0.03125 c 0.02173,-0.0056 0.04076,-0.02539 0.0625,-0.03125 0.573912,-0.154708 1.15223,-0.396152 1.65625,-0.8125 0.506795,-0.418673 0.891181,-0.977531 1.15625,-1.59375 l 0.03125,0 c 0.0034,-0.0079 -0.0033,-0.02331 0,-0.03125 0.30476,-0.689445 0.406232,-1.440217 0.40625,-2.25 -1.8e-5,-0.823944 -0.09825,-1.584369 -0.40625,-2.28125 -0.0058,-0.01431 -0.0253,-0.01703 -0.03125,-0.03125 C 51.200656,56.20277 50.805606,55.657374 50.3125,55.25 49.823846,54.846354 49.249904,54.540222 48.625,54.375 c -0.0099,-0.0026 -0.02138,0.0026 -0.03125,0 -0.570922,-0.149166 -1.170857,-0.218742 -1.78125,-0.21875 z m 0,1.0625 c 0.54435,7e-6 1.050917,0.05942 1.53125,0.1875 0.496317,0.128093 0.94424,0.352054 1.3125,0.65625 0.36823,0.304209 0.666846,0.706414 0.875,1.21875 0.224134,0.496336 0.312484,1.122502 0.3125,1.875 -1.6e-5,0.736494 -0.08837,1.347421 -0.3125,1.84375 -0.208154,0.496332 -0.50677,0.914548 -0.875,1.21875 -0.36826,0.304203 -0.816183,0.496914 -1.3125,0.625 -0.480333,0.144095 -0.9869,0.218749 -1.53125,0.21875 -0.560385,-10e-7 -1.06618,-0.07466 -1.5625,-0.21875 -0.496341,-0.128086 -0.944264,-0.320797 -1.3125,-0.625 C 43.585257,61.914548 43.30188,61.496332 43.09375,61 c -0.208147,-0.496329 -0.312508,-1.107256 -0.3125,-1.84375 -8e-6,-0.752498 0.104353,-1.378664 0.3125,-1.875 0.20813,-0.512336 0.491507,-0.914541 0.84375,-1.21875 0.368236,-0.304196 0.816159,-0.528157 1.3125,-0.65625 0.49632,-0.128078 1.002115,-0.187493 1.5625,-0.1875 z"
       inkscape:connector-curvature="0"
       id="path3856"
       style="fill:url(#linearGradient3869);fill-opacity:1;stroke:none;display:inline" />
  </g>
</svg>
