<?xml version="1.0" encoding="UTF-8" standalone="no"?>
<!-- Created with Inkscape (http://www.inkscape.org/) -->

<svg
   xmlns:dc="http://purl.org/dc/elements/1.1/"
   xmlns:cc="http://creativecommons.org/ns#"
   xmlns:rdf="http://www.w3.org/1999/02/22-rdf-syntax-ns#"
   xmlns:svg="http://www.w3.org/2000/svg"
   xmlns="http://www.w3.org/2000/svg"
   xmlns:xlink="http://www.w3.org/1999/xlink"
   xmlns:inkscape="http://www.inkscape.org/namespaces/inkscape"
   version="1.0"
   width="96"
   height="96"
   id="svg2408">
  <defs
     id="defs2410">
    <linearGradient
       id="linearGradient4384">
      <stop
         id="stop4386"
         style="stop-color:#ffffff;stop-opacity:1"
         offset="0" />
      <stop
         id="stop4388"
         style="stop-color:#ffffff;stop-opacity:0"
         offset="1" />
    </linearGradient>
    <linearGradient
       id="linearGradient4367">
      <stop
         id="stop4369"
         style="stop-color:#ffffff;stop-opacity:0.71755725"
         offset="0" />
      <stop
         id="stop4371"
         style="stop-color:#ffffff;stop-opacity:1"
         offset="1" />
    </linearGradient>
    <linearGradient
       x1="45.447727"
       y1="92.539597"
       x2="45.447727"
       y2="7.0165396"
       id="ButtonShadow"
       gradientUnits="userSpaceOnUse"
       gradientTransform="scale(1.0058652,0.994169)">
      <stop
         id="stop3750"
         style="stop-color:#000000;stop-opacity:1"
         offset="0" />
      <stop
         id="stop3752"
         style="stop-color:#000000;stop-opacity:0.58823532"
         offset="1" />
    </linearGradient>
    <linearGradient
       id="linearGradient3737">
      <stop
         id="stop3739"
         style="stop-color:#ffffff;stop-opacity:1"
         offset="0" />
      <stop
         id="stop3741"
         style="stop-color:#ffffff;stop-opacity:0"
         offset="1" />
    </linearGradient>
    <filter
       color-interpolation-filters="sRGB"
       id="filter3174">
      <feGaussianBlur
         id="feGaussianBlur3176"
         stdDeviation="1.71" />
    </filter>
    <filter
       x="-0.192"
       y="-0.192"
       width="1.3839999"
       height="1.3839999"
       color-interpolation-filters="sRGB"
       id="filter3794">
      <feGaussianBlur
         id="feGaussianBlur3796"
         stdDeviation="5.28" />
    </filter>
    <linearGradient
       x1="48"
       y1="20.220806"
       x2="48"
       y2="138.66119"
       id="linearGradient3613"
       xlink:href="#linearGradient3737"
       gradientUnits="userSpaceOnUse" />
    <linearGradient
       x1="48"
       y1="90"
       x2="48"
       y2="5.9877172"
       id="linearGradient3617"
       xlink:href="#linearGradient2881"
       gradientUnits="userSpaceOnUse" />
    <linearGradient
       x1="45.447727"
       y1="92.539597"
       x2="45.447727"
       y2="7.0165396"
       id="ButtonShadow-0"
       gradientUnits="userSpaceOnUse"
       gradientTransform="matrix(1.0058652,0,0,0.994169,100,0)">
      <stop
         id="stop3750-8"
         style="stop-color:#000000;stop-opacity:1"
         offset="0" />
      <stop
         id="stop3752-5"
         style="stop-color:#000000;stop-opacity:0.58823532"
         offset="1" />
    </linearGradient>
    <linearGradient
       x1="32.251034"
       y1="6.1317081"
       x2="32.251034"
       y2="90.238609"
       id="linearGradient3780"
       xlink:href="#ButtonShadow-0"
       gradientUnits="userSpaceOnUse"
       gradientTransform="matrix(1.0238095,0,0,1.0119048,-1.1428571,-98.071429)" />
    <linearGradient
       x1="32.251034"
       y1="6.1317081"
       x2="32.251034"
       y2="90.238609"
       id="linearGradient3772"
       xlink:href="#ButtonShadow-0"
       gradientUnits="userSpaceOnUse"
       gradientTransform="matrix(1.0238095,0,0,1.0119048,-1.1428571,-98.071429)" />
    <linearGradient
       x1="32.251034"
       y1="6.1317081"
       x2="32.251034"
       y2="90.238609"
       id="linearGradient3725"
       xlink:href="#ButtonShadow-0"
       gradientUnits="userSpaceOnUse"
       gradientTransform="matrix(1.0238095,0,0,1.0119048,-1.1428571,-98.071429)" />
    <linearGradient
       x1="32.251034"
       y1="6.1317081"
       x2="32.251034"
       y2="90.238609"
       id="linearGradient3721"
       xlink:href="#ButtonShadow-0"
       gradientUnits="userSpaceOnUse"
       gradientTransform="translate(0,-97)" />
    <linearGradient
       x1="32.251034"
       y1="6.1317081"
       x2="32.251034"
       y2="90.238609"
       id="linearGradient3026"
       xlink:href="#ButtonShadow-0"
       gradientUnits="userSpaceOnUse"
       gradientTransform="matrix(1.0238095,0,0,1.0119048,-1.1428571,-98.071429)" />
    <clipPath
       id="clipPath4355">
      <rect
         width="84"
         height="80"
         rx="6"
         ry="6"
         x="6"
         y="6"
         id="rect4357"
         style="fill:#ffffff;fill-opacity:1;fill-rule:nonzero;stroke:none" />
    </clipPath>
    <radialGradient
       cx="48"
       cy="87.792389"
       r="42"
       fx="48"
       fy="87.792389"
       id="radialGradient4375"
       xlink:href="#linearGradient4367"
       gradientUnits="userSpaceOnUse"
       gradientTransform="matrix(1,-6.7114942e-8,8.4282233e-8,1.2557894,109.99999,-24.505592)" />
    <linearGradient
       x1="48"
       y1="88"
       x2="48"
       y2="-40"
       id="linearGradient4390"
       xlink:href="#linearGradient4384"
       gradientUnits="userSpaceOnUse"
       gradientTransform="matrix(1,0,0,-1,0,92)" />
    <linearGradient
       x1="48"
       y1="82"
       x2="112.12357"
       y2="82.454597"
       id="linearGradient4429"
       xlink:href="#linearGradient4384"
       gradientUnits="userSpaceOnUse"
       spreadMethod="reflect" />
    <linearGradient
       id="linearGradient3843">
      <stop
         id="stop3845"
         style="stop-color:#523823;stop-opacity:1"
         offset="0" />
      <stop
         id="stop3847"
         style="stop-color:#79563a;stop-opacity:1"
         offset="0.11780351" />
      <stop
         id="stop3849"
         style="stop-color:#875c38;stop-opacity:1"
         offset="0.23809524" />
      <stop
         id="stop3851"
         style="stop-color:#a66e40;stop-opacity:1"
         offset="1" />
    </linearGradient>
    <linearGradient
       x1="8"
       y1="1033.3622"
       x2="50"
       y2="1033.3622"
       id="linearGradient3870"
       xlink:href="#linearGradient3843"
       gradientUnits="userSpaceOnUse"
       gradientTransform="translate(-2,-956.3622)"
       spreadMethod="reflect" />
    <linearGradient
       x1="48.082497"
       y1="75.561722"
       x2="46.654823"
       y2="16.972879"
       id="linearGradient3707"
       xlink:href="#linearGradient3731"
       gradientUnits="userSpaceOnUse" />
    <linearGradient
       id="linearGradient3731">
      <stop
         id="stop3733"
         style="stop-color:#dcdcdc;stop-opacity:1"
         offset="0" />
      <stop
         id="stop3757"
         style="stop-color:#ebebeb;stop-opacity:1"
         offset="0.30654153" />
      <stop
         id="stop3737"
         style="stop-color:#ffffff;stop-opacity:1"
         offset="0.70706075" />
      <stop
         id="stop3759"
         style="stop-color:#fafafa;stop-opacity:1"
         offset="0.84501493" />
      <stop
         id="stop3735"
         style="stop-color:#f0f0f0;stop-opacity:1"
         offset="1" />
    </linearGradient>
    <linearGradient
       x1="32"
       y1="16.972879"
       x2="32"
       y2="121"
       id="linearGradient3887"
       xlink:href="#linearGradient3737"
       gradientUnits="userSpaceOnUse" />
    <linearGradient
       id="linearGradient2881">
      <stop
         id="stop2883"
         style="stop-color:#bf0e0e;stop-opacity:1"
         offset="0" />
      <stop
         id="stop2885"
         style="stop-color:#f05530;stop-opacity:1"
         offset="1" />
    </linearGradient>
  </defs>
  <metadata
     id="metadata2413">
    <rdf:RDF>
      <cc:Work
         rdf:about="">
        <dc:format>image/svg+xml</dc:format>
        <dc:type
           rdf:resource="http://purl.org/dc/dcmitype/StillImage" />
        <dc:title />
      </cc:Work>
    </rdf:RDF>
  </metadata>
  <g
     id="layer2"
     style="display:none">
    <rect
       width="86"
       height="85"
       rx="6"
       ry="6"
       x="5"
       y="7"
       id="rect3745"
       style="opacity:0.9;fill:url(#ButtonShadow);fill-opacity:1;fill-rule:nonzero;stroke:none;filter:url(#filter3174)" />
  </g>
  <g
     id="layer3"
     style="display:inline">
    <path
       d="m 12,-95.03125 c -5.5110903,0 -10.03125,4.52016 -10.03125,10.03125 l 0,71 c 0,5.5110902 4.5201598,10.03125 10.03125,10.03125 l 72,0 c 5.51109,0 10.03125,-4.5201597 10.03125,-10.03125 l 0,-71 c 0,-5.51109 -4.52016,-10.03125 -10.03125,-10.03125 l -72,0 z"
       transform="scale(1,-1)"
       id="path3786"
       style="opacity:0.07999998;fill:url(#linearGradient3026);fill-opacity:1;fill-rule:nonzero;stroke:none;display:inline" />
    <path
       d="m 12,-94.03125 c -4.971633,0 -9.03125,4.059617 -9.03125,9.03125 l 0,71 c 0,4.9716329 4.0596171,9.03125 9.03125,9.03125 l 72,0 c 4.971633,0 9.03125,-4.059617 9.03125,-9.03125 l 0,-71 c 0,-4.971633 -4.059617,-9.03125 -9.03125,-9.03125 l -72,0 z"
       transform="scale(1,-1)"
       id="path3778"
       style="opacity:0.1;fill:url(#linearGradient3780);fill-opacity:1;fill-rule:nonzero;stroke:none;display:inline" />
    <path
       d="m 12,-93 c -4.4091333,0 -8,3.590867 -8,8 l 0,71 c 0,4.4091333 3.5908667,8 8,8 l 72,0 c 4.409133,0 8,-3.5908667 8,-8 l 0,-71 c 0,-4.409133 -3.590867,-8 -8,-8 l -72,0 z"
       transform="scale(1,-1)"
       id="path3770"
       style="opacity:0.2;fill:url(#linearGradient3772);fill-opacity:1;fill-rule:nonzero;stroke:none;display:inline" />
    <rect
       width="86"
       height="85"
       rx="7"
       ry="7"
       x="5"
       y="-92"
       transform="scale(1,-1)"
       id="rect3723"
       style="opacity:0.3;fill:url(#linearGradient3725);fill-opacity:1;fill-rule:nonzero;stroke:none;display:inline" />
    <rect
       width="84"
       height="84"
       rx="6"
       ry="6"
       x="6"
       y="-91"
       transform="scale(1,-1)"
       id="rect3716"
       style="opacity:0.45;fill:url(#linearGradient3721);fill-opacity:1;fill-rule:nonzero;stroke:none;display:inline" />
  </g>
  <g
     id="layer4">
    <rect
       width="84"
       height="26.000017"
       rx="6"
       ry="6"
       x="6"
       y="64"
       id="rect2841"
       style="color:#000000;fill:url(#linearGradient3870);fill-opacity:1;fill-rule:nonzero;stroke:none;stroke-width:1.5;marker:none;visibility:visible;display:inline;overflow:visible;enable-background:accumulate" />
    <path
       d="m 6,82 0,2 c 0,3.324 2.676,6 6,6 l 72,0 c 3.324,0 6,-2.676 6,-6 l 0,-2 c 0,3.324 -2.676,6 -6,6 L 12,88 C 8.676,88 6,85.324 6,82 z"
       inkscape:connector-curvature="0"
       id="rect4345"
       style="opacity:0.1;color:#000000;fill:#000000;fill-opacity:1;fill-rule:nonzero;stroke:none;stroke-width:1.5;marker:none;visibility:visible;display:inline;overflow:visible;enable-background:accumulate" />
    <path
       d="m 6,83 0,1 c 0,3.324 2.676,6 6,6 l 72,0 c 3.324,0 6,-2.676 6,-6 l 0,-1 c 0,3.324 -2.676,6 -6,6 L 12,89 C 8.676,89 6,86.324 6,83 z"
       inkscape:connector-curvature="0"
       id="rect4336"
       style="opacity:0.1;color:#000000;fill:#000000;fill-opacity:1;fill-rule:nonzero;stroke:none;stroke-width:1.5;marker:none;visibility:visible;display:inline;overflow:visible;enable-background:accumulate" />
    <path
       d="m 6,80 0,1 c 0,3.324 2.676,6 6,6 l 72,0 c 3.324,0 6,-2.676 6,-6 l 0,-1 c 0,3.324 -2.676,6 -6,6 L 12,86 C 8.676,86 6,83.324 6,80 z"
       inkscape:connector-curvature="0"
       id="path4412"
       style="opacity:0.2;fill:#000000;fill-opacity:1;fill-rule:nonzero;stroke:none" />
  </g>
  <g
     id="layer1">
    <rect
       width="84"
       height="80"
       rx="6"
       ry="6"
       x="6"
       y="6"
       id="rect2419"
       style="fill:url(#linearGradient3617);fill-opacity:1;fill-rule:nonzero;stroke:none" />
    <path
       d="M 120.78125,6.125 C 118.04223,6.6826484 116,9.0915 116,12 l 0,68 c 0,3.324 2.676,6 6,6 l 72,0 c 3.324,0 6,-2.676 6,-6 l 0,-68 c 0,-2.9085 -2.04223,-5.3173516 -4.78125,-5.875 2.20512,0.5362071 3.8125,2.4908437 3.8125,4.875 l 0,68 c 0,2.80489 -2.22636,5.03125 -5.03125,5.03125 l -72,0 c -2.80489,0 -5.03125,-2.22636 -5.03125,-5.03125 l 0,-68 c 0,-2.3841563 1.60738,-4.3387929 3.8125,-4.875 z"
       inkscape:connector-curvature="0"
       id="rect4359"
       style="opacity:0.2;fill:url(#radialGradient4375);fill-opacity:1;fill-rule:nonzero;stroke:none" />
    <path
       d="M 12,86 C 8.676,86 6,83.324 6,80 L 6,12 C 6,8.676 8.676,6 12,6 l 72,0 c 3.324,0 6,2.676 6,6 l 0,68 c 0,3.324 -2.676,6 -6,6 z m 0,-0.96875 72,0 c 2.80489,0 5.03125,-2.22636 5.03125,-5.03125 l 0,-68 C 89.03125,9.19511 86.80489,6.96875 84,6.96875 l -72,0 C 9.1951102,6.96875 6.96875,9.19511 6.96875,12 l 0,68 c 0,2.80489 2.2263602,5.03125 5.03125,5.03125 z"
       inkscape:connector-curvature="0"
       id="rect4377"
       style="opacity:0.3;fill:url(#linearGradient4390);fill-opacity:1;fill-rule:nonzero;stroke:none" />
    <path
       d="m 6,78 0,2 c 0,3.324 2.676,6 6,6 l 72,0 c 3.324,0 6,-2.676 6,-6 l 0,-2 c 0,3.324 -2.676,6 -6,6 L 12,84 C 8.676,84 6,81.324 6,78 z"
       inkscape:connector-curvature="0"
       id="rect4414"
       style="opacity:0.1;fill:url(#linearGradient4429);fill-opacity:1;fill-rule:nonzero;stroke:none" />
  </g>
  <g
     id="layer5"
     style="display:inline">
    <rect
       width="66"
       height="62"
       rx="12"
       ry="12"
       x="15"
       y="15"
       clip-path="url(#clipPath4355)"
       id="rect3171"
       style="opacity:0.1;fill:url(#linearGradient3613);fill-opacity:1;fill-rule:nonzero;stroke:#ffffff;stroke-width:0.5;stroke-linecap:round;stroke-linejoin:miter;stroke-miterlimit:4;stroke-opacity:1;stroke-dasharray:none;stroke-dashoffset:0;filter:url(#filter3794)" />
  </g>
  <g
     id="layer6">
    <path
       d="M 48,13.96875 C 34.946763,13.894705 21.168681,20.096881 14.875,32.125 c -4.754154,8.789704 -3.517609,20.061864 2.71875,27.78125 0.009,0.01172 0.02219,0.01954 0.03125,0.03125 2.473227,3.19659 5.592735,5.822929 9,7.9375 -0.844549,3.31245 -3.68118,5.975001 -7.03125,6.75 a 0.99357645,0.99357645 0 0 0 -0.1875,0.0625 c -2.63063,1.166727 -1.905332,5.434869 0.9375,5.6875 l 0,0.03125 c 0.02086,0.0026 0.04164,-0.0026 0.0625,0 7.520497,0.92222 15.210547,-1.812057 20.65625,-7.03125 13.926316,2.450359 29.605161,-2.420184 38.0625,-14.25 l 0.03125,0 c 0.0047,-0.0065 -0.0047,-0.02472 0,-0.03125 6.460616,-8.780291 6.460616,-21.407209 0,-30.1875 -0.0047,-0.0066 0.0047,-0.02463 0,-0.03125 l -0.03125,0 C 72.110273,18.953254 59.807048,13.934739 48,13.96875 z M 40.15625,32.25 c 2.036656,2.014678 3.996517,4.171091 6.21875,6.125 a 0.99357645,0.99357645 0 0 0 0.1875,0.125 c 0.661478,0.344493 1.406513,0.423186 2.03125,0.28125 0.624737,-0.141936 1.10577,-0.460752 1.53125,-0.8125 C 50.97596,37.265253 51.617475,36.401496 52.09375,36 a 0.99357645,0.99357645 0 0 0 0.0625,-0.0625 L 55.84375,32.25 58.75,35.15625 c -2.014678,2.036656 -4.171091,3.996517 -6.125,6.21875 A 0.99357645,0.99357645 0 0 0 52.5,41.5625 c -0.344493,0.661478 -0.423186,1.406513 -0.28125,2.03125 0.141936,0.624737 0.460752,1.10577 0.8125,1.53125 0.703497,0.85096 1.567254,1.492475 1.96875,1.96875 a 0.99357645,0.99357645 0 0 0 0.0625,0.0625 L 58.75,50.84375 55.84375,53.75 C 53.807094,51.735322 51.847233,49.578909 49.625,47.625 A 0.99357645,0.99357645 0 0 0 49.4375,47.5 C 48.776022,47.155507 48.030987,47.076814 47.40625,47.21875 46.781513,47.360686 46.30048,47.679502 45.875,48.03125 45.02404,48.734747 44.382525,49.598504 43.90625,50 a 0.99357645,0.99357645 0 0 0 -0.0625,0.0625 L 40.15625,53.75 37.25,50.84375 c 2.014678,-2.036656 4.171091,-3.996517 6.125,-6.21875 A 0.99357645,0.99357645 0 0 0 43.5,44.4375 c 0.344493,-0.661478 0.423186,-1.406513 0.28125,-2.03125 C 43.639314,41.781513 43.320498,41.30048 42.96875,40.875 42.265253,40.02404 41.401496,39.382525 41,38.90625 a 0.99357645,0.99357645 0 0 0 -0.0625,-0.0625 L 37.25,35.15625 40.15625,32.25 z"
       transform="translate(0,1)"
       id="path3870"
       style="opacity:0.05;fill:#000000;fill-opacity:1;stroke:none;display:inline" />
    <path
       d="m 48,15.96875 c -12.733261,-0.07223 -26.166151,6.018564 -32.24708,17.640084 -4.553141,8.418062 -3.365879,19.306838 2.624705,26.705698 2.555966,3.313569 5.808597,6.058854 9.403625,8.185468 -0.715138,4.018207 -4.050681,7.187351 -7.96875,8.09375 -1.745708,0.77425 -1.257473,3.694065 0.65625,3.8125 7.395042,0.926653 15.054717,-1.802782 20.3125,-7.0625 13.700801,2.57845 29.282839,-2.18492 37.56055,-13.797505 6.209115,-8.418593 6.209115,-20.673897 0,-29.09249 C 71.558248,20.829737 59.537598,15.935515 48,15.96875 z M 40.15625,31.875 c 2.310138,2.227813 4.470136,4.635512 6.875,6.75 1.935029,1.007749 3.174534,-1.308809 4.427813,-2.365313 1.461562,-1.461562 2.923125,-2.923125 4.384687,-4.384687 1.427083,1.427083 2.854167,2.854167 4.28125,4.28125 -2.227813,2.310138 -4.635512,4.470136 -6.75,6.875 -1.007749,1.935029 1.308809,3.174534 2.365313,4.427813 1.461562,1.461562 2.923125,2.923125 4.384687,4.384687 -1.427083,1.427083 -2.854167,2.854167 -4.28125,4.28125 -2.310138,-2.227813 -4.470136,-4.635512 -6.875,-6.75 -1.935029,-1.007749 -3.174534,1.308809 -4.427813,2.365313 -1.461562,1.461562 -2.923125,2.923125 -4.384687,4.384687 -1.427083,-1.427083 -2.854167,-2.854167 -4.28125,-4.28125 2.227813,-2.310138 4.635512,-4.470136 6.75,-6.875 1.007749,-1.935029 -1.308809,-3.174534 -2.365313,-4.427813 C 38.798125,39.079375 37.336562,37.617812 35.875,36.15625 37.302083,34.729167 38.729167,33.302083 40.15625,31.875 z"
       inkscape:connector-curvature="0"
       id="path3864"
       style="opacity:0.07999998;fill:#000000;fill-opacity:1;stroke:none;display:inline" />
    <path
       d="m 48,15 c -18.673325,0 -34,12.419185 -34,28 0,9.666257 6.010375,18.082232 14.9375,23.09375 -0.210046,1.18979 -0.654323,2.835391 -1.75,4.53125 -1.251647,1.937265 -3.265869,3.827632 -6.75,4.8125 a 1.0131038,1.0131038 0 0 0 0.15625,1.96875 c 9.674315,1.051409 16.234677,-3.49666 19.84375,-7.125 C 42.877352,70.739645 45.390476,71 48,71 66.673325,71 82,58.580815 82,43 82,27.419185 66.673325,15 48,15 z m -7.84375,13.4375 7.125,7.125 a 1.0131038,1.0131038 0 0 0 1.4375,0 l 7.125,-7.125 5.71875,5.71875 -7.125,7.125 a 1.0131038,1.0131038 0 0 0 0,1.4375 l 7.125,7.125 -5.71875,5.71875 -7.125,-7.125 a 1.0131038,1.0131038 0 0 0 -1.4375,0 l -7.125,7.125 -5.71875,-5.71875 7.125,-7.125 a 1.0131038,1.0131038 0 0 0 0,-1.4375 l -7.125,-7.125 5.71875,-5.71875 z"
       transform="translate(0,2)"
       id="path3858"
       style="opacity:0.12000002;fill:#000000;fill-opacity:1;stroke:none;display:inline" />
    <path
       d="m 48,18 c -18.225397,0 -33,12.088312 -33,27 0,9.498438 5.99976,17.843462 15.0625,22.65625 -0.344625,2.508754 -1.914014,8.649817 -9.34375,10.75 9.622915,1.045823 16.013601,-3.646306 19.40625,-7.1875 C 42.648507,71.724251 45.286067,72 48,72 66.225397,72 81,59.911688 81,45 81,30.088312 66.225397,18 48,18 z M 40.15625,29 48,36.84375 55.84375,29 63,36.15625 55.15625,44 63,51.84375 55.84375,59 48,51.15625 40.15625,59 33,51.84375 40.84375,44 33,36.15625 40.15625,29 z"
       inkscape:connector-curvature="0"
       id="path3080"
       style="opacity:0.3;fill:#000000;fill-opacity:1;stroke:none;display:inline" />
    <path
       d="m 48,17 c -18.225397,0 -33,12.088312 -33,27 0,9.498438 5.99976,17.843462 15.0625,22.65625 -0.344625,2.508754 -1.914014,8.649817 -9.34375,10.75 9.622915,1.045823 16.013601,-3.646306 19.40625,-7.1875 C 42.648507,70.724251 45.286067,71 48,71 66.225397,71 81,58.911688 81,44 81,29.088312 66.225397,17 48,17 z M 40.15625,28 48,35.84375 55.84375,28 63,35.15625 55.15625,43 63,50.84375 55.84375,58 48,50.15625 40.15625,58 33,50.84375 40.84375,43 33,35.15625 40.15625,28 z"
       inkscape:connector-curvature="0"
       id="path3620"
       style="fill:url(#linearGradient3707);fill-opacity:1;stroke:none;display:inline" />
    <path
       d="m 48,17 c -18.225397,0 -33,12.088312 -33,27 0,0.208408 0.0255,0.417728 0.03125,0.625 C 15.915093,30.359014 30.344147,19 48,19 65.811103,19 80.318034,30.557401 80.96875,45 80.98389,44.664059 81,44.338968 81,44 81,29.088312 66.225397,17 48,17 z m -14,19.15625 -1,1 6.84375,6.84375 1,-1 L 34,36.15625 z m 28,0 L 55.15625,43 l 1,1 L 63,37.15625 l -1,-1 z m -14,14 L 40.15625,58 34,51.84375 l -1,1 L 40.15625,60 48,52.15625 55.84375,60 63,52.84375 l -1,-1 L 55.84375,58 48,50.15625 z M 29.6875,68.4375 c -0.788875,2.925833 -2.942108,7.265183 -8.96875,8.96875 1.438598,0.156348 2.798846,0.170865 4.09375,0.09375 3.95088,-2.735394 4.981412,-6.888521 5.25,-8.84375 -0.129197,-0.06861 -0.247056,-0.148711 -0.375,-0.21875 z"
       inkscape:connector-curvature="0"
       id="path3735"
       style="opacity:0.4;fill:#ffffff;fill-opacity:1;stroke:none;display:inline" />
    <path
       d="m 48,17 c -18.225397,0 -33,12.088312 -33,27 0,9.498438 5.99976,17.843462 15.0625,22.65625 -0.344625,2.508754 -1.914014,8.649817 -9.34375,10.75 9.622915,1.045823 16.013601,-3.646306 19.40625,-7.1875 C 42.648507,70.724251 45.286067,71 48,71 66.225397,71 81,58.911688 81,44 81,29.088312 66.225397,17 48,17 z m 0,1.0625 c 17.758076,0 31.9375,11.723908 31.9375,25.9375 0,14.213592 -14.179424,25.9375 -31.9375,25.9375 -2.642345,0 -5.199228,-0.257817 -7.65625,-0.75 A 1.0569657,1.0569657 0 0 0 39.375,69.5 c -2.643964,2.759728 -7.248298,6.049019 -13.78125,6.71875 1.442386,-1.03711 2.550422,-2.240858 3.34375,-3.46875 1.481508,-2.293039 2.001574,-4.584023 2.1875,-5.9375 A 1.0569657,1.0569657 0 0 0 30.5625,65.71875 C 21.776058,61.052691 16.0625,53.053389 16.0625,44 16.0625,29.786408 30.241924,18.0625 48,18.0625 z m -8.03125,8.875 A 1.0569657,1.0569657 0 0 0 39.40625,27.25 L 32.25,34.40625 a 1.0569657,1.0569657 0 0 0 0,1.5 L 39.34375,43 32.25,50.09375 a 1.0569657,1.0569657 0 0 0 0,1.5 L 39.40625,58.75 a 1.0569657,1.0569657 0 0 0 1.5,0 L 48,51.65625 55.09375,58.75 a 1.0569657,1.0569657 0 0 0 1.5,0 L 63.75,51.59375 a 1.0569657,1.0569657 0 0 0 0,-1.5 L 56.65625,43 63.75,35.90625 a 1.0569657,1.0569657 0 0 0 0,-1.5 L 56.59375,27.25 a 1.0569657,1.0569657 0 0 0 -1.5,0 L 48,34.34375 40.90625,27.25 a 1.0569657,1.0569657 0 0 0 -0.84375,-0.3125 1.0569657,1.0569657 0 0 0 -0.09375,0 z M 40.15625,28 48,35.84375 55.84375,28 63,35.15625 55.15625,43 63,50.84375 55.84375,58 48,50.15625 40.15625,58 33,50.84375 40.84375,43 33,35.15625 40.15625,28 z"
       inkscape:connector-curvature="0"
       id="path3874"
       style="fill:url(#linearGradient3887);fill-opacity:1;stroke:none;display:inline" />
  </g>
</svg>
