<?xml version="1.0" encoding="UTF-8" standalone="no"?>
<!-- Created with Inkscape (http://www.inkscape.org/) -->

<svg
   xmlns:dc="http://purl.org/dc/elements/1.1/"
   xmlns:cc="http://creativecommons.org/ns#"
   xmlns:rdf="http://www.w3.org/1999/02/22-rdf-syntax-ns#"
   xmlns:svg="http://www.w3.org/2000/svg"
   xmlns="http://www.w3.org/2000/svg"
   xmlns:xlink="http://www.w3.org/1999/xlink"
   xmlns:inkscape="http://www.inkscape.org/namespaces/inkscape"
   version="1.0"
   width="96"
   height="96"
   id="svg2408">
  <defs
     id="defs2410">
    <linearGradient
       id="linearGradient4384">
      <stop
         id="stop4386"
         style="stop-color:#ffffff;stop-opacity:1"
         offset="0" />
      <stop
         id="stop4388"
         style="stop-color:#ffffff;stop-opacity:0"
         offset="1" />
    </linearGradient>
    <linearGradient
       id="linearGradient4367">
      <stop
         id="stop4369"
         style="stop-color:#ffffff;stop-opacity:0.71755725"
         offset="0" />
      <stop
         id="stop4371"
         style="stop-color:#ffffff;stop-opacity:1"
         offset="1" />
    </linearGradient>
    <linearGradient
       x1="45.447727"
       y1="92.539597"
       x2="45.447727"
       y2="7.0165396"
       id="ButtonShadow"
       gradientUnits="userSpaceOnUse"
       gradientTransform="scale(1.0058652,0.994169)">
      <stop
         id="stop3750"
         style="stop-color:#000000;stop-opacity:1"
         offset="0" />
      <stop
         id="stop3752"
         style="stop-color:#000000;stop-opacity:0.58823532"
         offset="1" />
    </linearGradient>
    <linearGradient
       id="linearGradient3737">
      <stop
         id="stop3739"
         style="stop-color:#ffffff;stop-opacity:1"
         offset="0" />
      <stop
         id="stop3741"
         style="stop-color:#ffffff;stop-opacity:0"
         offset="1" />
    </linearGradient>
    <filter
       color-interpolation-filters="sRGB"
       id="filter3174">
      <feGaussianBlur
         id="feGaussianBlur3176"
         stdDeviation="1.71" />
    </filter>
    <filter
       x="-0.192"
       y="-0.192"
       width="1.3839999"
       height="1.3839999"
       color-interpolation-filters="sRGB"
       id="filter3794">
      <feGaussianBlur
         id="feGaussianBlur3796"
         stdDeviation="5.28" />
    </filter>
    <linearGradient
       x1="48"
       y1="20.220806"
       x2="48"
       y2="138.66119"
       id="linearGradient3613"
       xlink:href="#linearGradient3737"
       gradientUnits="userSpaceOnUse" />
    <linearGradient
       x1="48"
       y1="90"
       x2="48"
       y2="5.9877172"
       id="linearGradient3617"
       xlink:href="#linearGradient3614"
       gradientUnits="userSpaceOnUse" />
    <linearGradient
       x1="45.447727"
       y1="92.539597"
       x2="45.447727"
       y2="7.0165396"
       id="ButtonShadow-0"
       gradientUnits="userSpaceOnUse"
       gradientTransform="matrix(1.0058652,0,0,0.994169,100,0)">
      <stop
         id="stop3750-8"
         style="stop-color:#000000;stop-opacity:1"
         offset="0" />
      <stop
         id="stop3752-5"
         style="stop-color:#000000;stop-opacity:0.58823532"
         offset="1" />
    </linearGradient>
    <linearGradient
       x1="32.251034"
       y1="6.1317081"
       x2="32.251034"
       y2="90.238609"
       id="linearGradient3780"
       xlink:href="#ButtonShadow-0"
       gradientUnits="userSpaceOnUse"
       gradientTransform="matrix(1.0238095,0,0,1.0119048,-1.1428571,-98.071429)" />
    <linearGradient
       x1="32.251034"
       y1="6.1317081"
       x2="32.251034"
       y2="90.238609"
       id="linearGradient3772"
       xlink:href="#ButtonShadow-0"
       gradientUnits="userSpaceOnUse"
       gradientTransform="matrix(1.0238095,0,0,1.0119048,-1.1428571,-98.071429)" />
    <linearGradient
       x1="32.251034"
       y1="6.1317081"
       x2="32.251034"
       y2="90.238609"
       id="linearGradient3725"
       xlink:href="#ButtonShadow-0"
       gradientUnits="userSpaceOnUse"
       gradientTransform="matrix(1.0238095,0,0,1.0119048,-1.1428571,-98.071429)" />
    <linearGradient
       x1="32.251034"
       y1="6.1317081"
       x2="32.251034"
       y2="90.238609"
       id="linearGradient3721"
       xlink:href="#ButtonShadow-0"
       gradientUnits="userSpaceOnUse"
       gradientTransform="translate(0,-97)" />
    <linearGradient
       x1="32.251034"
       y1="6.1317081"
       x2="32.251034"
       y2="90.238609"
       id="linearGradient3026"
       xlink:href="#ButtonShadow-0"
       gradientUnits="userSpaceOnUse"
       gradientTransform="matrix(1.0238095,0,0,1.0119048,-1.1428571,-98.071429)" />
    <clipPath
       id="clipPath4355">
      <rect
         width="84"
         height="80"
         rx="6"
         ry="6"
         x="6"
         y="6"
         id="rect4357"
         style="fill:#ffffff;fill-opacity:1;fill-rule:nonzero;stroke:none" />
    </clipPath>
    <radialGradient
       cx="48"
       cy="87.792389"
       r="42"
       fx="48"
       fy="87.792389"
       id="radialGradient4375"
       xlink:href="#linearGradient4367"
       gradientUnits="userSpaceOnUse"
       gradientTransform="matrix(1,-6.7114942e-8,8.4282233e-8,1.2557894,109.99999,-24.505592)" />
    <linearGradient
       x1="48"
       y1="88"
       x2="48"
       y2="-40"
       id="linearGradient4390"
       xlink:href="#linearGradient4384"
       gradientUnits="userSpaceOnUse"
       gradientTransform="matrix(1,0,0,-1,0,92)" />
    <linearGradient
       x1="48"
       y1="82"
       x2="112.12357"
       y2="82.454597"
       id="linearGradient4429"
       xlink:href="#linearGradient4384"
       gradientUnits="userSpaceOnUse"
       spreadMethod="reflect" />
    <linearGradient
       id="linearGradient3843">
      <stop
         id="stop3845"
         style="stop-color:#523823;stop-opacity:1"
         offset="0" />
      <stop
         id="stop3847"
         style="stop-color:#79563a;stop-opacity:1"
         offset="0.11780351" />
      <stop
         id="stop3849"
         style="stop-color:#875c38;stop-opacity:1"
         offset="0.23809524" />
      <stop
         id="stop3851"
         style="stop-color:#a66e40;stop-opacity:1"
         offset="1" />
    </linearGradient>
    <linearGradient
       x1="8"
       y1="1033.3622"
       x2="50"
       y2="1033.3622"
       id="linearGradient3870"
       xlink:href="#linearGradient3843"
       gradientUnits="userSpaceOnUse"
       gradientTransform="translate(-2,-956.3622)"
       spreadMethod="reflect" />
    <linearGradient
       id="linearGradient3731">
      <stop
         id="stop3733"
         style="stop-color:#dcdcdc;stop-opacity:1"
         offset="0" />
      <stop
         id="stop3757"
         style="stop-color:#ebebeb;stop-opacity:1"
         offset="0.30654153" />
      <stop
         id="stop3737"
         style="stop-color:#ffffff;stop-opacity:1"
         offset="0.70706075" />
      <stop
         id="stop3759"
         style="stop-color:#fafafa;stop-opacity:1"
         offset="0.84501493" />
      <stop
         id="stop3735"
         style="stop-color:#f0f0f0;stop-opacity:1"
         offset="1" />
    </linearGradient>
    <linearGradient
       x1="15"
       y1="48.272732"
       x2="81"
       y2="48.272732"
       id="linearGradient3746"
       xlink:href="#linearGradient3739"
       gradientUnits="userSpaceOnUse"
       gradientTransform="translate(0,-1)" />
    <linearGradient
       id="linearGradient3739">
      <stop
         id="stop3742"
         style="stop-color:#ffffff;stop-opacity:1"
         offset="0" />
      <stop
         id="stop3744"
         style="stop-color:#ffffff;stop-opacity:0"
         offset="1" />
    </linearGradient>
    <linearGradient
       x1="48.082497"
       y1="75.561722"
       x2="46.654823"
       y2="16.972879"
       id="linearGradient3114"
       xlink:href="#linearGradient3731"
       gradientUnits="userSpaceOnUse" />
    <linearGradient
       x1="40"
       y1="16"
       x2="40"
       y2="112"
       id="linearGradient3881"
       xlink:href="#linearGradient3737"
       gradientUnits="userSpaceOnUse" />
    <linearGradient
       id="linearGradient3614">
      <stop
         id="stop3616"
         style="stop-color:#65a31b;stop-opacity:1"
         offset="0" />
      <stop
         id="stop3618"
         style="stop-color:#a0de42;stop-opacity:1"
         offset="1" />
    </linearGradient>
  </defs>
  <metadata
     id="metadata2413">
    <rdf:RDF>
      <cc:Work
         rdf:about="">
        <dc:format>image/svg+xml</dc:format>
        <dc:type
           rdf:resource="http://purl.org/dc/dcmitype/StillImage" />
        <dc:title />
      </cc:Work>
    </rdf:RDF>
  </metadata>
  <g
     id="layer2"
     style="display:none">
    <rect
       width="86"
       height="85"
       rx="6"
       ry="6"
       x="5"
       y="7"
       id="rect3745"
       style="opacity:0.9;fill:url(#ButtonShadow);fill-opacity:1;fill-rule:nonzero;stroke:none;filter:url(#filter3174)" />
  </g>
  <g
     id="layer3"
     style="display:inline">
    <path
       d="m 12,-95.03125 c -5.5110903,0 -10.03125,4.52016 -10.03125,10.03125 l 0,71 c 0,5.5110902 4.5201598,10.03125 10.03125,10.03125 l 72,0 c 5.51109,0 10.03125,-4.5201597 10.03125,-10.03125 l 0,-71 c 0,-5.51109 -4.52016,-10.03125 -10.03125,-10.03125 l -72,0 z"
       transform="scale(1,-1)"
       id="path3786"
       style="opacity:0.07999998;fill:url(#linearGradient3026);fill-opacity:1;fill-rule:nonzero;stroke:none;display:inline" />
    <path
       d="m 12,-94.03125 c -4.971633,0 -9.03125,4.059617 -9.03125,9.03125 l 0,71 c 0,4.9716329 4.0596171,9.03125 9.03125,9.03125 l 72,0 c 4.971633,0 9.03125,-4.059617 9.03125,-9.03125 l 0,-71 c 0,-4.971633 -4.059617,-9.03125 -9.03125,-9.03125 l -72,0 z"
       transform="scale(1,-1)"
       id="path3778"
       style="opacity:0.1;fill:url(#linearGradient3780);fill-opacity:1;fill-rule:nonzero;stroke:none;display:inline" />
    <path
       d="m 12,-93 c -4.4091333,0 -8,3.590867 -8,8 l 0,71 c 0,4.4091333 3.5908667,8 8,8 l 72,0 c 4.409133,0 8,-3.5908667 8,-8 l 0,-71 c 0,-4.409133 -3.590867,-8 -8,-8 l -72,0 z"
       transform="scale(1,-1)"
       id="path3770"
       style="opacity:0.2;fill:url(#linearGradient3772);fill-opacity:1;fill-rule:nonzero;stroke:none;display:inline" />
    <rect
       width="86"
       height="85"
       rx="7"
       ry="7"
       x="5"
       y="-92"
       transform="scale(1,-1)"
       id="rect3723"
       style="opacity:0.3;fill:url(#linearGradient3725);fill-opacity:1;fill-rule:nonzero;stroke:none;display:inline" />
    <rect
       width="84"
       height="84"
       rx="6"
       ry="6"
       x="6"
       y="-91"
       transform="scale(1,-1)"
       id="rect3716"
       style="opacity:0.45;fill:url(#linearGradient3721);fill-opacity:1;fill-rule:nonzero;stroke:none;display:inline" />
  </g>
  <g
     id="layer4">
    <rect
       width="84"
       height="26.000017"
       rx="6"
       ry="6"
       x="6"
       y="64"
       id="rect2841"
       style="color:#000000;fill:url(#linearGradient3870);fill-opacity:1;fill-rule:nonzero;stroke:none;stroke-width:1.5;marker:none;visibility:visible;display:inline;overflow:visible;enable-background:accumulate" />
    <path
       d="m 6,82 0,2 c 0,3.324 2.676,6 6,6 l 72,0 c 3.324,0 6,-2.676 6,-6 l 0,-2 c 0,3.324 -2.676,6 -6,6 L 12,88 C 8.676,88 6,85.324 6,82 z"
       inkscape:connector-curvature="0"
       id="rect4345"
       style="opacity:0.1;color:#000000;fill:#000000;fill-opacity:1;fill-rule:nonzero;stroke:none;stroke-width:1.5;marker:none;visibility:visible;display:inline;overflow:visible;enable-background:accumulate" />
    <path
       d="m 6,83 0,1 c 0,3.324 2.676,6 6,6 l 72,0 c 3.324,0 6,-2.676 6,-6 l 0,-1 c 0,3.324 -2.676,6 -6,6 L 12,89 C 8.676,89 6,86.324 6,83 z"
       inkscape:connector-curvature="0"
       id="rect4336"
       style="opacity:0.1;color:#000000;fill:#000000;fill-opacity:1;fill-rule:nonzero;stroke:none;stroke-width:1.5;marker:none;visibility:visible;display:inline;overflow:visible;enable-background:accumulate" />
    <path
       d="m 6,80 0,1 c 0,3.324 2.676,6 6,6 l 72,0 c 3.324,0 6,-2.676 6,-6 l 0,-1 c 0,3.324 -2.676,6 -6,6 L 12,86 C 8.676,86 6,83.324 6,80 z"
       inkscape:connector-curvature="0"
       id="path4412"
       style="opacity:0.2;fill:#000000;fill-opacity:1;fill-rule:nonzero;stroke:none" />
  </g>
  <g
     id="layer1">
    <rect
       width="84"
       height="80"
       rx="6"
       ry="6"
       x="6"
       y="6"
       id="rect2419"
       style="fill:url(#linearGradient3617);fill-opacity:1;fill-rule:nonzero;stroke:none" />
    <path
       d="M 120.78125,6.125 C 118.04223,6.6826484 116,9.0915 116,12 l 0,68 c 0,3.324 2.676,6 6,6 l 72,0 c 3.324,0 6,-2.676 6,-6 l 0,-68 c 0,-2.9085 -2.04223,-5.3173516 -4.78125,-5.875 2.20512,0.5362071 3.8125,2.4908437 3.8125,4.875 l 0,68 c 0,2.80489 -2.22636,5.03125 -5.03125,5.03125 l -72,0 c -2.80489,0 -5.03125,-2.22636 -5.03125,-5.03125 l 0,-68 c 0,-2.3841563 1.60738,-4.3387929 3.8125,-4.875 z"
       inkscape:connector-curvature="0"
       id="rect4359"
       style="opacity:0.2;fill:url(#radialGradient4375);fill-opacity:1;fill-rule:nonzero;stroke:none" />
    <path
       d="M 12,86 C 8.676,86 6,83.324 6,80 L 6,12 C 6,8.676 8.676,6 12,6 l 72,0 c 3.324,0 6,2.676 6,6 l 0,68 c 0,3.324 -2.676,6 -6,6 z m 0,-0.96875 72,0 c 2.80489,0 5.03125,-2.22636 5.03125,-5.03125 l 0,-68 C 89.03125,9.19511 86.80489,6.96875 84,6.96875 l -72,0 C 9.1951102,6.96875 6.96875,9.19511 6.96875,12 l 0,68 c 0,2.80489 2.2263602,5.03125 5.03125,5.03125 z"
       inkscape:connector-curvature="0"
       id="rect4377"
       style="opacity:0.3;fill:url(#linearGradient4390);fill-opacity:1;fill-rule:nonzero;stroke:none" />
    <path
       d="m 6,78 0,2 c 0,3.324 2.676,6 6,6 l 72,0 c 3.324,0 6,-2.676 6,-6 l 0,-2 c 0,3.324 -2.676,6 -6,6 L 12,84 C 8.676,84 6,81.324 6,78 z"
       inkscape:connector-curvature="0"
       id="rect4414"
       style="opacity:0.1;fill:url(#linearGradient4429);fill-opacity:1;fill-rule:nonzero;stroke:none" />
  </g>
  <g
     id="layer5"
     style="display:inline">
    <rect
       width="66"
       height="62"
       rx="12"
       ry="12"
       x="15"
       y="15"
       clip-path="url(#clipPath4355)"
       id="rect3171"
       style="opacity:0.1;fill:url(#linearGradient3613);fill-opacity:1;fill-rule:nonzero;stroke:#ffffff;stroke-width:0.5;stroke-linecap:round;stroke-linejoin:miter;stroke-miterlimit:4;stroke-opacity:1;stroke-dasharray:none;stroke-dashoffset:0;filter:url(#filter3794)" />
  </g>
  <g
     id="layer6">
    <path
       d="m 48,15 c -13.044689,-0.07479 -26.799426,6.12585 -33.09375,18.15625 -4.76054,8.804567 -3.527652,20.084171 2.71875,27.8125 0.009,0.01172 0.02219,0.01955 0.03125,0.03125 2.458009,3.174154 5.5598,5.774562 8.9375,7.875 -0.845536,3.294454 -3.631111,5.95802 -6.96875,6.71875 a 1.0747975,1.0747975 0 0 0 -0.1875,0.0625 c -2.675202,1.152955 -1.92029,5.480669 0.96875,5.71875 l 0,0.03125 c 0.02091,0.0026 0.04159,-0.0026 0.0625,0 7.515247,0.927077 15.16165,-1.817498 20.59375,-7.03125 13.934681,2.452758 29.606692,-2.38826 38.0625,-14.25 6.48417,-8.792079 6.48417,-21.457921 0,-30.25 C 72.113625,19.927725 59.81153,14.96556 48,15 z m 2.6875,15 a 1.0747975,1.0747975 0 0 0 0.09375,0 c 0.842992,-0.0086 1.083842,0.212269 1.21875,0.4375 0.134908,0.225231 0.15417,0.666951 0,1.09375 -0.15417,0.426799 -0.461268,0.766806 -0.78125,0.90625 -0.319982,0.139444 -0.677577,0.211485 -1.3125,-0.21875 a 1.0747975,1.0747975 0 0 0 -0.09375,-0.0625 c -0.335787,-0.177834 -0.439668,-0.369324 -0.5,-0.5625 -0.06033,-0.193176 -0.03997,-0.427288 0.0625,-0.6875 C 49.57994,30.385827 50.067088,29.947779 50.6875,30 z m -3.40625,12.25 c 0.892138,0.02566 1.408855,0.368246 1.71875,1.09375 0.376508,0.881453 0.324113,2.250135 -0.125,3.28125 a 1.0747975,1.0747975 0 0 0 -0.03125,0.1875 c -0.848579,3.590282 -2.596637,7.314272 -2.46875,11.53125 -5.43e-4,0.02359 1.8e-5,0.03917 0,0.0625 -4.91e-4,0.620509 0.190424,1.140583 0.40625,1.5625 -0.563518,0.0042 -0.967292,-0.09303 -1.21875,-0.28125 -0.283482,-0.212194 -0.518308,-0.556761 -0.65625,-1.03125 -0.275884,-0.948978 -0.120902,-2.419121 0.28125,-3.46875 a 1.0747975,1.0747975 0 0 0 0.03125,-0.125 c 0.811852,-3.410172 2.469865,-6.95062 2.40625,-10.9375 -0.0015,-0.09598 0.03486,-0.184747 0.03125,-0.28125 l -0.09375,0 c 0.0542,-0.601273 -0.03732,-1.175481 -0.25,-1.5625 -0.009,-0.01638 -0.02216,-0.01514 -0.03125,-0.03125 z"
       id="path3866"
       style="opacity:0.05;fill:#000000;fill-opacity:1;stroke:none;display:inline" />
    <path
       d="m 48,16.0625 c -12.697569,-0.0728 -26.09833,5.992644 -32.162842,17.583802 -4.542905,8.402054 -3.350314,19.269182 2.629228,26.651094 2.556326,3.311224 5.811163,6.052123 9.408614,8.171354 -0.704683,4.051895 -4.038394,7.284553 -8,8.1875 -1.709623,0.736811 -1.235764,3.582156 0.65625,3.6875 7.383408,0.930788 15.021062,-1.826764 20.25,-7.09375 13.668538,2.573635 29.221692,-2.163212 37.48253,-13.751449 6.18839,-8.391022 6.18839,-20.60608 0,-28.997102 C 71.49786,20.90241 59.505987,16.028951 48,16.0625 z m 2.78125,12.875 c 4.430149,-0.04504 2.035029,6.509965 -1.458551,4.142652 -2.217841,-1.174576 -0.81069,-4.333658 1.458551,-4.142652 z m -4.1875,12.1875 c 3.520118,-0.512272 4.42274,3.331035 3.287382,5.937698 -0.887153,3.753484 -2.591449,7.408249 -2.45532,11.320027 -0.03832,1.665827 2.700327,3.125871 -0.42293,2.664407 -3.602996,0.24013 -3.761347,-3.729609 -2.805138,-6.225346 0.867517,-3.643993 2.526577,-7.180809 2.386057,-10.941511 0.366508,-1.438127 -2.608162,-2.95645 0.0099,-2.755275 z"
       inkscape:connector-curvature="0"
       id="path3860"
       style="opacity:0.07999998;fill:#000000;fill-opacity:1;stroke:none;display:inline" />
    <path
       d="m 48,17.03125 c -18.657091,0 -33.96875,12.412186 -33.96875,27.96875 0,9.6643 5.999539,18.090153 14.9375,23.09375 -0.210607,1.193173 -0.650754,2.861117 -1.75,4.5625 -1.255724,1.943576 -3.257507,3.825268 -6.75,4.8125 A 0.97638696,0.97638696 0 0 0 20.625,79.375 C 30.312034,80.427791 36.871139,75.878053 40.46875,72.25 42.897263,72.704401 45.403484,72.96875 48,72.96875 66.657091,72.96875 81.96875,60.556564 81.96875,45 81.96875,29.443436 66.657091,17.03125 48,17.03125 z m 2.78125,10.9375 c 1.009046,2.9e-5 1.795051,0.332193 2.5,1 0.713851,0.664659 0.999987,1.332864 1,2.25 -1.3e-5,0.917212 -0.286175,1.585416 -1,2.25 -0.701317,0.652113 -1.482538,0.968771 -2.5,0.96875 -1.01749,2.1e-5 -1.815162,-0.314364 -2.53125,-0.96875 -0.713844,-0.664584 -1.000006,-1.332799 -1,-2.25 -6e-6,-0.917125 0.28613,-1.585342 1,-2.25 0.71966,-0.670008 1.522176,-0.999971 2.53125,-1 z m -4.1875,12.1875 c 1.648241,2.1e-5 2.775343,0.408735 3.53125,1.09375 0.7904,0.693145 1.156237,1.50766 1.15625,2.6875 -1.7e-5,0.250172 -0.02082,0.73726 -0.09375,1.4375 -0.05536,0.664278 -0.179628,1.265401 -0.34375,1.8125 a 0.97638696,0.97638696 0 0 0 0,0.03125 l -1.875,6.625 0,0.03125 c -0.160763,0.566898 -0.313279,1.207453 -0.4375,1.90625 -0.126428,0.711071 -0.187515,1.246439 -0.1875,1.71875 -1.3e-5,1.029311 0.193922,1.961943 0.9375,2.5625 0.712856,0.575794 1.61298,0.6875 2.6875,0.6875 0.333083,0 0.722473,-0.09556 1.09375,-0.15625 -1.024291,0.39168 -2.052955,0.774303 -2.71875,1 a 0.97638696,0.97638696 0 0 0 0,0.03125 c -0.765588,0.272498 -1.705391,0.40625 -2.8125,0.40625 -1.655182,0 -2.828203,-0.388158 -3.625,-1.0625 -0.01202,-0.01074 -0.01943,-0.02047 -0.03125,-0.03125 -0.7942,-0.724199 -1.156252,-1.53607 -1.15625,-2.65625 -3e-6,-0.473766 0.05306,-0.982126 0.125,-1.5 0.07294,-0.53972 0.160446,-1.138563 0.3125,-1.78125 0.0026,-0.01094 -0.0026,-0.02028 0,-0.03125 l 1.875,-6.625 c 0.174232,-0.665259 0.327346,-1.292773 0.4375,-1.875 0.131212,-0.623266 0.187494,-1.187234 0.1875,-1.75 -6e-6,-0.991197 -0.167895,-1.883374 -0.8125,-2.5 -0.654895,-0.626377 -1.568235,-0.781227 -2.6875,-0.78125 -0.336231,1.4e-5 -0.648564,0.09634 -0.96875,0.15625 0.855904,-0.325331 1.706587,-0.659634 2.5,-0.90625 a 0.97638696,0.97638696 0 0 0 0.03125,0 c 1.055534,-0.342316 1.996613,-0.53123 2.875,-0.53125 z"
       id="path3856"
       style="opacity:0.12000002;fill:#000000;fill-opacity:1;stroke:none;display:inline" />
    <path
       d="m 48,18 c -18.225397,0 -33,12.088312 -33,27 0,9.498438 5.99976,17.843462 15.0625,22.65625 -0.344625,2.508754 -1.914014,8.649817 -9.34375,10.75 9.622915,1.045823 16.013601,-3.646306 19.40625,-7.1875 C 42.648507,71.724251 45.286067,72 48,72 66.225397,72 81,59.911688 81,45 81,30.088312 66.225397,18 48,18 z m 2.78125,9 c 1.234272,3.5e-5 2.287664,0.427178 3.15625,1.25 0.883793,0.82289 1.312484,1.810687 1.3125,2.96875 -1.6e-5,1.158126 -0.428707,2.145922 -1.3125,2.96875 -0.868586,0.807646 -1.921978,1.218776 -3.15625,1.21875 -1.234296,2.6e-5 -2.303701,-0.411104 -3.1875,-1.21875 -0.883818,-0.822828 -1.312508,-1.810624 -1.3125,-2.96875 -8e-6,-1.158063 0.428682,-2.14586 1.3125,-2.96875 0.883799,-0.822822 1.953204,-1.249965 3.1875,-1.25 z m -4.1875,12.1875 c 1.813322,2.3e-5 3.21225,0.459962 4.1875,1.34375 0.990463,0.868591 1.468735,2.004366 1.46875,3.40625 -2e-5,0.289543 -0.01757,0.799839 -0.09375,1.53125 -0.06096,0.731444 -0.192156,1.390491 -0.375,2 l -1.875,6.65625 c -0.152392,0.533338 -0.284356,1.126791 -0.40625,1.8125 -0.12192,0.685719 -0.187511,1.212028 -0.1875,1.5625 -1.1e-5,0.883819 0.197549,1.492505 0.59375,1.8125 0.396179,0.320005 1.087249,0.46875 2.0625,0.46875 0.457129,0 0.983438,-0.06635 1.5625,-0.21875 0.579032,-0.167624 0.990935,-0.315585 1.25,-0.4375 l -0.5,2.0625 c -1.508586,0.594281 -2.725966,1.038988 -3.625,1.34375 C 49.757191,62.851255 48.719812,63 47.53125,63 45.702672,63 44.270947,62.57131 43.25,61.6875 c -1.005718,-0.899043 -1.500003,-2.034821 -1.5,-3.40625 -3e-6,-0.533328 0.0488,-1.076419 0.125,-1.625 0.07619,-0.563795 0.176128,-1.205288 0.34375,-1.90625 l 1.875,-6.65625 c 0.167613,-0.639985 0.299578,-1.248675 0.40625,-1.8125 0.1219,-0.579031 0.187495,-1.090102 0.1875,-1.5625 -5e-6,-0.853315 -0.18078,-1.445992 -0.53125,-1.78125 -0.350481,-0.335219 -1.009529,-0.53123 -2,-0.53125 -0.487622,2e-5 -0.981907,0.09765 -1.5,0.25 -0.502858,0.152401 -0.946787,0.300377 -1.3125,0.4375 l 0.5,-2.0625 c 1.234283,-0.502836 2.434878,-0.930752 3.5625,-1.28125 1.127613,-0.365692 2.181778,-0.562477 3.1875,-0.5625 z"
       inkscape:connector-curvature="0"
       id="path3850"
       style="opacity:0.3;fill:#000000;fill-opacity:1;stroke:none;display:inline" />
    <path
       d="m 48,17 c -18.225397,0 -33,12.088312 -33,27 0,9.498438 5.99976,17.843462 15.0625,22.65625 -0.344625,2.508754 -1.914014,8.649817 -9.34375,10.75 9.622915,1.045823 16.013601,-3.646306 19.40625,-7.1875 C 42.648507,70.724251 45.286067,71 48,71 66.225397,71 81,58.911688 81,44 81,29.088312 66.225397,17 48,17 z m 2.78125,9 c 1.234272,3.5e-5 2.287664,0.427178 3.15625,1.25 0.883793,0.82289 1.312484,1.810687 1.3125,2.96875 -1.6e-5,1.158126 -0.428707,2.145922 -1.3125,2.96875 -0.868586,0.807646 -1.921978,1.218776 -3.15625,1.21875 -1.234296,2.6e-5 -2.303701,-0.411104 -3.1875,-1.21875 -0.883818,-0.822828 -1.312508,-1.810624 -1.3125,-2.96875 -8e-6,-1.158063 0.428682,-2.14586 1.3125,-2.96875 0.883799,-0.822822 1.953204,-1.249965 3.1875,-1.25 z m -4.1875,12.1875 c 1.813322,2.3e-5 3.21225,0.459962 4.1875,1.34375 0.990463,0.868591 1.468735,2.004366 1.46875,3.40625 -2e-5,0.289543 -0.01757,0.799839 -0.09375,1.53125 -0.06096,0.731444 -0.192156,1.390491 -0.375,2 l -1.875,6.65625 c -0.152392,0.533338 -0.284356,1.126791 -0.40625,1.8125 -0.12192,0.685719 -0.187511,1.212028 -0.1875,1.5625 -1.1e-5,0.883819 0.197549,1.492505 0.59375,1.8125 0.396179,0.320005 1.087249,0.46875 2.0625,0.46875 0.457129,0 0.983438,-0.06635 1.5625,-0.21875 0.579032,-0.167624 0.990935,-0.315585 1.25,-0.4375 l -0.5,2.0625 c -1.508586,0.594281 -2.725966,1.038988 -3.625,1.34375 C 49.757191,61.851255 48.719812,62 47.53125,62 45.702672,62 44.270947,61.57131 43.25,60.6875 c -1.005718,-0.899043 -1.500003,-2.034821 -1.5,-3.40625 -3e-6,-0.533328 0.0488,-1.076419 0.125,-1.625 0.07619,-0.563795 0.176128,-1.205288 0.34375,-1.90625 l 1.875,-6.65625 c 0.167613,-0.639985 0.299578,-1.248675 0.40625,-1.8125 0.1219,-0.579031 0.187495,-1.090102 0.1875,-1.5625 -5e-6,-0.853315 -0.18078,-1.445992 -0.53125,-1.78125 -0.350481,-0.335219 -1.009529,-0.53123 -2,-0.53125 -0.487622,2e-5 -0.981907,0.09765 -1.5,0.25 -0.502858,0.152401 -0.946787,0.300377 -1.3125,0.4375 l 0.5,-2.0625 c 1.234283,-0.502836 2.434878,-0.930752 3.5625,-1.28125 1.127613,-0.365692 2.181778,-0.562477 3.1875,-0.5625 z"
       inkscape:connector-curvature="0"
       id="path3620"
       style="fill:url(#linearGradient3114);fill-opacity:1;stroke:none;display:inline" />
    <path
       d="m 48,17 c -18.225397,0 -33,12.088312 -33,27 0,0.208408 0.0255,0.417728 0.03125,0.625 C 15.915093,30.359014 30.344147,19 48,19 65.811103,19 80.318034,30.557401 80.96875,45 80.983886,44.664059 81,44.338968 81,44 81,29.088312 66.225397,17 48,17 z m -1.59375,14.21875 c -0.07734,0.315923 -0.125002,0.653784 -0.125,1 -8e-6,1.158126 0.428682,2.145922 1.3125,2.96875 0.883799,0.807646 1.953204,1.218776 3.1875,1.21875 1.234272,2.6e-5 2.287664,-0.411104 3.15625,-1.21875 0.883793,-0.822828 1.312484,-1.810624 1.3125,-2.96875 -5e-6,-0.346216 -0.04766,-0.684077 -0.125,-1 -0.181353,0.74083 -0.567927,1.391916 -1.1875,1.96875 -0.868586,0.807646 -1.921978,1.218776 -3.15625,1.21875 -1.234296,2.6e-5 -2.303701,-0.411104 -3.1875,-1.21875 -0.619591,-0.576834 -1.006154,-1.22792 -1.1875,-1.96875 z m -4.25,10.1875 c -0.31552,1.3e-5 -0.643006,0.05487 -0.96875,0.125 -0.44524,0.165332 -0.887309,0.31405 -1.34375,0.5 l -0.5,2.0625 c 0.365713,-0.137123 0.809642,-0.285099 1.3125,-0.4375 0.518093,-0.15235 1.012378,-0.24998 1.5,-0.25 0.990471,2e-5 1.649519,0.196031 2,0.53125 0.197387,0.18882 0.349747,0.459797 0.4375,0.8125 0.05642,-0.361246 0.09375,-0.713815 0.09375,-1.03125 -5e-6,-0.853315 -0.18078,-1.445992 -0.53125,-1.78125 -0.350481,-0.335219 -1.009529,-0.53123 -2,-0.53125 z m 10.03125,2.75 c -0.01103,0.131118 -0.01567,0.162879 -0.03125,0.3125 -0.06096,0.731444 -0.192156,1.390491 -0.375,2 l -1.875,6.65625 c -0.152392,0.533338 -0.284356,1.126791 -0.40625,1.8125 -0.12192,0.685719 -0.187511,1.212028 -0.1875,1.5625 -5e-6,0.373673 0.05429,0.694464 0.125,0.96875 0.02578,-0.172785 0.02686,-0.330815 0.0625,-0.53125 0.121894,-0.685709 0.253858,-1.279162 0.40625,-1.8125 l 1.875,-6.65625 c 0.182844,-0.609509 0.31404,-1.268556 0.375,-2 0.07618,-0.731411 0.09373,-1.241707 0.09375,-1.53125 -3e-6,-0.273456 -0.02585,-0.528053 -0.0625,-0.78125 z M 41.8125,58.0625 c -0.04575,0.408569 -0.0625,0.819338 -0.0625,1.21875 -3e-6,1.371429 0.494282,2.507207 1.5,3.40625 1.020947,0.88381 2.452672,1.3125 4.28125,1.3125 1.188562,0 2.225941,-0.148745 3.125,-0.46875 0.899034,-0.304762 2.116414,-0.749469 3.625,-1.34375 l 0.5,-2.0625 c -0.259065,0.121915 -0.670968,0.269876 -1.25,0.4375 -0.188753,0.04968 -0.354276,0.06168 -0.53125,0.09375 -0.841033,0.317027 -1.761977,0.677786 -2.34375,0.875 C 49.757191,61.851255 48.719812,62 47.53125,62 45.702672,62 44.270947,61.57131 43.25,60.6875 42.446722,59.969424 41.971987,59.082069 41.8125,58.0625 z m -12.125,10.375 c -0.788875,2.925833 -2.942108,7.265183 -8.96875,8.96875 1.438598,0.156348 2.798846,0.170865 4.09375,0.09375 3.95088,-2.735394 4.981412,-6.888521 5.25,-8.84375 -0.129197,-0.06861 -0.247056,-0.148711 -0.375,-0.21875 z"
       inkscape:connector-curvature="0"
       id="path3666"
       style="opacity:0.4;fill:url(#linearGradient3746);fill-opacity:1;stroke:none;display:inline" />
    <path
       d="m 48,17 c -18.225397,0 -33,12.088312 -33,27 0,9.498438 5.99976,17.843462 15.0625,22.65625 -0.344625,2.508754 -1.914014,8.649817 -9.34375,10.75 9.622915,1.045823 16.013601,-3.646306 19.40625,-7.1875 C 42.648507,70.724251 45.286067,71 48,71 66.225397,71 81,58.911688 81,44 81,29.088312 66.225397,17 48,17 z m 0,0.96875 c 17.799232,0 32.03125,11.756179 32.03125,26.03125 0,14.275071 -14.232018,26.03125 -32.03125,26.03125 -2.648649,0 -5.224623,-0.256644 -7.6875,-0.75 a 0.96388215,0.96388215 0 0 0 -0.875,0.28125 c -2.699845,2.818056 -7.441144,6.197137 -14.1875,6.78125 1.567191,-1.069168 2.757564,-2.330774 3.59375,-3.625 1.471172,-2.277041 2.002773,-4.59275 2.1875,-5.9375 A 0.96388215,0.96388215 0 0 0 30.5,65.8125 C 21.689226,61.133519 15.96875,53.092583 15.96875,44 15.96875,29.724929 30.200768,17.96875 48,17.96875 z m 2.78125,7.0625 c -1.456633,4.1e-5 -2.797914,0.526321 -3.84375,1.5 -1.051589,0.979095 -1.62501,2.291585 -1.625,3.6875 -1e-5,1.395965 0.573385,2.708454 1.625,3.6875 1.049362,0.958943 2.395425,1.468781 3.84375,1.46875 1.448305,3.1e-5 2.778787,-0.507563 3.8125,-1.46875 1.051585,-0.979045 1.624981,-2.291545 1.625,-3.6875 -1.9e-5,-1.38741 -0.585693,-2.67925 -1.625,-3.65625 -0.0065,-0.0062 -0.02472,0.0061 -0.03125,0 -1.027406,-0.964188 -2.333839,-1.531209 -3.78125,-1.53125 z m 0,0.96875 c 1.234272,3.5e-5 2.287664,0.427178 3.15625,1.25 0.883793,0.82289 1.312484,1.810687 1.3125,2.96875 -1.6e-5,1.158126 -0.428707,2.145922 -1.3125,2.96875 -0.868586,0.807646 -1.921978,1.218776 -3.15625,1.21875 -1.234296,2.6e-5 -2.303701,-0.411104 -3.1875,-1.21875 -0.883818,-0.822828 -1.312508,-1.810624 -1.3125,-2.96875 -8e-6,-1.158063 0.428682,-2.14586 1.3125,-2.96875 0.883799,-0.822822 1.953204,-1.249965 3.1875,-1.25 z m -4.1875,11.21875 c -1.121636,2.6e-5 -2.28111,0.242483 -3.46875,0.625 -0.01037,0.0033 -0.02088,-0.0034 -0.03125,0 -1.14706,0.357386 -2.375003,0.772012 -3.625,1.28125 a 0.96388215,0.96388215 0 0 0 -0.5625,0.6875 l -0.5,2.0625 A 0.96388215,0.96388215 0 0 0 39.6875,43 c 0.339068,-0.127133 0.762188,-0.258409 1.25,-0.40625 0.465836,-0.136983 0.859745,-0.218735 1.21875,-0.21875 0.863326,1.7e-5 1.293784,0.20221 1.34375,0.25 0.0601,0.05749 0.218746,0.376551 0.21875,1.09375 -4e-6,0.383187 -0.04354,0.839637 -0.15625,1.375 -0.103235,0.545659 -0.245171,1.134965 -0.40625,1.75 L 41.28125,53.5 a 0.96388215,0.96388215 0 0 0 0,0.03125 c -0.178403,0.746046 -0.296824,1.421511 -0.375,2 -0.08041,0.578895 -0.125003,1.157873 -0.125,1.75 -4e-6,1.603006 0.623071,3.061732 1.8125,4.125 a 0.96388215,0.96388215 0 0 0 0.03125,0 c 1.241455,1.074699 2.927039,1.5625 4.90625,1.5625 1.268972,0 2.406679,-0.164347 3.4375,-0.53125 0.918479,-0.311354 2.135706,-0.744758 3.65625,-1.34375 a 0.96388215,0.96388215 0 0 0 0.59375,-0.6875 l 0.5,-2.0625 A 0.96388215,0.96388215 0 0 0 54.375,57.25 c -0.170406,0.08019 -0.564981,0.220411 -1.09375,0.375 -0.01356,0.004 -0.01748,-0.004 -0.03125,0 -0.492074,0.126611 -0.92587,0.1875 -1.28125,0.1875 -0.877253,0 -1.385192,-0.182508 -1.46875,-0.25 -0.05327,-0.04303 -0.218759,-0.32231 -0.21875,-1.0625 -7e-6,-0.230193 0.03878,-0.745558 0.15625,-1.40625 0.117686,-0.662037 0.265365,-1.225684 0.40625,-1.71875 l 1.875,-6.625 0,-0.03125 c 0.196994,-0.663404 0.340682,-1.369517 0.40625,-2.15625 0.07939,-0.762182 0.09373,-1.29659 0.09375,-1.625 -1.7e-5,-1.612112 -0.637485,-3.053043 -1.8125,-4.09375 l 0,-0.03125 c -1.190393,-1.06765 -2.847285,-1.593725 -4.8125,-1.59375 z m 0,0.96875 c 1.813322,2.3e-5 3.21225,0.459962 4.1875,1.34375 0.990463,0.868591 1.468735,2.004366 1.46875,3.40625 -2e-5,0.289543 -0.01757,0.799839 -0.09375,1.53125 -0.06096,0.731444 -0.192156,1.390491 -0.375,2 l -1.875,6.65625 c -0.152392,0.533338 -0.284356,1.126791 -0.40625,1.8125 -0.12192,0.685719 -0.187511,1.212028 -0.1875,1.5625 -1.1e-5,0.883819 0.197549,1.492505 0.59375,1.8125 0.396179,0.320005 1.087249,0.46875 2.0625,0.46875 0.457129,0 0.983438,-0.06635 1.5625,-0.21875 0.579032,-0.167624 0.990935,-0.315585 1.25,-0.4375 l -0.5,2.0625 c -1.508586,0.594281 -2.725966,1.038988 -3.625,1.34375 C 49.757191,61.851255 48.719812,62 47.53125,62 45.702672,62 44.270947,61.57131 43.25,60.6875 c -1.005718,-0.899043 -1.500003,-2.034821 -1.5,-3.40625 -3e-6,-0.533328 0.0488,-1.076419 0.125,-1.625 0.07619,-0.563795 0.176128,-1.205288 0.34375,-1.90625 l 1.875,-6.65625 c 0.167613,-0.639985 0.299578,-1.248675 0.40625,-1.8125 0.1219,-0.579031 0.187495,-1.090102 0.1875,-1.5625 -5e-6,-0.853315 -0.18078,-1.445992 -0.53125,-1.78125 -0.350481,-0.335219 -1.009529,-0.53123 -2,-0.53125 -0.487622,2e-5 -0.981907,0.09765 -1.5,0.25 -0.502858,0.152401 -0.946787,0.300377 -1.3125,0.4375 l 0.5,-2.0625 c 1.234283,-0.502836 2.434878,-0.930752 3.5625,-1.28125 1.127613,-0.365692 2.181778,-0.562477 3.1875,-0.5625 z"
       inkscape:connector-curvature="0"
       id="path3868"
       style="fill:url(#linearGradient3881);fill-opacity:1;stroke:none;display:inline" />
  </g>
</svg>
