<?xml version="1.0" encoding="UTF-8" standalone="no"?>
<!-- Created with Inkscape (http://www.inkscape.org/) -->

<svg
   xmlns:dc="http://purl.org/dc/elements/1.1/"
   xmlns:cc="http://creativecommons.org/ns#"
   xmlns:rdf="http://www.w3.org/1999/02/22-rdf-syntax-ns#"
   xmlns:svg="http://www.w3.org/2000/svg"
   xmlns="http://www.w3.org/2000/svg"
   xmlns:xlink="http://www.w3.org/1999/xlink"
   xmlns:inkscape="http://www.inkscape.org/namespaces/inkscape"
   version="1.0"
   width="96"
   height="96"
   id="svg2408">
  <defs
     id="defs2410">
    <linearGradient
       id="linearGradient4384">
      <stop
         id="stop4386"
         style="stop-color:#ffffff;stop-opacity:1"
         offset="0" />
      <stop
         id="stop4388"
         style="stop-color:#ffffff;stop-opacity:0"
         offset="1" />
    </linearGradient>
    <linearGradient
       id="linearGradient4367">
      <stop
         id="stop4369"
         style="stop-color:#ffffff;stop-opacity:0.71755725"
         offset="0" />
      <stop
         id="stop4371"
         style="stop-color:#ffffff;stop-opacity:1"
         offset="1" />
    </linearGradient>
    <linearGradient
       x1="45.447727"
       y1="92.539597"
       x2="45.447727"
       y2="7.0165396"
       id="ButtonShadow"
       gradientUnits="userSpaceOnUse"
       gradientTransform="scale(1.0058652,0.994169)">
      <stop
         id="stop3750"
         style="stop-color:#000000;stop-opacity:1"
         offset="0" />
      <stop
         id="stop3752"
         style="stop-color:#000000;stop-opacity:0.58823532"
         offset="1" />
    </linearGradient>
    <linearGradient
       id="linearGradient3737">
      <stop
         id="stop3739"
         style="stop-color:#ffffff;stop-opacity:1"
         offset="0" />
      <stop
         id="stop3741"
         style="stop-color:#ffffff;stop-opacity:0"
         offset="1" />
    </linearGradient>
    <filter
       color-interpolation-filters="sRGB"
       id="filter3174">
      <feGaussianBlur
         id="feGaussianBlur3176"
         stdDeviation="1.71" />
    </filter>
    <filter
       x="-0.192"
       y="-0.192"
       width="1.3839999"
       height="1.3839999"
       color-interpolation-filters="sRGB"
       id="filter3794">
      <feGaussianBlur
         id="feGaussianBlur3796"
         stdDeviation="5.28" />
    </filter>
    <linearGradient
       x1="48"
       y1="20.220806"
       x2="48"
       y2="138.66119"
       id="linearGradient3613"
       xlink:href="#linearGradient3737"
       gradientUnits="userSpaceOnUse" />
    <linearGradient
       x1="48"
       y1="90"
       x2="48"
       y2="5.9877172"
       id="linearGradient3617"
       xlink:href="#linearGradient2881"
       gradientUnits="userSpaceOnUse" />
    <linearGradient
       x1="45.447727"
       y1="92.539597"
       x2="45.447727"
       y2="7.0165396"
       id="ButtonShadow-0"
       gradientUnits="userSpaceOnUse"
       gradientTransform="matrix(1.0058652,0,0,0.994169,100,0)">
      <stop
         id="stop3750-8"
         style="stop-color:#000000;stop-opacity:1"
         offset="0" />
      <stop
         id="stop3752-5"
         style="stop-color:#000000;stop-opacity:0.58823532"
         offset="1" />
    </linearGradient>
    <linearGradient
       x1="32.251034"
       y1="6.1317081"
       x2="32.251034"
       y2="90.238609"
       id="linearGradient3780"
       xlink:href="#ButtonShadow-0"
       gradientUnits="userSpaceOnUse"
       gradientTransform="matrix(1.0238095,0,0,1.0119048,-1.1428571,-98.071429)" />
    <linearGradient
       x1="32.251034"
       y1="6.1317081"
       x2="32.251034"
       y2="90.238609"
       id="linearGradient3772"
       xlink:href="#ButtonShadow-0"
       gradientUnits="userSpaceOnUse"
       gradientTransform="matrix(1.0238095,0,0,1.0119048,-1.1428571,-98.071429)" />
    <linearGradient
       x1="32.251034"
       y1="6.1317081"
       x2="32.251034"
       y2="90.238609"
       id="linearGradient3725"
       xlink:href="#ButtonShadow-0"
       gradientUnits="userSpaceOnUse"
       gradientTransform="matrix(1.0238095,0,0,1.0119048,-1.1428571,-98.071429)" />
    <linearGradient
       x1="32.251034"
       y1="6.1317081"
       x2="32.251034"
       y2="90.238609"
       id="linearGradient3721"
       xlink:href="#ButtonShadow-0"
       gradientUnits="userSpaceOnUse"
       gradientTransform="translate(0,-97)" />
    <linearGradient
       x1="32.251034"
       y1="6.1317081"
       x2="32.251034"
       y2="90.238609"
       id="linearGradient3026"
       xlink:href="#ButtonShadow-0"
       gradientUnits="userSpaceOnUse"
       gradientTransform="matrix(1.0238095,0,0,1.0119048,-1.1428571,-98.071429)" />
    <clipPath
       id="clipPath4355">
      <rect
         width="84"
         height="80"
         rx="6"
         ry="6"
         x="6"
         y="6"
         id="rect4357"
         style="fill:#ffffff;fill-opacity:1;fill-rule:nonzero;stroke:none" />
    </clipPath>
    <radialGradient
       cx="48"
       cy="87.792389"
       r="42"
       fx="48"
       fy="87.792389"
       id="radialGradient4375"
       xlink:href="#linearGradient4367"
       gradientUnits="userSpaceOnUse"
       gradientTransform="matrix(1,-6.7114942e-8,8.4282233e-8,1.2557894,109.99999,-24.505592)" />
    <linearGradient
       x1="48"
       y1="88"
       x2="48"
       y2="-40"
       id="linearGradient4390"
       xlink:href="#linearGradient4384"
       gradientUnits="userSpaceOnUse"
       gradientTransform="matrix(1,0,0,-1,0,92)" />
    <linearGradient
       x1="48"
       y1="82"
       x2="112.12357"
       y2="82.454597"
       id="linearGradient4429"
       xlink:href="#linearGradient4384"
       gradientUnits="userSpaceOnUse"
       spreadMethod="reflect" />
    <linearGradient
       id="linearGradient3843">
      <stop
         id="stop3845"
         style="stop-color:#523823;stop-opacity:1"
         offset="0" />
      <stop
         id="stop3847"
         style="stop-color:#79563a;stop-opacity:1"
         offset="0.11780351" />
      <stop
         id="stop3849"
         style="stop-color:#875c38;stop-opacity:1"
         offset="0.23809524" />
      <stop
         id="stop3851"
         style="stop-color:#a66e40;stop-opacity:1"
         offset="1" />
    </linearGradient>
    <linearGradient
       x1="8"
       y1="1033.3622"
       x2="50"
       y2="1033.3622"
       id="linearGradient3870"
       xlink:href="#linearGradient3843"
       gradientUnits="userSpaceOnUse"
       gradientTransform="translate(-2,-956.3622)"
       spreadMethod="reflect" />
    <linearGradient
       id="linearGradient3731">
      <stop
         id="stop3733"
         style="stop-color:#dcdcdc;stop-opacity:1"
         offset="0" />
      <stop
         id="stop3757"
         style="stop-color:#ebebeb;stop-opacity:1"
         offset="0.30654153" />
      <stop
         id="stop3737"
         style="stop-color:#ffffff;stop-opacity:1"
         offset="0.70706075" />
      <stop
         id="stop3759"
         style="stop-color:#fafafa;stop-opacity:1"
         offset="0.84501493" />
      <stop
         id="stop3735"
         style="stop-color:#f0f0f0;stop-opacity:1"
         offset="1" />
    </linearGradient>
    <linearGradient
       x1="48.082497"
       y1="75.561722"
       x2="46.654823"
       y2="16.972879"
       id="linearGradient3100"
       xlink:href="#linearGradient3731"
       gradientUnits="userSpaceOnUse" />
    <linearGradient
       x1="42"
       y1="16"
       x2="42"
       y2="103"
       id="linearGradient3855"
       xlink:href="#linearGradient3737"
       gradientUnits="userSpaceOnUse" />
    <linearGradient
       id="linearGradient2881">
      <stop
         id="stop2883"
         style="stop-color:#df880b;stop-opacity:1"
         offset="0" />
      <stop
         id="stop2885"
         style="stop-color:#f7c15a;stop-opacity:1"
         offset="1" />
    </linearGradient>
  </defs>
  <metadata
     id="metadata2413">
    <rdf:RDF>
      <cc:Work
         rdf:about="">
        <dc:format>image/svg+xml</dc:format>
        <dc:type
           rdf:resource="http://purl.org/dc/dcmitype/StillImage" />
        <dc:title />
      </cc:Work>
    </rdf:RDF>
  </metadata>
  <g
     id="layer2"
     style="display:none">
    <rect
       width="86"
       height="85"
       rx="6"
       ry="6"
       x="5"
       y="7"
       id="rect3745"
       style="opacity:0.9;fill:url(#ButtonShadow);fill-opacity:1;fill-rule:nonzero;stroke:none;filter:url(#filter3174)" />
  </g>
  <g
     id="layer3"
     style="display:inline">
    <path
       d="m 12,-95.03125 c -5.5110903,0 -10.03125,4.52016 -10.03125,10.03125 l 0,71 c 0,5.5110902 4.5201598,10.03125 10.03125,10.03125 l 72,0 c 5.51109,0 10.03125,-4.5201597 10.03125,-10.03125 l 0,-71 c 0,-5.51109 -4.52016,-10.03125 -10.03125,-10.03125 l -72,0 z"
       transform="scale(1,-1)"
       id="path3786"
       style="opacity:0.07999998;fill:url(#linearGradient3026);fill-opacity:1;fill-rule:nonzero;stroke:none;display:inline" />
    <path
       d="m 12,-94.03125 c -4.971633,0 -9.03125,4.059617 -9.03125,9.03125 l 0,71 c 0,4.9716329 4.0596171,9.03125 9.03125,9.03125 l 72,0 c 4.971633,0 9.03125,-4.059617 9.03125,-9.03125 l 0,-71 c 0,-4.971633 -4.059617,-9.03125 -9.03125,-9.03125 l -72,0 z"
       transform="scale(1,-1)"
       id="path3778"
       style="opacity:0.1;fill:url(#linearGradient3780);fill-opacity:1;fill-rule:nonzero;stroke:none;display:inline" />
    <path
       d="m 12,-93 c -4.4091333,0 -8,3.590867 -8,8 l 0,71 c 0,4.4091333 3.5908667,8 8,8 l 72,0 c 4.409133,0 8,-3.5908667 8,-8 l 0,-71 c 0,-4.409133 -3.590867,-8 -8,-8 l -72,0 z"
       transform="scale(1,-1)"
       id="path3770"
       style="opacity:0.2;fill:url(#linearGradient3772);fill-opacity:1;fill-rule:nonzero;stroke:none;display:inline" />
    <rect
       width="86"
       height="85"
       rx="7"
       ry="7"
       x="5"
       y="-92"
       transform="scale(1,-1)"
       id="rect3723"
       style="opacity:0.3;fill:url(#linearGradient3725);fill-opacity:1;fill-rule:nonzero;stroke:none;display:inline" />
    <rect
       width="84"
       height="84"
       rx="6"
       ry="6"
       x="6"
       y="-91"
       transform="scale(1,-1)"
       id="rect3716"
       style="opacity:0.45;fill:url(#linearGradient3721);fill-opacity:1;fill-rule:nonzero;stroke:none;display:inline" />
  </g>
  <g
     id="layer4">
    <rect
       width="84"
       height="26.000017"
       rx="6"
       ry="6"
       x="6"
       y="64"
       id="rect2841"
       style="color:#000000;fill:url(#linearGradient3870);fill-opacity:1;fill-rule:nonzero;stroke:none;stroke-width:1.5;marker:none;visibility:visible;display:inline;overflow:visible;enable-background:accumulate" />
    <path
       d="m 6,82 0,2 c 0,3.324 2.676,6 6,6 l 72,0 c 3.324,0 6,-2.676 6,-6 l 0,-2 c 0,3.324 -2.676,6 -6,6 L 12,88 C 8.676,88 6,85.324 6,82 z"
       inkscape:connector-curvature="0"
       id="rect4345"
       style="opacity:0.1;color:#000000;fill:#000000;fill-opacity:1;fill-rule:nonzero;stroke:none;stroke-width:1.5;marker:none;visibility:visible;display:inline;overflow:visible;enable-background:accumulate" />
    <path
       d="m 6,83 0,1 c 0,3.324 2.676,6 6,6 l 72,0 c 3.324,0 6,-2.676 6,-6 l 0,-1 c 0,3.324 -2.676,6 -6,6 L 12,89 C 8.676,89 6,86.324 6,83 z"
       inkscape:connector-curvature="0"
       id="rect4336"
       style="opacity:0.1;color:#000000;fill:#000000;fill-opacity:1;fill-rule:nonzero;stroke:none;stroke-width:1.5;marker:none;visibility:visible;display:inline;overflow:visible;enable-background:accumulate" />
    <path
       d="m 6,80 0,1 c 0,3.324 2.676,6 6,6 l 72,0 c 3.324,0 6,-2.676 6,-6 l 0,-1 c 0,3.324 -2.676,6 -6,6 L 12,86 C 8.676,86 6,83.324 6,80 z"
       inkscape:connector-curvature="0"
       id="path4412"
       style="opacity:0.2;fill:#000000;fill-opacity:1;fill-rule:nonzero;stroke:none" />
  </g>
  <g
     id="layer1">
    <rect
       width="84"
       height="80"
       rx="6"
       ry="6"
       x="6"
       y="6"
       id="rect2419"
       style="fill:url(#linearGradient3617);fill-opacity:1;fill-rule:nonzero;stroke:none" />
    <path
       d="M 120.78125,6.125 C 118.04223,6.6826484 116,9.0915 116,12 l 0,68 c 0,3.324 2.676,6 6,6 l 72,0 c 3.324,0 6,-2.676 6,-6 l 0,-68 c 0,-2.9085 -2.04223,-5.3173516 -4.78125,-5.875 2.20512,0.5362071 3.8125,2.4908437 3.8125,4.875 l 0,68 c 0,2.80489 -2.22636,5.03125 -5.03125,5.03125 l -72,0 c -2.80489,0 -5.03125,-2.22636 -5.03125,-5.03125 l 0,-68 c 0,-2.3841563 1.60738,-4.3387929 3.8125,-4.875 z"
       inkscape:connector-curvature="0"
       id="rect4359"
       style="opacity:0.2;fill:url(#radialGradient4375);fill-opacity:1;fill-rule:nonzero;stroke:none" />
    <path
       d="M 12,86 C 8.676,86 6,83.324 6,80 L 6,12 C 6,8.676 8.676,6 12,6 l 72,0 c 3.324,0 6,2.676 6,6 l 0,68 c 0,3.324 -2.676,6 -6,6 z m 0,-0.96875 72,0 c 2.80489,0 5.03125,-2.22636 5.03125,-5.03125 l 0,-68 C 89.03125,9.19511 86.80489,6.96875 84,6.96875 l -72,0 C 9.1951102,6.96875 6.96875,9.19511 6.96875,12 l 0,68 c 0,2.80489 2.2263602,5.03125 5.03125,5.03125 z"
       inkscape:connector-curvature="0"
       id="rect4377"
       style="opacity:0.3;fill:url(#linearGradient4390);fill-opacity:1;fill-rule:nonzero;stroke:none" />
    <path
       d="m 6,78 0,2 c 0,3.324 2.676,6 6,6 l 72,0 c 3.324,0 6,-2.676 6,-6 l 0,-2 c 0,3.324 -2.676,6 -6,6 L 12,84 C 8.676,84 6,81.324 6,78 z"
       inkscape:connector-curvature="0"
       id="rect4414"
       style="opacity:0.1;fill:url(#linearGradient4429);fill-opacity:1;fill-rule:nonzero;stroke:none" />
  </g>
  <g
     id="layer5"
     style="display:inline">
    <rect
       width="66"
       height="62"
       rx="12"
       ry="12"
       x="15"
       y="15"
       clip-path="url(#clipPath4355)"
       id="rect3171"
       style="opacity:0.1;fill:url(#linearGradient3613);fill-opacity:1;fill-rule:nonzero;stroke:#ffffff;stroke-width:0.5;stroke-linecap:round;stroke-linejoin:miter;stroke-miterlimit:4;stroke-opacity:1;stroke-dasharray:none;stroke-dashoffset:0;filter:url(#filter3794)" />
  </g>
  <g
     id="layer6">
    <path
       d="m 48,15 c -13.034726,-0.07377 -26.794861,6.118709 -33.09375,18.125 -0.0041,0.0079 0.0041,0.02336 0,0.03125 -4.74558,8.795897 -3.522546,20.066338 2.71875,27.78125 0.009,0.01171 0.02219,0.01955 0.03125,0.03125 2.468614,3.185309 5.569822,5.830824 8.96875,7.9375 -0.856416,3.356409 -3.757116,5.966877 -7.15625,6.78125 A 1.0342367,1.0342367 0 0 0 19.25,75.75 c -2.55533,1.290218 -1.645568,5.418996 1.15625,5.625 l 0,0.03125 c 0.02091,0.0026 0.04159,-0.0025 0.0625,0 7.529706,0.916073 15.192614,-1.860151 20.625,-7.09375 13.909466,2.513746 29.551262,-2.387302 38,-14.1875 l 0.03125,0 c 0.0047,-0.0065 -0.0047,-0.02472 0,-0.03125 6.459627,-8.774456 6.459627,-21.413044 0,-30.1875 -0.0047,-0.0066 0.0047,-0.02463 0,-0.03125 l -0.03125,0 C 72.080922,19.958671 59.797855,14.966045 48,15 z m -0.0625,18 a 1.0342367,1.0342367 0 0 0 0.15625,0 c 0.39522,-0.03154 0.519947,0.03849 0.59375,0.09375 0.0738,0.05526 0.145883,0.156124 0.21875,0.40625 0.145733,0.500252 0.120937,1.436503 0.09375,2.25 a 1.0342367,1.0342367 0 0 0 0,0.03125 c -0.05287,4.306046 0.07189,8.598371 -0.09375,12.8125 -0.466407,0.516597 -0.890246,0.542592 -1.34375,0.28125 -0.512205,-0.29517 -0.891098,-0.851205 -0.625,-1.625 A 1.0342367,1.0342367 0 0 0 47,46.90625 c 0.04277,-4.52526 -0.07109,-9.014958 0.0625,-13.46875 0.25277,-0.246324 0.552718,-0.457 0.875,-0.4375 z M 48,58 a 1.0342367,1.0342367 0 0 0 0.0625,0 c 0.422658,-0.01276 0.526256,0.10419 0.65625,0.28125 0.129994,0.17706 0.220804,0.480738 0.1875,0.8125 -0.0333,0.331762 -0.184398,0.639725 -0.34375,0.78125 -0.159352,0.141525 -0.283564,0.231102 -0.71875,0.125 a 1.0342367,1.0342367 0 0 0 -0.0625,0 c -0.701901,-0.136229 -0.807167,-0.570516 -0.75,-1.09375 C 47.088417,58.383016 47.289447,57.981153 48,58 z"
       id="path3873"
       style="opacity:0.05;fill:#000000;fill-opacity:1;stroke:none;display:inline" />
    <path
       d="M 48,16.03125 C 35.289878,15.95932 21.881783,22.038483 15.809913,33.637486 11.257616,42.050155 12.45809,52.932395 18.4487,60.321151 c 2.561381,3.315077 5.822043,6.058977 9.4263,8.178849 -0.705923,4.132207 -4.186832,7.236497 -8.15625,8.1875 -1.683276,0.849907 -1.042576,3.60076 0.8125,3.6875 7.396896,0.919893 15.044364,-1.849225 20.28125,-7.125 13.664728,2.640544 29.216763,-2.16998 37.476,-13.73942 6.196567,-8.397272 6.196567,-20.623888 0,-29.02116 C 71.515912,20.883638 59.517044,15.998103 48,16.03125 z m 0,15.9375 c 2.297256,-0.183338 2.083682,2.242924 2.03125,3.811806 -0.05427,4.420105 0.11043,8.85974 -0.08579,13.267228 -1.604008,2.294178 -4.825354,0.338076 -3.976709,-2.129729 0.044,-4.655382 -0.08959,-9.31912 0.06965,-13.969081 C 46.485175,32.332115 47.218919,31.921489 48,31.96875 z m 0.03125,25 c 2.849331,-0.08605 2.400799,4.726018 -0.4361,4.034358 -2.407779,-0.467317 -2.00977,-4.099234 0.4361,-4.034358 z"
       inkscape:connector-curvature="0"
       id="path3867"
       style="opacity:0.07999998;fill:#000000;fill-opacity:1;stroke:none;display:inline" />
    <path
       d="m 48,16.90625 c -18.710918,0 -34.09375,12.456777 -34.09375,28.09375 0,9.679776 6.021492,18.096972 14.9375,23.125 -0.213879,1.180762 -0.648261,2.811876 -1.71875,4.46875 -1.242205,1.922652 -3.253985,3.770606 -6.71875,4.75 A 1.0981318,1.0981318 0 0 0 20.59375,79.5 c 9.707736,1.055041 16.286324,-3.515904 19.90625,-7.15625 2.418047,0.448881 4.916338,0.75 7.5,0.75 C 66.710918,73.09375 82.09375,60.636973 82.09375,45 82.09375,29.363027 66.710918,16.90625 48,16.90625 z m 0,14.1875 c 0.892192,2.5e-5 1.537942,0.232473 2.09375,0.71875 A 1.0981318,1.0981318 0 0 0 50.125,31.875 c 0.536906,0.42151 0.781242,0.879881 0.78125,1.8125 l 0,14.5625 c -8e-6,0.932669 -0.23061,1.448558 -0.78125,1.90625 A 1.0981318,1.0981318 0 0 0 50.09375,50.1875 C 49.537947,50.673803 48.892169,50.906258 48,50.90625 c -0.844154,8e-6 -1.514903,-0.242875 -2.125,-0.75 C 45.324351,49.698557 45.093748,49.182664 45.09375,48.25 l 0,-14.5625 c -2e-6,-0.932614 0.244334,-1.390989 0.78125,-1.8125 a 1.0981318,1.0981318 0 0 0 0,-0.03125 c 0.610103,-0.507098 1.280822,-0.749976 2.125,-0.75 z m 0.03125,25 c 0.839356,5e-6 1.43078,0.248989 2,0.84375 a 1.0981318,1.0981318 0 0 0 0,0.03125 c 0.612706,0.608212 0.874992,1.198124 0.875,2.03125 -8e-6,0.833136 -0.262298,1.423048 -0.875,2.03125 a 1.0981318,1.0981318 0 0 0 0,0.03125 c -0.569219,0.594767 -1.160647,0.84375 -2,0.84375 -0.839369,0 -1.450329,-0.267326 -2.0625,-0.875 -0.612711,-0.608202 -0.875002,-1.198122 -0.875,-2.03125 -2e-6,-0.833118 0.262285,-1.423038 0.875,-2.03125 0.612171,-0.607668 1.223128,-0.874995 2.0625,-0.875 z"
       id="path3863"
       style="opacity:0.12000002;fill:#000000;fill-opacity:1;stroke:none;display:inline" />
    <path
       d="m 48,18 c -18.225397,0 -33,12.088312 -33,27 0,9.498438 5.99976,17.843462 15.0625,22.65625 -0.344625,2.508754 -1.914014,8.649817 -9.34375,10.75 9.622915,1.045823 16.013601,-3.646306 19.40625,-7.1875 C 42.648507,71.724251 45.286067,72 48,72 66.225397,72 81,59.911688 81,45 81,30.088312 66.225397,18 48,18 z m 0,12 c 1.11442,3.1e-5 2.056274,0.338377 2.8125,1 0.79601,0.624925 1.18749,1.511255 1.1875,2.6875 L 52,48.25 c -1e-5,1.176286 -0.39149,2.088356 -1.1875,2.75 -0.756226,0.661664 -1.69808,1.00001 -2.8125,1 -1.074633,1e-5 -2.016485,-0.338336 -2.8125,-1 C 44.391477,50.338356 43.999998,49.426286 44,48.25 L 44,33.6875 C 43.999998,32.511255 44.391477,31.624925 45.1875,31 45.983515,30.338377 46.925367,30.000031 48,30 z m 0.03125,25 c 1.106165,7e-6 2.030625,0.403194 2.78125,1.1875 0.790114,0.784319 1.187489,1.714466 1.1875,2.8125 -1.1e-5,1.098042 -0.397386,2.028189 -1.1875,2.8125 C 50.061875,62.596814 49.137415,63 48.03125,63 46.925072,63 45.977618,62.596814 45.1875,61.8125 44.397374,61.028189 43.999998,60.098042 44,59 c -2e-6,-1.098034 0.397374,-2.028181 1.1875,-2.8125 0.790118,-0.784306 1.737572,-1.187493 2.84375,-1.1875 z"
       inkscape:connector-curvature="0"
       id="path3857"
       style="opacity:0.3;fill:#000000;fill-opacity:1;stroke:none;display:inline" />
    <path
       d="m 48,17 c -18.225397,0 -33,12.088312 -33,27 0,9.498438 5.99976,17.843462 15.0625,22.65625 -0.344625,2.508754 -1.914014,8.649817 -9.34375,10.75 9.622915,1.045823 16.013601,-3.646306 19.40625,-7.1875 C 42.648507,70.724251 45.286067,71 48,71 66.225397,71 81,58.911688 81,44 81,29.088312 66.225397,17 48,17 z m 0,12 c 1.11442,3.1e-5 2.056274,0.338377 2.8125,1 0.79601,0.624925 1.18749,1.511255 1.1875,2.6875 L 52,47.25 c -1e-5,1.176286 -0.39149,2.088356 -1.1875,2.75 -0.756226,0.661664 -1.69808,1.00001 -2.8125,1 -1.074633,1e-5 -2.016485,-0.338336 -2.8125,-1 C 44.391477,49.338356 43.999998,48.426286 44,47.25 L 44,32.6875 C 43.999998,31.511255 44.391477,30.624925 45.1875,30 45.983515,29.338377 46.925367,29.000031 48,29 z m 0.03125,25 c 1.106165,7e-6 2.030625,0.403194 2.78125,1.1875 0.790114,0.784319 1.187489,1.714466 1.1875,2.8125 -1.1e-5,1.098042 -0.397386,2.028189 -1.1875,2.8125 C 50.061875,61.596814 49.137415,62 48.03125,62 46.925072,62 45.977618,61.596814 45.1875,60.8125 44.397374,60.028189 43.999998,59.098042 44,58 c -2e-6,-1.098034 0.397374,-2.028181 1.1875,-2.8125 0.790118,-0.784306 1.737572,-1.187493 2.84375,-1.1875 z"
       inkscape:connector-curvature="0"
       id="path3620"
       style="fill:url(#linearGradient3100);fill-opacity:1;stroke:none;display:inline" />
    <path
       d="m 48,17 c -18.225397,0 -33,12.088312 -33,27 0,0.208408 0.0255,0.417728 0.03125,0.625 C 15.915093,30.359014 30.344147,19 48,19 65.811103,19 80.318034,30.557401 80.96875,45 80.983886,44.664059 81,44.338968 81,44 81,29.088312 66.225397,17 48,17 z m -4,30.25 0,2 c -2e-6,1.176286 0.391477,2.088356 1.1875,2.75 0.796015,0.661664 1.737867,1.00001 2.8125,1 1.11442,1e-5 2.056274,-0.338336 2.8125,-1 0.79601,-0.661644 1.18749,-1.573714 1.1875,-2.75 l 0,-2 c -1e-5,1.176286 -0.39149,2.088356 -1.1875,2.75 -0.756226,0.661664 -1.69808,1.00001 -2.8125,1 -1.074633,1e-5 -2.016485,-0.338336 -2.8125,-1 C 44.391477,49.338356 43.999998,48.426286 44,47.25 z M 44.125,59 c -0.08219,0.319378 -0.125001,0.64657 -0.125,1 -2e-6,1.098042 0.397374,2.028189 1.1875,2.8125 C 45.977618,63.596814 46.925072,64 48.03125,64 49.137415,64 50.061875,63.596814 50.8125,62.8125 51.602614,62.028189 51.999989,61.098042 52,60 c -4e-6,-0.35343 -0.04281,-0.680622 -0.125,-1 -0.173149,0.672866 -0.526704,1.280639 -1.0625,1.8125 C 50.061875,61.596814 49.137415,62 48.03125,62 46.925072,62 45.977618,61.596814 45.1875,60.8125 44.651696,60.280639 44.298146,59.672866 44.125,59 z m -14.4375,9.4375 c -0.788875,2.925833 -2.942108,7.265183 -8.96875,8.96875 1.438598,0.156348 2.798846,0.170865 4.09375,0.09375 3.95088,-2.735394 4.981412,-6.888521 5.25,-8.84375 -0.129197,-0.06861 -0.247056,-0.148711 -0.375,-0.21875 z"
       inkscape:connector-curvature="0"
       id="path3711"
       style="opacity:0.4;fill:#ffffff;fill-opacity:1;stroke:none;display:inline" />
    <path
       d="m 48,17 c -18.225397,0 -33,12.088312 -33,27 0,9.498438 5.99976,17.843462 15.0625,22.65625 -0.344625,2.508754 -1.914014,8.649817 -9.34375,10.75 9.622915,1.045823 16.013601,-3.646306 19.40625,-7.1875 C 42.648507,70.724251 45.286067,71 48,71 66.225397,71 81,58.911688 81,44 81,29.088312 66.225397,17 48,17 z m 0,1 c 17.781121,0 32,11.751983 32,26 0,14.248017 -14.218879,26 -32,26 -2.645875,0 -5.227199,-0.28841 -7.6875,-0.78125 a 1.0048439,1.0048439 0 0 0 -0.90625,0.3125 c -2.675409,2.79255 -7.347227,6.127815 -14,6.75 1.508946,-1.054816 2.683587,-2.298878 3.5,-3.5625 1.475721,-2.284081 1.970995,-4.58891 2.15625,-5.9375 a 1.0048439,1.0048439 0 0 0 -0.53125,-1 C 21.731183,61.107955 16,53.075335 16,44 16,29.751983 30.218879,18 48,18 z m 0,10 c -1.276082,3.7e-5 -2.47501,0.427068 -3.4375,1.21875 l 0,0.03125 C 43.542553,30.061673 42.999998,31.297463 43,32.6875 L 43,47.25 c -2e-6,1.399212 0.510698,2.682981 1.53125,3.53125 C 45.497389,51.584325 46.714467,52.000012 48,52 c 1.308192,1.2e-5 2.500723,-0.439583 3.4375,-1.25 l 0.03125,0 C 52.476384,49.901742 52.999988,48.640166 53,47.25 L 53,32.6875 C 52.999988,31.304515 52.478584,30.062074 51.46875,29.25 51.45788,29.24049 51.448444,29.228154 51.4375,29.21875 50.502439,28.415238 49.302525,28.000036 48,28 z m 0,1 c 1.11442,3.1e-5 2.056274,0.338377 2.8125,1 0.79601,0.624925 1.18749,1.511255 1.1875,2.6875 L 52,47.25 c -1e-5,1.176286 -0.39149,2.088356 -1.1875,2.75 -0.756226,0.661664 -1.69808,1.00001 -2.8125,1 -1.074633,1e-5 -2.016485,-0.338336 -2.8125,-1 C 44.391477,49.338356 43.999998,48.426286 44,47.25 L 44,32.6875 C 43.999998,31.511255 44.391477,30.624925 45.1875,30 45.983515,29.338377 46.925367,29.000031 48,29 z m 0.03125,24 c -1.350318,9e-6 -2.609552,0.522812 -3.5625,1.46875 C 43.516284,55.414216 42.999998,56.659555 43,58 c -2e-6,1.340451 0.516281,2.58579 1.46875,3.53125 C 45.421699,62.477198 46.680929,63 48.03125,63 49.372725,63 50.58518,62.446053 51.5,61.5 l 0.03125,0 C 52.471868,60.556938 52.999987,59.331573 53,58 c -1.3e-5,-1.331567 -0.528135,-2.556932 -1.46875,-3.5 -0.006,-0.0063 -0.02522,0.0062 -0.03125,0 -0.914819,-0.946042 -2.127278,-1.499992 -3.46875,-1.5 z m 0,1 c 1.106165,7e-6 2.030625,0.403194 2.78125,1.1875 0.790114,0.784319 1.187489,1.714466 1.1875,2.8125 -1.1e-5,1.098042 -0.397386,2.028189 -1.1875,2.8125 C 50.061875,61.596814 49.137415,62 48.03125,62 46.925072,62 45.977618,61.596814 45.1875,60.8125 44.397374,60.028189 43.999998,59.098042 44,58 c -2e-6,-1.098034 0.397374,-2.028181 1.1875,-2.8125 0.790118,-0.784306 1.737572,-1.187493 2.84375,-1.1875 z"
       inkscape:connector-curvature="0"
       id="path3842"
       style="fill:url(#linearGradient3855);fill-opacity:1;stroke:none;display:inline" />
  </g>
</svg>
