<?xml version="1.0" encoding="UTF-8" standalone="no"?>
<svg
   height="16"
   width="16"
   version="1.1"
   id="svg17"
   sodipodi:docname="package-install-auto.svg"
   inkscape:version="1.1.2 (0a00cf5339, 2022-02-04, custom)"
   xmlns:inkscape="http://www.inkscape.org/namespaces/inkscape"
   xmlns:sodipodi="http://sodipodi.sourceforge.net/DTD/sodipodi-0.dtd"
   xmlns="http://www.w3.org/2000/svg"
   xmlns:svg="http://www.w3.org/2000/svg">
  <defs
     id="defs21" />
  <sodipodi:namedview
     id="namedview19"
     pagecolor="#ffffff"
     bordercolor="#666666"
     borderopacity="1.0"
     inkscape:pageshadow="2"
     inkscape:pageopacity="0.0"
     inkscape:pagecheckerboard="0"
     showgrid="false"
     inkscape:zoom="51.9375"
     inkscape:cx="7.990373"
     inkscape:cy="8"
     inkscape:current-layer="g15" />
  <style
     type="text/css"
     id="current-color-scheme">
        .ColorScheme-Highlight {
            color:#3daee9;
        }
        .ColorScheme-Text {
            color:#232629;
        }
    </style>
  <rect
     style="fill:currentColor;fill-opacity:1;stroke:none;stroke-width:0.780043"
     class="ColorScheme-Highlight"
     height="12.48069"
     rx="1.5600863"
     width="12.48069"
     id="rect3"
     x="1.7596551"
     y="1.7596551" />
  <path
     d="m 3.3197414,1.7596552 c -0.8642878,0 -1.5600862,0.6957984 -1.5600862,1.5600862 v 9.3605176 c 0,0.864287 0.6957984,1.560086 1.5600862,1.560086 h 9.3605176 c 0.864287,0 1.560086,-0.695799 1.560086,-1.560086 V 3.3197414 c 0,-0.8642878 -0.695799,-1.5600862 -1.560086,-1.5600862 z m 0,0.7800431 h 9.3605176 c 0.432144,0 0.780043,0.3478992 0.780043,0.7800431 v 9.3605176 c 0,0.432144 -0.347899,0.780043 -0.780043,0.780043 H 3.3197414 c -0.4321439,0 -0.7800431,-0.347899 -0.7800431,-0.780043 V 3.3197414 c 0,-0.4321439 0.3478992,-0.7800431 0.7800431,-0.7800431 z"
     style="fill:currentColor;fill-opacity:0.6;stroke:none;stroke-width:0.780043"
     class="ColorScheme-Text"
     id="path5" />
  <g
     fill="#fff"
     id="g15">
    <path
       d="M 7.2199569,4.1574949 V 7.2776674 H 4.0997845 V 8.8377536 H 7.2199569 V 11.957926 H 8.7800431 V 8.8377536 H 11.900216 V 7.2776674 H 8.7800431 V 4.1574949 Z"
       id="path7"
       style="stroke-width:0.780043" />
  </g>
</svg>
