<?xml version="1.0" encoding="UTF-8" standalone="no"?>
<!-- Created with Inkscape (http://www.inkscape.org/) -->

<svg
   xmlns:dc="http://purl.org/dc/elements/1.1/"
   xmlns:cc="http://creativecommons.org/ns#"
   xmlns:rdf="http://www.w3.org/1999/02/22-rdf-syntax-ns#"
   xmlns:svg="http://www.w3.org/2000/svg"
   xmlns="http://www.w3.org/2000/svg"
   xmlns:xlink="http://www.w3.org/1999/xlink"
   xmlns:sodipodi="http://sodipodi.sourceforge.net/DTD/sodipodi-0.dtd"
   xmlns:inkscape="http://www.inkscape.org/namespaces/inkscape"
   version="1.0"
   width="96"
   height="96"
   id="svg2408"
   inkscape:version="0.91 r13725"
   sodipodi:docname="shotwell2.svg">
  <sodipodi:namedview
     pagecolor="#ffffff"
     bordercolor="#666666"
     borderopacity="1"
     objecttolerance="10"
     gridtolerance="10"
     guidetolerance="10"
     inkscape:pageopacity="0"
     inkscape:pageshadow="2"
     inkscape:window-width="1263"
     inkscape:window-height="653"
     id="namedview186"
     showgrid="false"
     inkscape:zoom="2.4583333"
     inkscape:cx="48.957104"
     inkscape:cy="51.486107"
     inkscape:window-x="0"
     inkscape:window-y="0"
     inkscape:window-maximized="0"
     inkscape:current-layer="svg2408" />
  <defs
     id="defs2410">
    <linearGradient
       id="linearGradient4384">
      <stop
         id="stop4386"
         style="stop-color:#ffffff;stop-opacity:1"
         offset="0" />
      <stop
         id="stop4388"
         style="stop-color:#ffffff;stop-opacity:0"
         offset="1" />
    </linearGradient>
    <linearGradient
       id="linearGradient4367">
      <stop
         id="stop4369"
         style="stop-color:#ffffff;stop-opacity:0.71755725"
         offset="0" />
      <stop
         id="stop4371"
         style="stop-color:#ffffff;stop-opacity:1"
         offset="1" />
    </linearGradient>
    <linearGradient
       x1="45.447727"
       y1="92.539597"
       x2="45.447727"
       y2="7.0165396"
       id="ButtonShadow"
       gradientUnits="userSpaceOnUse"
       gradientTransform="scale(1.0058652,0.994169)">
      <stop
         id="stop3750"
         style="stop-color:#000000;stop-opacity:1"
         offset="0" />
      <stop
         id="stop3752"
         style="stop-color:#000000;stop-opacity:0.58823532"
         offset="1" />
    </linearGradient>
    <linearGradient
       id="linearGradient3737">
      <stop
         id="stop3739"
         style="stop-color:#ffffff;stop-opacity:1"
         offset="0" />
      <stop
         id="stop3741"
         style="stop-color:#ffffff;stop-opacity:0"
         offset="1" />
    </linearGradient>
    <filter
       color-interpolation-filters="sRGB"
       id="filter3174">
      <feGaussianBlur
         id="feGaussianBlur3176"
         stdDeviation="1.71" />
    </filter>
    <filter
       x="-0.192"
       y="-0.192"
       width="1.3839999"
       height="1.3839999"
       color-interpolation-filters="sRGB"
       id="filter3794">
      <feGaussianBlur
         id="feGaussianBlur3796"
         stdDeviation="5.28" />
    </filter>
    <linearGradient
       x1="48"
       y1="20.220806"
       x2="48"
       y2="138.66119"
       id="linearGradient3613"
       xlink:href="#linearGradient3737"
       gradientUnits="userSpaceOnUse" />
    <linearGradient
       x1="45.447727"
       y1="92.539597"
       x2="45.447727"
       y2="7.0165396"
       id="ButtonShadow-0"
       gradientUnits="userSpaceOnUse"
       gradientTransform="matrix(1.0058652,0,0,0.994169,100,0)">
      <stop
         id="stop3750-8"
         style="stop-color:#000000;stop-opacity:1"
         offset="0" />
      <stop
         id="stop3752-5"
         style="stop-color:#000000;stop-opacity:0.58823532"
         offset="1" />
    </linearGradient>
    <linearGradient
       x1="32.251034"
       y1="6.1317081"
       x2="32.251034"
       y2="90.238609"
       id="linearGradient3780"
       xlink:href="#ButtonShadow-0"
       gradientUnits="userSpaceOnUse"
       gradientTransform="matrix(1.0238095,0,0,1.0119048,-1.1428571,-98.071429)" />
    <linearGradient
       x1="32.251034"
       y1="6.1317081"
       x2="32.251034"
       y2="90.238609"
       id="linearGradient3772"
       xlink:href="#ButtonShadow-0"
       gradientUnits="userSpaceOnUse"
       gradientTransform="matrix(1.0238095,0,0,1.0119048,-1.1428571,-98.071429)" />
    <linearGradient
       x1="32.251034"
       y1="6.1317081"
       x2="32.251034"
       y2="90.238609"
       id="linearGradient3725"
       xlink:href="#ButtonShadow-0"
       gradientUnits="userSpaceOnUse"
       gradientTransform="matrix(1.0238095,0,0,1.0119048,-1.1428571,-98.071429)" />
    <linearGradient
       x1="32.251034"
       y1="6.1317081"
       x2="32.251034"
       y2="90.238609"
       id="linearGradient3721"
       xlink:href="#ButtonShadow-0"
       gradientUnits="userSpaceOnUse"
       gradientTransform="translate(0,-97)" />
    <linearGradient
       x1="32.251034"
       y1="6.1317081"
       x2="32.251034"
       y2="90.238609"
       id="linearGradient3026"
       xlink:href="#ButtonShadow-0"
       gradientUnits="userSpaceOnUse"
       gradientTransform="matrix(1.0238095,0,0,1.0119048,-1.1428571,-98.071429)" />
    <clipPath
       id="clipPath4355">
      <rect
         width="84"
         height="80"
         rx="6"
         ry="6"
         x="6"
         y="6"
         id="rect4357"
         style="fill:#ffffff;fill-opacity:1;fill-rule:nonzero;stroke:none" />
    </clipPath>
    <radialGradient
       cx="48"
       cy="87.792389"
       r="42"
       fx="48"
       fy="87.792389"
       id="radialGradient4375"
       xlink:href="#linearGradient4367"
       gradientUnits="userSpaceOnUse"
       gradientTransform="matrix(1,-6.7114942e-8,8.4282233e-8,1.2557894,109.99999,-24.505592)" />
    <linearGradient
       x1="48"
       y1="88"
       x2="48"
       y2="-40"
       id="linearGradient4390"
       xlink:href="#linearGradient4384"
       gradientUnits="userSpaceOnUse"
       gradientTransform="matrix(1,0,0,-1,0,92)" />
    <linearGradient
       x1="48"
       y1="82"
       x2="112.12357"
       y2="82.454597"
       id="linearGradient4429"
       xlink:href="#linearGradient4384"
       gradientUnits="userSpaceOnUse"
       spreadMethod="reflect" />
    <linearGradient
       id="linearGradient3892">
      <stop
         id="stop3894"
         style="stop-color:#000000;stop-opacity:0.58823532"
         offset="0" />
      <stop
         id="stop3896"
         style="stop-color:#000000;stop-opacity:0.47058824"
         offset="0.11780351" />
      <stop
         id="stop3898"
         style="stop-color:#000000;stop-opacity:0.39215687"
         offset="0.23809524" />
      <stop
         id="stop3900"
         style="stop-color:#000000;stop-opacity:0.3137255"
         offset="1" />
    </linearGradient>
    <linearGradient
       x1="90"
       y1="88"
       x2="48"
       y2="88"
       id="linearGradient3228"
       xlink:href="#linearGradient3892"
       gradientUnits="userSpaceOnUse"
       spreadMethod="reflect" />
    <linearGradient
       x1="10.480331"
       y1="46.186852"
       x2="81.064743"
       y2="46.186852"
       id="linearGradient3301"
       xlink:href="#linearGradient3268"
       gradientUnits="userSpaceOnUse" />
    <linearGradient
       id="linearGradient3268">
      <stop
         id="stop3270"
         style="stop-color:#e4e4e4;stop-opacity:1"
         offset="0" />
      <stop
         id="stop3272"
         style="stop-color:#7a7a7a;stop-opacity:1"
         offset="1" />
    </linearGradient>
    <linearGradient
       id="linearGradient3257">
      <stop
         id="stop3259"
         style="stop-color:#aaaaaa;stop-opacity:1"
         offset="0" />
      <stop
         id="stop3261"
         style="stop-color:#d2d2d2;stop-opacity:1"
         offset="1" />
    </linearGradient>
    <linearGradient
       x1="48"
       y1="90"
       x2="48"
       y2="5.9877172"
       id="linearGradient3229"
       xlink:href="#linearGradient3257"
       gradientUnits="userSpaceOnUse" />
    <linearGradient
       id="linearGradient3260">
      <stop
         id="stop3262"
         style="stop-color:#000000;stop-opacity:1"
         offset="0" />
      <stop
         id="stop3264"
         style="stop-color:#000000;stop-opacity:0"
         offset="1" />
    </linearGradient>
    <radialGradient
       cx="62.716835"
       cy="76.334625"
       r="27.757055"
       fx="62.716835"
       fy="76.334625"
       id="radialGradient3301"
       xlink:href="#linearGradient3303"
       gradientUnits="userSpaceOnUse"
       gradientTransform="matrix(1.1492741,-0.6635339,0.7166993,1.2413593,-64.070967,17.19584)" />
    <linearGradient
       id="linearGradient3303">
      <stop
         id="stop3305"
         style="stop-color:#f1b9ff;stop-opacity:1"
         offset="0" />
      <stop
         id="stop3307"
         style="stop-color:#ffffff;stop-opacity:0"
         offset="1" />
    </linearGradient>
    <linearGradient
       x1="47.855976"
       y1="21.75379"
       x2="47.855976"
       y2="52.816315"
       id="linearGradient3298"
       xlink:href="#linearGradient3287"
       gradientUnits="userSpaceOnUse" />
    <linearGradient
       id="linearGradient3287">
      <stop
         id="stop3290"
         style="stop-color:#71c837;stop-opacity:1"
         offset="0" />
      <stop
         id="stop3292"
         style="stop-color:#71c837;stop-opacity:0"
         offset="1" />
    </linearGradient>
    <linearGradient
       x1="47.855976"
       y1="21.75379"
       x2="47.855976"
       y2="52.816315"
       id="linearGradient3294"
       xlink:href="#linearGradient3287"
       gradientUnits="userSpaceOnUse" />
    <linearGradient
       x1="51.98505"
       y1="47.405834"
       x2="51.98505"
       y2="7.7924976"
       id="linearGradient3310"
       xlink:href="#linearGradient3304"
       gradientUnits="userSpaceOnUse" />
    <linearGradient
       id="linearGradient3304">
      <stop
         id="stop3306"
         style="stop-color:#d42aff;stop-opacity:1"
         offset="0" />
      <stop
         id="stop3308"
         style="stop-color:#d42aff;stop-opacity:0"
         offset="1" />
    </linearGradient>
    <radialGradient
       cx="48.453125"
       cy="55.808502"
       r="18.109375"
       fx="48.453125"
       fy="55.808502"
       id="radialGradient3430"
       xlink:href="#linearGradient3383"
       gradientUnits="userSpaceOnUse"
       gradientTransform="matrix(0.3961226,-1.5008363,1.5791805,0.4168003,-60.154838,93.678538)" />
    <linearGradient
       id="linearGradient3383">
      <stop
         id="stop3385"
         style="stop-color:#ffffff;stop-opacity:0"
         offset="0" />
      <stop
         id="stop3389"
         style="stop-color:#ffffff;stop-opacity:0"
         offset="0.6557377" />
      <stop
         id="stop3387"
         style="stop-color:#ffffff;stop-opacity:1"
         offset="1" />
    </linearGradient>
    <linearGradient
       x1="14.647209"
       y1="47.260139"
       x2="84.0952"
       y2="47.260139"
       id="linearGradient3278"
       xlink:href="#linearGradient3260"
       gradientUnits="userSpaceOnUse" />
    <linearGradient
       id="linearGradient4692">
      <stop
         id="stop4694"
         style="stop-color:#000000;stop-opacity:0"
         offset="0" />
      <stop
         id="stop3355"
         style="stop-color:#000000;stop-opacity:0"
         offset="0.53445506" />
      <stop
         id="stop3289"
         style="stop-color:#000000;stop-opacity:0.50406504"
         offset="0.88368797" />
      <stop
         id="stop4696"
         style="stop-color:#000000;stop-opacity:0.86178863"
         offset="1" />
    </linearGradient>
    <clipPath
       id="clipPath3733">
      <rect
         width="74.696693"
         height="73.388969"
         rx="6"
         ry="6"
         x="10.399113"
         y="11.328045"
         id="rect3735"
         style="fill:#ffffff;fill-opacity:1;stroke:none" />
    </clipPath>
    <radialGradient
       cx="48"
       cy="48"
       r="42"
       fx="48"
       fy="48"
       id="radialGradient3299"
       xlink:href="#linearGradient4692"
       gradientUnits="userSpaceOnUse"
       gradientTransform="matrix(0.8105965,0,0,0.80759,9.0913691,9.2356809)" />
    <clipPath
       id="clipPath2521">
      <rect
         width="131.18726"
         height="131.18726"
         rx="9.3705187"
         ry="9.3705187"
         x="-17.694021"
         y="-17.09572"
         id="rect2523"
         style="fill:#ffffff;fill-opacity:1;fill-rule:nonzero;stroke:none" />
    </clipPath>
    <linearGradient
       x1="48.916553"
       y1="24.14736"
       x2="97.732262"
       y2="24.14736"
       id="linearGradient4571"
       xlink:href="#linearGradient4321"
       gradientUnits="userSpaceOnUse"
       gradientTransform="matrix(1.0777455,0,0,1.0777455,-5.3852936,-3.7077624)" />
    <linearGradient
       id="linearGradient4321">
      <stop
         id="stop4323"
         style="stop-color:#959595;stop-opacity:1"
         offset="0" />
      <stop
         id="stop4325"
         style="stop-color:#5d5d5d;stop-opacity:1"
         offset="1" />
    </linearGradient>
    <linearGradient
       x1="48.916553"
       y1="24.14736"
       x2="97.732262"
       y2="24.14736"
       id="linearGradient4560"
       xlink:href="#linearGradient4321"
       gradientUnits="userSpaceOnUse"
       gradientTransform="matrix(0.7620812,0.7620812,-0.7620812,0.7620812,48.272417,-29.567134)" />
    <linearGradient
       x1="56.270466"
       y1="22.625397"
       x2="53.392128"
       y2="23.509279"
       id="linearGradient4556"
       xlink:href="#linearGradient4341"
       gradientUnits="userSpaceOnUse"
       gradientTransform="matrix(0.7620812,0.7620812,-0.7620812,0.7620812,48.272417,-29.567134)" />
    <linearGradient
       id="linearGradient4341">
      <stop
         id="stop4343"
         style="stop-color:#000000;stop-opacity:1"
         offset="0" />
      <stop
         id="stop4345"
         style="stop-color:#000000;stop-opacity:0"
         offset="1" />
    </linearGradient>
    <linearGradient
       x1="48.916553"
       y1="24.14736"
       x2="97.732262"
       y2="24.14736"
       id="linearGradient4553"
       xlink:href="#linearGradient4321"
       gradientUnits="userSpaceOnUse"
       gradientTransform="matrix(0,1.0777456,-1.0777456,0,101.3184,-7.3440125)" />
    <linearGradient
       x1="56.270466"
       y1="22.625397"
       x2="53.392128"
       y2="23.509279"
       id="linearGradient4549"
       xlink:href="#linearGradient4341"
       gradientUnits="userSpaceOnUse"
       gradientTransform="matrix(0,1.0777456,-1.0777456,0,101.3184,-7.3440125)" />
    <linearGradient
       x1="48.916553"
       y1="24.14736"
       x2="97.732262"
       y2="24.14736"
       id="linearGradient4546"
       xlink:href="#linearGradient4321"
       gradientUnits="userSpaceOnUse"
       gradientTransform="matrix(-0.7620812,0.7620812,-0.7620812,-0.7620812,123.30024,45.94078)" />
    <linearGradient
       x1="56.270466"
       y1="22.625397"
       x2="53.392128"
       y2="23.509279"
       id="linearGradient4542"
       xlink:href="#linearGradient4341"
       gradientUnits="userSpaceOnUse"
       gradientTransform="matrix(-0.7620812,0.7620812,-0.7620812,-0.7620812,123.30024,45.94078)" />
    <linearGradient
       x1="48.916553"
       y1="24.14736"
       x2="97.732262"
       y2="24.14736"
       id="linearGradient4539"
       xlink:href="#linearGradient4321"
       gradientUnits="userSpaceOnUse"
       gradientTransform="matrix(-1.0777456,0,0,-1.0777456,102.59234,101.76469)" />
    <linearGradient
       x1="56.270466"
       y1="22.625397"
       x2="53.392128"
       y2="23.509279"
       id="linearGradient4535"
       xlink:href="#linearGradient4341"
       gradientUnits="userSpaceOnUse"
       gradientTransform="matrix(-1.0777456,0,0,-1.0777456,102.59234,101.76469)" />
    <linearGradient
       x1="48.916553"
       y1="24.14736"
       x2="97.732262"
       y2="24.14736"
       id="linearGradient4532"
       xlink:href="#linearGradient4321"
       gradientUnits="userSpaceOnUse"
       gradientTransform="matrix(-0.7620812,-0.7620812,0.7620812,-0.7620812,48.297395,122.98892)" />
    <linearGradient
       x1="56.270466"
       y1="22.625397"
       x2="53.392128"
       y2="23.509279"
       id="linearGradient4528"
       xlink:href="#linearGradient4341"
       gradientUnits="userSpaceOnUse"
       gradientTransform="matrix(-0.7620812,-0.7620812,0.7620812,-0.7620812,48.297395,122.98892)" />
    <linearGradient
       x1="48.916553"
       y1="24.14736"
       x2="97.732262"
       y2="24.14736"
       id="linearGradient4525"
       xlink:href="#linearGradient4321"
       gradientUnits="userSpaceOnUse"
       gradientTransform="matrix(0,-1.0777456,1.0777456,0,-6.7688925,100.51326)" />
    <linearGradient
       x1="56.270466"
       y1="22.625397"
       x2="53.392128"
       y2="23.509279"
       id="linearGradient4521"
       xlink:href="#linearGradient4341"
       gradientUnits="userSpaceOnUse"
       gradientTransform="matrix(0,-1.0777456,1.0777456,0,-6.7688925,100.51326)" />
    <linearGradient
       x1="48.916553"
       y1="24.14736"
       x2="97.732262"
       y2="24.14736"
       id="linearGradient4518"
       xlink:href="#linearGradient4321"
       gradientUnits="userSpaceOnUse"
       gradientTransform="matrix(0.7620812,-0.7620812,0.7620812,0.7620812,-27.993121,47.228467)" />
    <linearGradient
       x1="56.270466"
       y1="22.625397"
       x2="53.392128"
       y2="23.509279"
       id="linearGradient4514"
       xlink:href="#linearGradient4341"
       gradientUnits="userSpaceOnUse"
       gradientTransform="matrix(0.7620812,-0.7620812,0.7620812,0.7620812,-27.993121,47.228467)" />
    <linearGradient
       x1="56.270466"
       y1="22.625397"
       x2="53.392128"
       y2="23.509279"
       id="linearGradient4567"
       xlink:href="#linearGradient4341"
       gradientUnits="userSpaceOnUse"
       gradientTransform="matrix(1.0777455,0,0,1.0777455,-5.3852936,-3.7077624)" />
  </defs>
  <metadata
     id="metadata2413">
    <rdf:RDF>
      <cc:Work
         rdf:about="">
        <dc:format>image/svg+xml</dc:format>
        <dc:type
           rdf:resource="http://purl.org/dc/dcmitype/StillImage" />
        <dc:title></dc:title>
      </cc:Work>
    </rdf:RDF>
  </metadata>
  <g
     id="layer2"
     style="display:none">
    <rect
       width="86"
       height="85"
       rx="6"
       ry="6"
       x="5"
       y="7"
       id="rect3745"
       style="opacity:0.9;fill:url(#ButtonShadow);fill-opacity:1;fill-rule:nonzero;stroke:none;filter:url(#filter3174)" />
  </g>
  <g
     id="layer3"
     style="display:inline">
    <path
       d="m 12,-95.03125 c -5.5110903,0 -10.03125,4.52016 -10.03125,10.03125 l 0,71 c 0,5.5110902 4.5201598,10.03125 10.03125,10.03125 l 72,0 c 5.51109,0 10.03125,-4.5201597 10.03125,-10.03125 l 0,-71 c 0,-5.51109 -4.52016,-10.03125 -10.03125,-10.03125 l -72,0 z"
       transform="scale(1,-1)"
       id="path3786"
       style="opacity:0.07999998;fill:url(#linearGradient3026);fill-opacity:1;fill-rule:nonzero;stroke:none;display:inline" />
    <path
       d="m 12,-94.03125 c -4.971633,0 -9.03125,4.059617 -9.03125,9.03125 l 0,71 c 0,4.9716329 4.0596171,9.03125 9.03125,9.03125 l 72,0 c 4.971633,0 9.03125,-4.059617 9.03125,-9.03125 l 0,-71 c 0,-4.971633 -4.059617,-9.03125 -9.03125,-9.03125 l -72,0 z"
       transform="scale(1,-1)"
       id="path3778"
       style="opacity:0.1;fill:url(#linearGradient3780);fill-opacity:1;fill-rule:nonzero;stroke:none;display:inline" />
    <path
       d="m 12,-93 c -4.4091333,0 -8,3.590867 -8,8 l 0,71 c 0,4.4091333 3.5908667,8 8,8 l 72,0 c 4.409133,0 8,-3.5908667 8,-8 l 0,-71 c 0,-4.409133 -3.590867,-8 -8,-8 l -72,0 z"
       transform="scale(1,-1)"
       id="path3770"
       style="opacity:0.2;fill:url(#linearGradient3772);fill-opacity:1;fill-rule:nonzero;stroke:none;display:inline" />
    <rect
       width="86"
       height="85"
       rx="7"
       ry="7"
       x="5"
       y="-92"
       transform="scale(1,-1)"
       id="rect3723"
       style="opacity:0.3;fill:url(#linearGradient3725);fill-opacity:1;fill-rule:nonzero;stroke:none;display:inline" />
    <rect
       width="84"
       height="84"
       rx="6"
       ry="6"
       x="6"
       y="-91"
       transform="scale(1,-1)"
       id="rect3716"
       style="opacity:0.45;fill:url(#linearGradient3721);fill-opacity:1;fill-rule:nonzero;stroke:none;display:inline" />
  </g>
  <g
     id="layer9">
    <path
       d="m 64,48 a 16,16 0 1 1 -32,0 16,16 0 1 1 32,0 z"
       transform="translate(0,-2)"
       id="path2955"
       style="fill:#333333;fill-opacity:1;stroke:none;display:inline" />
    <g
       transform="matrix(0.5888293,0,0,0.5888293,19.082378,18.054087)"
       clip-path="url(#clipPath2521)"
       id="g4592"
       style="display:inline">
      <path
         d="m 63.746354,52.94225 -18.231643,-65.799586 54.430498,4.5489774 0,60.1619206 -36.198855,1.088688 z"
         inkscape:connector-curvature="0"
         id="path4319"
         style="fill:url(#linearGradient4571);fill-opacity:1;fill-rule:evenodd;stroke:none" />
      <path
         d="m 45.879436,-13.704817 17.87938,66.646052 1.532644,-0.640209 -17.87938,-66.612374 -1.532644,0.606531 z"
         inkscape:connector-curvature="0"
         id="path4329"
         style="opacity:0.4;fill:#ffffff;fill-opacity:1;fill-rule:evenodd;stroke:none" />
      <path
         d="M 57.098267,59.373936 88.803916,4.4581392 126.00545,41.65967 83.464543,84.200575 57.098267,59.373936 z"
         inkscape:connector-curvature="0"
         id="path4424"
         style="fill:url(#linearGradient4560);fill-opacity:1;fill-rule:evenodd;stroke:none" />
      <path
         d="M 88.805611,4.4407396 57.107796,59.382031 58.803488,59.920476 90.477488,5.003 88.805611,4.4407396 z"
         inkscape:connector-curvature="0"
         id="path4426"
         style="opacity:0.4;fill:#ffffff;fill-opacity:1;fill-rule:evenodd;stroke:none" />
      <path
         d="m 85.302388,1.0891496 -31.242917,55.2445564 3.11977,2.92925 31.62637,-54.8222164 -3.503223,-3.35159 z"
         inkscape:connector-curvature="0"
         id="path4428"
         style="opacity:0.6;fill:url(#linearGradient4556);fill-opacity:1;fill-rule:evenodd;stroke:none" />
      <path
         d="M 44.668383,61.787642 105.919,45.375588 l 0,52.610912 -60.161929,0 -1.088688,-36.198858 z"
         inkscape:connector-curvature="0"
         id="path4436"
         style="fill:url(#linearGradient4553);fill-opacity:1;fill-rule:evenodd;stroke:none" />
      <path
         d="m 105.9325,45.364483 -61.263103,16.435621 0.03368,1.835908 61.229423,-16.43562 0,-1.835909 z"
         inkscape:connector-curvature="0"
         id="path4438"
         style="opacity:0.4;fill:#ffffff;fill-opacity:1;fill-rule:evenodd;stroke:none" />
      <path
         d="m 105.9325,41.053501 -61.263103,16.43562 0.134718,4.277303 61.128385,-16.401941 0,-4.310982 z"
         inkscape:connector-curvature="0"
         id="path4440"
         style="opacity:0.6;fill:url(#linearGradient4549);fill-opacity:1;fill-rule:evenodd;stroke:none" />
      <path
         d="M 34.35917,54.76663 89.274967,86.472279 52.073436,123.67381 9.5325312,81.132906 34.35917,54.76663 z"
         inkscape:connector-curvature="0"
         id="path4448"
         style="fill:url(#linearGradient4546);fill-opacity:1;fill-rule:evenodd;stroke:none" />
      <path
         d="m 89.292366,86.473974 -54.941291,-31.697815 -1.097629,1.392426 54.917476,31.674 1.121444,-1.368611 z"
         inkscape:connector-curvature="0"
         id="path4450"
         style="opacity:0.4;fill:#ffffff;fill-opacity:1;fill-rule:evenodd;stroke:none" />
      <path
         d="M 92.340691,83.425649 37.3994,51.727834 l -2.92925,3.11977 54.822216,31.62637 3.048325,-3.048325 z"
         inkscape:connector-curvature="0"
         id="path4452"
         style="opacity:0.6;fill:url(#linearGradient4542);fill-opacity:1;fill-rule:evenodd;stroke:none" />
      <path
         d="m 33.460686,45.114673 16.412053,61.250617 -52.6109111,0 0,-60.161929 36.1988581,-1.088688 z"
         inkscape:connector-curvature="0"
         id="path4460"
         style="fill:url(#linearGradient4539);fill-opacity:1;fill-rule:evenodd;stroke:none" />
      <path
         d="m 49.883844,106.37879 -16.43562,-61.263103 -1.684276,0.488577 16.435621,61.229426 1.684275,-0.4549 z"
         inkscape:connector-curvature="0"
         id="path4462"
         style="opacity:0.4;fill:#ffffff;fill-opacity:1;fill-rule:evenodd;stroke:none" />
      <path
         d="m 54.194827,106.37879 -16.435621,-61.263103 -4.277303,0.134718 16.401941,61.128385 4.310983,0 z"
         inkscape:connector-curvature="0"
         id="path4464"
         style="opacity:0.6;fill:url(#linearGradient4535);fill-opacity:1;fill-rule:evenodd;stroke:none" />
      <path
         d="M 39.471545,34.04785 7.7658958,88.963647 -29.435635,51.762116 13.105269,9.2212112 39.471545,34.04785 z"
         inkscape:connector-curvature="0"
         id="path4472"
         style="fill:url(#linearGradient4532);fill-opacity:1;fill-rule:evenodd;stroke:none" />
      <path
         d="M 7.7642012,88.981046 39.462016,34.039755 38.06959,32.846591 6.3955896,87.764067 7.7642012,88.981046 z"
         inkscape:connector-curvature="0"
         id="path4474"
         style="opacity:0.4;fill:#ffffff;fill-opacity:1;fill-rule:evenodd;stroke:none" />
      <path
         d="M 10.812526,92.029371 42.510341,37.08808 39.390571,34.15883 7.7642012,88.981046 10.812526,92.029371 z"
         inkscape:connector-curvature="0"
         id="path4476"
         style="opacity:0.6;fill:url(#linearGradient4528);fill-opacity:1;fill-rule:evenodd;stroke:none" />
      <path
         d="m -11.375,-4.8125 0,52.59375 61.25,-16.40625 -1.03125,-34.09375 -0.5625,-2.09375 -59.65625,0 z"
         inkscape:connector-curvature="0"
         id="path4484"
         style="fill:url(#linearGradient4525);fill-opacity:1;fill-rule:evenodd;stroke:none" />
      <path
         d="m -11.382991,47.804764 61.263102,-16.43562 -0.488578,-1.684276 -61.229422,16.435621 0.454898,1.684275 z"
         inkscape:connector-curvature="0"
         id="path4486"
         style="opacity:0.4;fill:#ffffff;fill-opacity:1;fill-rule:evenodd;stroke:none" />
      <path
         d="m -11.382991,52.115747 61.263102,-16.435621 -0.134719,-4.277303 -61.128383,16.401941 0,4.310983 z"
         inkscape:connector-curvature="0"
         id="path4488"
         style="opacity:0.6;fill:url(#linearGradient4521);fill-opacity:1;fill-rule:evenodd;stroke:none" />
      <path
         d="m 43.21875,-30.5 -37.1875,37.1875 53.625,30.96875 -13.277484,-49.292584 18.09375,0 L 43.21875,-30.5 z"
         inkscape:connector-curvature="0"
         id="path4496"
         style="fill:url(#linearGradient4518);fill-opacity:1;fill-rule:evenodd;stroke:none" />
      <path
         d="M 6.6532389,5.179337 6,6.6875 59.65625,37.65625 59.153239,35.429337 6.6532389,5.179337 z"
         inkscape:connector-curvature="0"
         id="path4498"
         style="opacity:0.4;fill:#ffffff;fill-opacity:1;fill-rule:evenodd;stroke:none" />
      <path
         d="M 6,6.6875 2.96875,9.75 57.90625,41.4375 60.0625,39.15625 59.65625,37.625 6,6.6875 z"
         inkscape:connector-curvature="0"
         id="path4500"
         style="opacity:0.6;fill:url(#linearGradient4514);fill-opacity:1;fill-rule:evenodd;stroke:none" />
      <path
         d="M 41.635307,-13.543825 59.4375,52.9375 l 1.40625,-0.03125 1.96875,-3.4375 -16.864693,-63.012575 -4.3125,0 z"
         inkscape:connector-curvature="0"
         id="path4334"
         style="opacity:0.6;fill:url(#linearGradient4567);fill-opacity:1;fill-rule:evenodd;stroke:none" />
    </g>
  </g>
  <g
     id="layer8">
    <rect
       width="84"
       height="84"
       rx="6"
       ry="6"
       x="6"
       y="6"
       transform="translate(0,-2)"
       clip-path="url(#clipPath3733)"
       id="rect3277"
       style="fill:url(#radialGradient3299);fill-opacity:1;fill-rule:nonzero;stroke:none;display:inline" />
  </g>
  <g
     id="layer7">
    <path
       d="m 84.0952,47.260139 a 34.723995,34.345188 0 1 1 -69.447991,0 34.723995,34.345188 0 1 1 69.447991,0 z"
       transform="matrix(0,-1.0367471,1.0481818,0,-1.5372169,97.185452)"
       id="path3258"
       style="opacity:0.93584906;fill:url(#linearGradient3278);fill-opacity:1;fill-rule:nonzero;stroke:none;display:inline" />
    <path
       d="m 21.924065,59.647657 c 0.189649,0.36216 0.376024,0.713791 0.582312,1.071093 C 30.630164,74.789561 48.64794,79.617409 62.71875,71.493623 76.789561,63.369836 81.617408,45.352062 73.493623,31.28125 73.287334,30.923948 73.076,30.586727 72.857185,30.241407 79.946504,44.098108 74.974849,61.242134 61.34375,69.112053 47.712654,76.981972 30.37966,72.715538 21.924065,59.647657 z"
       inkscape:connector-curvature="0"
       id="path3272"
       style="opacity:0.6;fill:url(#radialGradient3301);fill-opacity:1;fill-rule:nonzero;stroke:none;display:inline" />
    <path
       d="m 75.003826,31.0977 a 27.14785,16.162441 0 1 1 -54.2957,0 27.14785,16.162441 0 1 1 54.2957,0 z"
       transform="matrix(1.3162791,0,0,1.3162791,-15.135843,-11.835551)"
       id="path3296"
       style="opacity:0.2;fill:url(#linearGradient3298);fill-opacity:1;fill-rule:nonzero;stroke:none;display:inline" />
    <path
       d="m 75.003826,31.0977 a 27.14785,16.162441 0 1 1 -54.2957,0 27.14785,16.162441 0 1 1 54.2957,0 z"
       transform="matrix(0.7488372,0,0,0.7488372,12.01964,3.5377421)"
       id="path3277"
       style="opacity:0.4;fill:url(#linearGradient3294);fill-opacity:1;fill-rule:nonzero;stroke:none;display:inline" />
    <path
       d="m 75.003826,31.0977 a 27.14785,16.162441 0 1 1 -54.2957,0 27.14785,16.162441 0 1 1 54.2957,0 z"
       transform="matrix(0.5613372,0,0,0.5613372,20.992635,49.269586)"
       id="path3300"
       style="opacity:0.2;fill:url(#linearGradient3310);fill-opacity:1;fill-rule:nonzero;stroke:none;display:inline" />
    <path
       d="m 40.357144,62.875 a 4.0178571,4.0178571 0 1 1 -8.035714,0 4.0178571,4.0178571 0 1 1 8.035714,0 z"
       transform="matrix(0.8888888,0,0,0.8888888,29.591271,3.9682598)"
       id="path3312"
       style="opacity:0.4;fill:#e064ff;fill-opacity:0.37606835;fill-rule:nonzero;stroke:#e67cff;stroke-width:1.125;stroke-linecap:square;stroke-linejoin:miter;stroke-miterlimit:4;stroke-opacity:1;stroke-dasharray:none;stroke-dashoffset:0;display:inline" />
    <path
       d="m 40.357144,62.875 a 4.0178571,4.0178571 0 1 1 -8.035714,0 4.0178571,4.0178571 0 1 1 8.035714,0 z"
       transform="matrix(0.4888888,0,0,0.4888888,37.698415,23.261117)"
       id="path3322"
       style="opacity:0.3;fill:#e064ff;fill-opacity:0.37606835;fill-rule:nonzero;stroke:#e67cff;stroke-width:2.04545474;stroke-linecap:square;stroke-linejoin:miter;stroke-miterlimit:4;stroke-opacity:1;stroke-dasharray:none;stroke-dashoffset:0;display:inline" />
    <path
       d="m 40.357144,62.875 a 4.0178571,4.0178571 0 1 1 -8.035714,0 4.0178571,4.0178571 0 1 1 8.035714,0 z"
       transform="matrix(0.7555555,0,0,0.7555555,32.115081,-21.041264)"
       id="path3324"
       style="opacity:0.4;fill:#b1e88b;fill-opacity:0.5;fill-rule:nonzero;stroke:#8de951;stroke-width:1.32352936;stroke-linecap:square;stroke-linejoin:miter;stroke-miterlimit:4;stroke-opacity:1;stroke-dasharray:none;stroke-dashoffset:0;display:inline" />
    <path
       d="M 18.399161,37.385174 C 17.79995,39.749 17.47442,42.220662 17.483983,44.771179 l 11.453827,-0.04735 c -0.0045,-1.548221 0.147996,-3.132287 0.561708,-4.699767 0.25368,-0.961147 0.561423,-1.875033 0.953169,-2.754198 l -10.360825,-4.70611 c -0.693913,1.544008 -1.269325,3.151242 -1.692701,4.82142 z m 3.998922,-9.02843 9.491218,6.286517 c 0.954365,-1.441466 2.101632,-2.729526 3.400261,-3.821293 0.649316,-0.545884 1.326125,-1.047597 2.043397,-1.496846 0.717271,-0.44925 1.47838,-0.836873 2.251535,-1.18335 l -0.02224,-0.03819 c 0.984814,-0.438199 2.005482,-0.777429 3.053083,-1.036434 l -0.008,0.03022 c 0.354928,-0.0892 0.703877,-0.167651 1.064272,-0.236225 1.081183,-0.20572 2.194732,-0.317187 3.316599,-0.320479 L 46.94088,15.086833 c -1.679419,0.0063 -3.327485,0.165122 -4.932722,0.443372 l -0.02224,-0.03819 c -0.23335,0.04091 -0.452153,0.09616 -0.684054,0.142655 -0.609162,0.122144 -1.196479,0.271371 -1.794492,0.431336 -1.678482,0.448984 -3.319694,1.018911 -4.889132,1.747682 -0.917642,0.426825 -1.808113,0.911926 -2.671627,1.427994 -0.113445,0.0678 -0.231257,0.130885 -0.343712,0.200164 -0.19431,0.118882 -0.389297,0.240508 -0.580827,0.363822 -0.105458,0.06839 -0.208969,0.138445 -0.313496,0.208139 -0.407693,0.269834 -0.7996,0.558707 -1.193554,0.848505 -0.054,0.03972 -0.107004,0.07908 -0.160735,0.119177 -0.190805,0.143358 -0.37937,0.284391 -0.566562,0.432227 -0.345159,0.270873 -0.693612,0.541594 -1.026528,0.827948 -0.102801,0.08889 -0.19767,0.186267 -0.29923,0.276545 -1.929636,1.715264 -3.634849,3.679553 -5.063886,5.838535 z"
       inkscape:connector-curvature="0"
       id="path3416"
       style="fill:url(#radialGradient3430);fill-opacity:1;fill-rule:nonzero;stroke:none;display:inline" />
  </g>
  <g
     id="layer1">
    <path
       d="M 12,6 C 8.676,6 6,8.676 6,12 l 0,72 c 0,3.324 2.676,6 6,6 l 72,0 c 3.324,0 6,-2.676 6,-6 L 90,12 C 90,8.676 87.324,6 84,6 z m 36,5 C 67.32,11 83,26.68 83,46 83,65.32 67.32,81 48,81 28.680001,81.000001 13,65.32 13,46 13,26.68 28.68,11 48,11 z"
       inkscape:connector-curvature="0"
       id="rect2476"
       style="fill:url(#linearGradient3229);fill-opacity:1;fill-rule:nonzero;stroke:none;display:inline" />
    <path
       d="m 81.064743,46.186852 a 35.292206,32.766823 0 1 1 -70.584412,0 35.292206,32.766823 0 1 1 70.584412,0 z"
       transform="matrix(0,-0.9917204,1.0681536,0,-1.334651,91.393559)"
       id="path2522"
       style="fill:none;stroke:url(#linearGradient3301);stroke-width:1.94320452;stroke-linecap:square;stroke-linejoin:miter;stroke-miterlimit:4;stroke-opacity:1;stroke-dasharray:none;stroke-dashoffset:0;display:inline" />
    <path
       d="M 12,86 C 8.676,86 6,83.324 6,80 L 6,12 C 6,8.676 8.676,6 12,6 l 72,0 c 3.324,0 6,2.676 6,6 l 0,68 c 0,3.324 -2.676,6 -6,6 z m 0,-0.96875 72,0 c 2.80489,0 5.03125,-2.22636 5.03125,-5.03125 l 0,-68 C 89.03125,9.19511 86.80489,6.96875 84,6.96875 l -72,0 C 9.1951102,6.96875 6.96875,9.19511 6.96875,12 l 0,68 c 0,2.80489 2.2263602,5.03125 5.03125,5.03125 z"
       inkscape:connector-curvature="0"
       id="rect4377"
       style="opacity:0.4;fill:url(#linearGradient4390);fill-opacity:1;fill-rule:nonzero;stroke:none" />
    <path
       d="m 6,78 0,2 c 0,3.324 2.676,6 6,6 l 72,0 c 3.324,0 6,-2.676 6,-6 l 0,-2 c 0,3.324 -2.676,6 -6,6 L 12,84 C 8.676,84 6,81.324 6,78 z"
       inkscape:connector-curvature="0"
       id="rect4414"
       style="opacity:0.15;fill:url(#linearGradient4429);fill-opacity:1;fill-rule:nonzero;stroke:none" />
  </g>
  <g
     id="layer4"
     style="display:inline">
    <path
       d="m 6,80 0,4 c 0,3.324 2.676,6 6,6 l 72,0 c 3.324,0 6,-2.676 6,-6 l 0,-4 c 0,3.324 -2.676,6 -6,6 L 12,86 C 8.676,86 6,83.324 6,80 z"
       inkscape:connector-curvature="0"
       id="path3888"
       style="fill:url(#linearGradient3228);fill-opacity:1;fill-rule:nonzero;stroke:none;display:inline" />
    <path
       d="m 6,82 0,2 c 0,3.324 2.676,6 6,6 l 72,0 c 3.324,0 6,-2.676 6,-6 l 0,-2 c 0,3.324 -2.676,6 -6,6 L 12,88 C 8.676,88 6,85.324 6,82 z"
       inkscape:connector-curvature="0"
       id="rect4345"
       style="opacity:0.1;color:#000000;fill:#000000;fill-opacity:1;fill-rule:nonzero;stroke:none;stroke-width:1.5;marker:none;visibility:visible;display:inline;overflow:visible;enable-background:accumulate" />
    <path
       d="m 6,83 0,1 c 0,3.324 2.676,6 6,6 l 72,0 c 3.324,0 6,-2.676 6,-6 l 0,-1 c 0,3.324 -2.676,6 -6,6 L 12,89 C 8.676,89 6,86.324 6,83 z"
       inkscape:connector-curvature="0"
       id="rect4336"
       style="opacity:0.15;color:#000000;fill:#000000;fill-opacity:1;fill-rule:nonzero;stroke:none;stroke-width:1.5;marker:none;visibility:visible;display:inline;overflow:visible;enable-background:accumulate" />
  </g>
  <g
     id="layer5"
     style="display:inline"
     transform="translate(-55.322034,16.677966)">
    <rect
       width="66"
       height="62"
       rx="12"
       ry="12"
       x="15"
       y="15"
       clip-path="url(#clipPath4355)"
       id="rect3171"
       style="opacity:0.1;fill:url(#linearGradient3613);fill-opacity:1;fill-rule:nonzero;stroke:#ffffff;stroke-width:0.5;stroke-linecap:round;stroke-linejoin:miter;stroke-miterlimit:4;stroke-dasharray:none;stroke-dashoffset:0;stroke-opacity:1;filter:url(#filter3794)"
       transform="translate(54.508475,-16.271186)" />
  </g>
  <g
     id="layer6" />
</svg>
