<?xml version="1.0" encoding="UTF-8" standalone="no"?>
<svg
   xmlns:dc="http://purl.org/dc/elements/1.1/"
   xmlns:cc="http://creativecommons.org/ns#"
   xmlns:rdf="http://www.w3.org/1999/02/22-rdf-syntax-ns#"
   xmlns:svg="http://www.w3.org/2000/svg"
   xmlns="http://www.w3.org/2000/svg"
   xmlns:sodipodi="http://sodipodi.sourceforge.net/DTD/sodipodi-0.dtd"
   xmlns:inkscape="http://www.inkscape.org/namespaces/inkscape"
   width="48"
   height="48"
   viewBox="0 0 48 48"
   version="1.1"
   id="svg4"
   sodipodi:docname="ic_next_week_48px.svg"
   inkscape:version="0.92.1 r">
  <metadata
     id="metadata10">
    <rdf:RDF>
      <cc:Work
         rdf:about="">
        <dc:format>image/svg+xml</dc:format>
        <dc:type
           rdf:resource="http://purl.org/dc/dcmitype/StillImage" />
      </cc:Work>
    </rdf:RDF>
  </metadata>
  <defs
     id="defs8" />
  <sodipodi:namedview
     pagecolor="#ffffff"
     bordercolor="#666666"
     borderopacity="1"
     objecttolerance="10"
     gridtolerance="10"
     guidetolerance="10"
     inkscape:pageopacity="0"
     inkscape:pageshadow="2"
     inkscape:window-width="640"
     inkscape:window-height="480"
     id="namedview6"
     showgrid="false"
     inkscape:zoom="4.9166667"
     inkscape:cx="-77.694916"
     inkscape:cy="24"
     inkscape:current-layer="svg4" />
  <path
     d="M40 14h-8v-4c0-1.1-.44-2.1-1.18-2.82C30.1 6.44 29.1 6 28 6h-8c-2.2 0-4 1.8-4 4v4H8c-2.2 0-4 1.8-4 4v22c0 2.2 1.8 4 4 4h32c2.2 0 4-1.8 4-4V18c0-2.2-1.8-4-4-4zm-20-4h8v4h-8v-4zm2 27l-2-2 6-6-6-6 2-2 8 8-8 8z"
     id="path2"
     style="stroke:none;fill:#686868;fill-opacity:1" />
</svg>
