<?xml version="1.0" encoding="UTF-8" standalone="no"?>
<svg
   xmlns:dc="http://purl.org/dc/elements/1.1/"
   xmlns:cc="http://creativecommons.org/ns#"
   xmlns:rdf="http://www.w3.org/1999/02/22-rdf-syntax-ns#"
   xmlns:svg="http://www.w3.org/2000/svg"
   xmlns="http://www.w3.org/2000/svg"
   xmlns:sodipodi="http://sodipodi.sourceforge.net/DTD/sodipodi-0.dtd"
   xmlns:inkscape="http://www.inkscape.org/namespaces/inkscape"
   width="48"
   height="48"
   viewBox="0 0 48 48"
   version="1.1"
   id="svg4"
   sodipodi:docname="ic_style_48px.svg"
   inkscape:version="0.92.1 r">
  <metadata
     id="metadata10">
    <rdf:RDF>
      <cc:Work
         rdf:about="">
        <dc:format>image/svg+xml</dc:format>
        <dc:type
           rdf:resource="http://purl.org/dc/dcmitype/StillImage" />
      </cc:Work>
    </rdf:RDF>
  </metadata>
  <defs
     id="defs8" />
  <sodipodi:namedview
     pagecolor="#ffffff"
     bordercolor="#666666"
     borderopacity="1"
     objecttolerance="10"
     gridtolerance="10"
     guidetolerance="10"
     inkscape:pageopacity="0"
     inkscape:pageshadow="2"
     inkscape:window-width="921"
     inkscape:window-height="480"
     id="namedview6"
     showgrid="false"
     inkscape:zoom="4.9166667"
     inkscape:cx="-26.847457"
     inkscape:cy="72.813559"
     inkscape:window-x="0"
     inkscape:window-y="0"
     inkscape:window-maximized="0"
     inkscape:current-layer="svg4" />
  <path
     d="M5.06 39.31l2.69 1.11V22.37L2.9 34.08c-.84 2.03.13 4.38 2.16 5.23zm39-7.42L34.14 7.96c-.62-1.5-2.08-2.43-3.61-2.46-.53-.01-1.07.09-1.6.3L14.2 11.9c-1.5.62-2.42 2.07-2.46 3.6-.01.54.08 1.08.3 1.61l9.91 23.93c.63 1.52 2.1 2.44 3.66 2.46.52 0 1.04-.09 1.55-.3l14.73-6.1c2.03-.84 3.01-3.18 2.17-5.21zM15.75 17.5c-1.1 0-2-.9-2-2s.9-2 2-2 2 .9 2 2-.9 2-2 2zm-4 22c0 2.2 1.8 4 4 4h2.91l-6.91-16.68V39.5z"
     id="path2"
     style="stroke:none;fill:#686868;fill-opacity:1" />
</svg>
